<?xml version="1.0" encoding="UTF-8"?>
<svg version="1.1" xmlns="http://www.w3.org/2000/svg" width="512" height="512">
<path d="M0 0 C2.90052431 0.64178762 4.07263249 1.57533966 6.22998047 3.58911133 C6.91914551 4.22357178 7.60831055 4.85803223 8.31835938 5.51171875 C9.02782715 6.18307861 9.73729492 6.85443848 10.46826172 7.54614258 C11.16870605 8.19365479 11.86915039 8.84116699 12.59082031 9.50830078 C14.74923722 11.50873047 16.89163901 13.52510718 19.03076172 15.54614258 C19.74683594 16.2190332 20.46291016 16.89192383 21.20068359 17.58520508 C25.70250188 21.82895735 30.12074949 26.14446914 34.46826172 30.54614258 C35.41443359 30.06145508 36.36060547 29.57676758 37.33544922 29.07739258 C60.16810367 17.46206247 83.17295121 8.23005777 108.46826172 3.54614258 C109.2175293 3.39661133 109.96679688 3.24708008 110.73876953 3.09301758 C136.75810844 -1.96478437 166.51123024 -1.69791071 192.46826172 3.54614258 C193.34434082 3.71243164 194.22041992 3.8787207 195.12304688 4.05004883 C224.62352935 9.72827393 253.9051389 21.07763161 278.46826172 38.54614258 C279.61702656 39.33142457 280.76680149 40.11523058 281.91748047 40.89770508 C300.5180082 53.69021354 317.88285514 69.48692107 331.46826172 87.54614258 C331.95359375 88.18213379 332.43892578 88.818125 332.93896484 89.47338867 C340.72739534 99.72468556 347.50017559 110.2184372 353.45947266 121.63110352 C354.34288864 123.30814006 355.26573945 124.9642817 356.19482422 126.61645508 C359.06791837 131.86506842 360.38349018 135.54631158 359.46826172 141.54614258 C357.67462261 144.35617718 356.44945237 146.05554725 353.46826172 147.54614258 C351.47998047 147.81958008 351.47998047 147.81958008 349.15576172 147.92114258 C348.39650391 147.97012695 347.63724609 148.01911133 346.85498047 148.06958008 C343.17027565 147.26147788 341.85192501 145.43846922 339.46826172 142.54614258 C337.69826555 139.60465107 336.17643111 136.55985215 334.65576172 133.48364258 C330.71347063 125.76702034 326.54495172 118.58541886 321.46826172 111.54614258 C320.78376953 110.58836914 320.09927734 109.6305957 319.39404297 108.64379883 C308.1072058 93.22318287 295.53202932 79.35844121 280.46826172 67.54614258 C279.56591797 66.8268457 278.66357422 66.10754883 277.73388672 65.36645508 C245.08440901 40.02252349 202.69366026 22.59844868 161.01513672 22.34301758 C160.24120575 22.33595795 159.46727478 22.32889832 158.66989136 22.32162476 C142.409304 22.20700605 126.43598378 22.09749255 110.46826172 25.54614258 C109.55077148 25.73418457 108.63328125 25.92222656 107.68798828 26.1159668 C87.96841073 30.24584167 69.3504451 37.29580643 51.46826172 46.54614258 C55.31408777 51.16509723 59.31581103 55.49554006 63.63623047 59.67114258 C64.78836132 60.80090427 65.94004086 61.93112635 67.09130859 63.06176758 C68.8773781 64.81070415 70.66628776 66.55632311 72.46313477 68.29418945 C74.21762616 69.99395008 75.95893441 71.70636004 77.69873047 73.42114258 C78.23314255 73.93177246 78.76755463 74.44240234 79.31816101 74.96850586 C82.70474061 78.33122265 85.63942292 81.71509278 86.46826172 86.54614258 C86.31466274 89.59412939 85.887932 92.52570491 85.40342712 95.53889465 C82.2087977 115.485353 79.43390739 139.90474143 91.75550461 157.26405716 C106.47234791 176.47436387 125.69378889 192.75123488 144.35934258 208.01311684 C150.15745021 212.79905471 150.15745021 212.79905471 150.83935547 216.63208008 C150.96988172 221.13139668 150.97601552 222.92121482 148.03076172 226.54614258 C147.18513672 227.20614258 146.33951172 227.86614258 145.46826172 228.54614258 C145.13826172 228.87614258 144.80826172 229.20614258 144.46826172 229.54614258 C139.48150336 230.1585515 136.67642169 230.10766106 132.65600586 226.99145508 C128.41820763 223.64556905 124.69681439 219.9346493 121.02685547 215.98364258 C120.33837021 215.25258301 119.64988495 214.52152344 118.9405365 213.76831055 C114.50218211 208.97741667 110.43788514 204.00389131 106.47831726 198.81343079 C88.50976868 175.41431093 88.50976868 175.41431093 62.23432636 164.39012337 C47.31645135 162.79967954 32.05403862 163.58755287 17.14974976 165.0176239 C9.49279 165.72009637 4.60780644 165.93935218 -1.54125977 160.89892578 C-2.07307861 160.30426514 -2.60489746 159.70960449 -3.15283203 159.09692383 C-3.7709375 158.42072998 -4.38904297 157.74453613 -5.02587891 157.04785156 C-5.6671875 156.3254126 -6.30849609 155.60297363 -6.96923828 154.85864258 C-8.3614376 153.33307374 -9.75604162 151.80969649 -11.15283203 150.28833008 C-11.86681152 149.508125 -12.58079102 148.72791992 -13.31640625 147.92407227 C-16.95871291 144.01443298 -20.73933302 140.24700362 -24.53173828 136.48364258 C-25.23226318 135.78730713 -25.93278809 135.09097168 -26.65454102 134.37353516 C-28.27812669 132.76221067 -29.90367409 131.15293986 -31.53173828 129.54614258 C-41.67776261 148.86676337 -49.02253757 168.15212462 -53.53173828 189.54614258 C-53.80074951 190.77445801 -53.80074951 190.77445801 -54.07519531 192.02758789 C-63.81778577 238.37019789 -53.7916874 288.36373333 -31.53173828 329.54614258 C-31.16741699 330.22499512 -30.8030957 330.90384766 -30.42773438 331.60327148 C-11.73250618 366.00796393 17.88497923 394.40465452 52.46826172 412.54614258 C53.29165039 412.97910645 54.11503906 413.41207031 54.96337891 413.8581543 C84.34464252 429.07081706 114.63982479 435.48264083 147.46826172 437.54614258 C147.46826172 425.00614258 147.46826172 412.46614258 147.46826172 399.54614258 C142.84826172 399.54614258 138.22826172 399.54614258 133.46826172 399.54614258 C130.3183695 399.23668831 127.31946479 398.89363224 124.21826172 398.35864258 C123.42234619 398.22554688 122.62643066 398.09245117 121.80639648 397.95532227 C95.20413022 393.26312023 70.12110641 382.69846624 48.46826172 366.54614258 C47.63294922 365.92352539 46.79763672 365.3009082 45.93701172 364.65942383 C34.58771938 355.87109194 24.07151107 346.05885444 15.46826172 334.54614258 C15.06124023 334.00344727 14.65421875 333.46075195 14.23486328 332.90161133 C1.46759871 315.77550018 -7.92533034 297.41503681 -13.90673828 276.85864258 C-14.13304932 276.08979736 -14.35936035 275.32095215 -14.5925293 274.52880859 C-18.40064148 260.65057776 -20.04064964 246.73120065 -19.92285156 232.36889648 C-19.9067364 230.04587158 -19.92284175 227.72458519 -19.94189453 225.40161133 C-19.95470571 217.40911422 -19.47732748 209.60663555 -18.25830078 201.70239258 C-18.15045258 200.95727417 -18.04260437 200.21215576 -17.93148804 199.44445801 C-17.13081639 194.80102972 -15.837069 191.90988268 -12.53173828 188.54614258 C-9.0456394 186.80309314 -5.33533757 186.9746173 -1.53173828 187.54614258 C1.92706515 189.92406994 3.15820603 191.55396438 4.40576172 195.54614258 C4.68203001 198.90621085 4.09449483 201.97447187 3.49951172 205.28051758 C2.26246652 213.11459103 2.02630588 220.88401683 2.03076172 228.79614258 C2.03035889 229.53536957 2.02995605 230.27459656 2.02954102 231.03622437 C2.15809262 272.29519366 19.23200819 308.93978516 47.96044922 338.07348633 C75.45909062 363.72385839 110.41875983 376.20830497 147.46826172 378.54614258 C147.47738838 371.5896069 147.43980698 364.63441665 147.37060547 357.67822266 C147.35250017 355.31467337 147.34486697 352.9510187 147.34814453 350.58740234 C147.35101717 347.17829716 147.31553757 343.77135335 147.27294922 340.36254883 C147.28659012 338.79169273 147.28659012 338.79169273 147.30050659 337.18910217 C147.17127555 330.58238945 145.89398213 327.06839456 141.97357178 321.80361938 C136.31341143 313.31521486 137.02256948 302.60084963 137.06982422 292.80786133 C137.06779816 291.31337848 137.06488231 289.81889661 137.06112671 288.32441711 C137.05673517 285.21390234 137.06303551 282.10364825 137.07714844 278.99316406 C137.09431371 275.01766536 137.08433325 271.04277117 137.06643105 267.06729412 C137.05557049 263.9899696 137.05904862 260.91278765 137.06681442 257.83545876 C137.0688063 256.36951436 137.06639297 254.90355675 137.05937576 253.43762779 C137.05171489 251.38971135 137.06342496 249.34276634 137.08007812 247.29492188 C137.0824649 246.1334111 137.08485168 244.97190033 137.08731079 243.77519226 C137.52220217 240.08892783 138.52897895 237.69798858 140.46826172 234.54614258 C144.12870839 232.1058448 146.83210722 232.27732008 151.06079102 232.3190918 C152.21724625 232.31865372 152.21724625 232.31865372 153.39706421 232.31820679 C155.94565074 232.31960024 158.493945 232.33516209 161.04248047 232.35083008 C162.80939067 232.35456015 164.57630294 232.35740715 166.34321594 232.35940552 C170.9940868 232.36704241 175.64483278 232.38669138 180.2956543 232.40881348 C185.04132396 232.4292707 189.7870138 232.43840697 194.53271484 232.44848633 C203.84461867 232.46993721 213.15642981 232.50407385 222.46826172 232.54614258 C222.45255127 231.89129883 222.43684082 231.23645508 222.4206543 230.56176758 C222.35778238 227.55664927 222.31910684 224.55166995 222.28076172 221.54614258 C222.24305664 220.00120117 222.24305664 220.00120117 222.20458984 218.42504883 C222.13148061 210.77294927 223.06534559 205.27480554 227.28076172 198.73364258 C230.55567307 195.45873123 233.84671127 193.74118301 238.46762085 193.18537903 C239.52019073 193.19204086 240.57276062 193.1987027 241.65722656 193.20556641 C243.45841446 193.2059063 243.45841446 193.2059063 245.29598999 193.20625305 C246.57744904 193.22173691 247.85890808 193.23722076 249.17919922 193.25317383 C250.51583376 193.25877572 251.8524745 193.26304302 253.18911743 193.26603699 C256.69091075 193.27743924 260.19232514 193.30686561 263.69396973 193.34014893 C267.27362951 193.37095022 270.85335109 193.38456371 274.43310547 193.3996582 C281.44497894 193.43174053 288.45660209 193.48288013 295.46826172 193.54614258 C294.38356686 190.3907027 293.29173442 187.23777546 292.19873047 184.08520508 C291.8957605 183.20356689 291.59279053 182.32192871 291.28063965 181.41357422 C284.59781082 162.18438749 274.84441682 144.52546311 260.62451172 129.80786133 C258.46826172 127.54614258 258.46826172 127.54614258 256.39404297 124.94848633 C236.18563796 99.73921842 198.47705106 85.32291957 167.46826172 81.54614258 C164.83353252 81.45653744 162.22684811 81.40555465 159.59326172 81.41333008 C158.86510254 81.41237335 158.13694336 81.41141663 157.38671875 81.41043091 C155.85725823 81.4097547 154.32779474 81.41156969 152.79833984 81.41577148 C150.47470574 81.42112772 148.1512649 81.41580742 145.82763672 81.40942383 C144.33284463 81.41008471 142.83805266 81.41136608 141.34326172 81.41333008 C140.6576416 81.41130585 139.97202148 81.40928162 139.265625 81.40719604 C134.91601895 81.42804612 130.75964495 81.85527283 126.46826172 82.54614258 C122.08940582 83.01558056 119.03514113 82.84504263 115.03076172 80.73364258 C111.8011096 77.97662247 111.5644987 76.39623593 111.09326172 72.23364258 C111.47728228 68.45744041 112.23958889 66.53499746 114.85498047 63.76489258 C117.77931457 61.5557104 120.90012911 61.03727858 124.46826172 60.54614258 C125.67135986 60.37864502 126.87445801 60.21114746 128.11401367 60.03857422 C132.23879096 59.52693711 136.33782661 59.36951751 140.49169922 59.34301758 C141.23099167 59.33600327 141.97028412 59.32898895 142.73197937 59.32176208 C145.10246956 59.30436368 147.47271003 59.29791051 149.84326172 59.29614258 C151.05778519 59.29513046 151.05778519 59.29513046 152.29684448 59.2940979 C163.97268555 59.30958252 175.09113435 59.72820952 186.46826172 62.54614258 C188.00722041 62.89035701 189.54628792 63.23408523 191.08544922 63.57739258 C217.69221798 69.79276407 243.2344942 82.80262296 263.23779297 101.46801758 C265.28608794 103.37641149 267.38861769 105.18238984 269.53076172 106.98364258 C283.52954237 119.27457199 293.98544866 135.10480427 302.46826172 151.54614258 C302.78778809 152.16457031 303.10731445 152.78299805 303.43652344 153.42016602 C309.76242091 165.86032612 314.21296049 178.99002901 317.46826172 192.54614258 C318.69802734 192.58352539 319.92779297 192.6209082 321.19482422 192.65942383 C322.82766573 192.72511285 324.4604769 192.79155917 326.09326172 192.85864258 C327.305625 192.89248047 327.305625 192.89248047 328.54248047 192.92700195 C334.42755789 193.19015582 338.84883606 194.12990088 343.33154297 198.26489258 C343.80978516 198.85270508 344.28802734 199.44051758 344.78076172 200.04614258 C345.27189453 200.63395508 345.76302734 201.22176758 346.26904297 201.82739258 C348.69019466 205.29744712 348.58587237 208.43595901 348.56591797 212.52661133 C348.56269531 213.68999023 348.55947266 214.85336914 348.55615234 216.05200195 C348.54777344 217.26694336 348.53939453 218.48188477 348.53076172 219.73364258 C348.52625 220.96018555 348.52173828 222.18672852 348.51708984 223.45043945 C348.50529237 226.48238926 348.48883092 229.51424164 348.46826172 232.54614258 C349.45940475 232.53503952 350.45054779 232.52393646 351.47172546 232.51249695 C360.81481745 232.41111439 370.15779776 232.33617415 379.50131512 232.28708172 C384.30490237 232.26099403 389.10804538 232.22561125 393.91137695 232.16894531 C398.54740066 232.11459576 403.18299724 232.0847158 407.81931496 232.07175636 C409.58759091 232.06252174 411.35584362 232.04448829 413.12393761 232.01749229 C415.60209938 231.98116147 418.07849929 231.9761987 420.55688477 231.97851562 C421.65200882 231.95155106 421.65200882 231.95155106 422.76925659 231.92404175 C426.48352147 231.96158458 428.36261075 232.47178974 431.42327881 234.62576294 C433.99050859 238.29194789 434.09604666 240.38487267 434.09936523 244.83984375 C434.11009819 245.91412125 434.11009819 245.91412125 434.12104797 247.01010132 C434.13791139 249.37042695 434.11853913 251.72884544 434.09716797 254.08911133 C434.09799735 255.73952897 434.10045936 257.38994653 434.10447693 259.0403595 C434.1073339 262.49965281 434.09265246 265.95829837 434.06518555 269.41748047 C434.0312361 273.82786896 434.03707701 278.23708943 434.05584812 282.64753246 C434.06647965 286.05792264 434.05742267 289.46804672 434.0424633 292.87841225 C434.03731695 294.5029248 434.03771972 296.12746558 434.04400826 297.75197411 C434.08537527 314.87074767 434.08537527 314.87074767 429.46826172 322.54614258 C428.77286285 323.23739227 428.07746399 323.92864197 427.36099243 324.64083862 C424.4960491 329.03846959 424.9206969 333.12632606 424.9699707 338.26806641 C424.9644519 339.3483461 424.95893311 340.42862579 424.95324707 341.54164124 C424.94392798 343.88514705 424.9438211 346.22870351 424.95184135 348.57221413 C424.964461 352.28421446 424.95318932 355.99547006 424.93580627 359.70744324 C424.90634588 366.92169589 424.90348299 374.13582486 424.90545654 381.35012054 C424.90694493 391.14597557 424.89018556 400.94165931 424.84932137 410.73743248 C424.83949446 414.38902554 424.84819602 418.04026307 424.85801697 421.69184875 C424.8518707 423.93991324 424.84495828 426.1879758 424.8371582 428.43603516 C424.84487747 429.44670044 424.85259674 430.45736572 424.86054993 431.49865723 C424.80509779 439.26282383 423.54347122 445.84911877 418.21826172 451.85864258 C417.67685547 452.49415039 417.13544922 453.1296582 416.57763672 453.78442383 C410.35239483 458.98365363 404.01768228 458.97856313 396.25421143 458.93382263 C395.13205317 458.93920817 394.00989492 458.94459371 392.85373187 458.95014244 C389.09654925 458.96443964 385.3397181 458.9573133 381.58251953 458.95019531 C378.88640226 458.95589855 376.19031011 458.96276254 373.49420166 458.97099304 C366.92811092 458.98818181 360.36211589 458.98901947 353.7960085 458.98378014 C348.44695024 458.97973088 343.09792015 458.98119102 337.74886322 458.9865284 C336.60465351 458.98765103 336.60465351 458.98765103 335.43732844 458.98879634 C333.88720792 458.99032797 332.3370874 458.99186632 330.78696689 458.99341131 C316.24563181 459.00714114 301.7043505 459.00169933 287.16301665 458.9902261 C273.91880211 458.98033289 260.67472808 458.99316541 247.43053523 459.01716029 C233.79204908 459.04168026 220.15362798 459.0511253 206.51512027 459.04450756 C198.87453308 459.04103865 191.2340533 459.04308921 183.59348297 459.06075859 C177.0759283 459.07564445 170.55855627 459.07590858 164.04100457 459.05868768 C160.72813737 459.05029972 157.41585491 459.0499738 154.10296631 459.06333923 C114.74973786 459.20978355 77.23362737 451.27137244 42.46826172 432.54614258 C41.80487793 432.19438965 41.14149414 431.84263672 40.45800781 431.48022461 C-12.55014908 403.25740836 -52.31757614 353.19291659 -69.81591797 295.98950195 C-71.05436356 291.76222928 -72.16810843 287.51108438 -73.21923828 283.23364258 C-73.40945557 282.47817139 -73.59967285 281.7227002 -73.7956543 280.94433594 C-77.74166387 264.13725812 -79.06013339 247.32522573 -78.90673828 230.10864258 C-78.90208557 229.17047699 -78.89743286 228.2323114 -78.89263916 227.26571655 C-78.81284208 213.51562692 -78.46867676 200.02936012 -75.53173828 186.54614258 C-75.32774414 185.59368652 -75.12375 184.64123047 -74.91357422 183.65991211 C-69.93788222 161.05926165 -62.10042316 140.75822801 -51.74926758 120.09130859 C-50.56302203 117.61153922 -49.52224442 115.10958515 -48.53173828 112.54614258 C-49.40499756 111.67812012 -50.27825684 110.81009766 -51.17797852 109.91577148 C-54.41015485 106.70166397 -57.63904615 103.48427365 -60.86694336 100.26586914 C-62.26578483 98.87206356 -63.66552154 97.47915586 -65.06616211 96.0871582 C-67.07656828 94.08885006 -69.08375715 92.0873594 -71.09033203 90.08520508 C-72.0340995 89.14917953 -72.0340995 89.14917953 -72.99693298 88.19424438 C-73.57745926 87.61379364 -74.15798553 87.0333429 -74.75610352 86.43530273 C-75.26906479 85.92456207 -75.78202606 85.41382141 -76.31053162 84.88760376 C-79.07727648 81.84841232 -78.91887152 78.74059024 -78.88720703 74.80786133 C-78.31846006 71.18913058 -76.38008216 69.66584035 -73.53173828 67.54614258 C-70.37839002 66.49502649 -68.17661545 66.42543786 -64.86694336 66.43261719 C-63.70596634 66.43269272 -62.54498932 66.43276825 -61.34883118 66.43284607 C-59.46903816 66.440588 -59.46903816 66.440588 -57.55126953 66.44848633 C-56.26814377 66.44990128 -54.98501801 66.45131622 -53.66300964 66.45277405 C-50.25503587 66.45658853 -46.84710485 66.46640967 -43.43914795 66.47747803 C-39.96025165 66.48771514 -36.48134843 66.4922766 -33.00244141 66.49731445 C-26.17885616 66.50803291 -19.35529927 66.52509649 -12.53173828 66.54614258 C-12.5361795 65.84314529 -12.54062073 65.14014801 -12.54519653 64.41584778 C-12.58532362 57.78044255 -12.61574825 51.14507134 -12.63536263 44.50957203 C-12.64578568 41.09845095 -12.65991767 37.68743041 -12.68261719 34.27636719 C-12.70856832 30.35198177 -12.71822333 26.42763662 -12.72705078 22.50317383 C-12.73737335 21.28217484 -12.74769592 20.06117584 -12.7583313 18.80317688 C-12.75848236 17.66237167 -12.75863342 16.52156647 -12.75878906 15.34619141 C-12.76323029 14.34469559 -12.76767151 13.34319977 -12.77224731 12.31135559 C-12.42796316 8.35300526 -11.17861263 5.50351661 -8.96923828 2.23364258 C-5.8682532 0.08680675 -3.73340474 -0.23129054 0 0 Z M8.46826172 36.54614258 C6.3132081 50.27647835 3.74285022 66.79117487 12.16443443 78.81284332 C18.65234012 87.05714826 26.52293807 94.06062962 34.3694458 100.97753906 C37.80512561 104.04589369 41.13306861 107.22713086 44.47412109 110.39770508 C49.3352798 114.98308869 54.23178359 119.52315181 59.21411133 123.97680664 C59.73415741 124.44389038 60.25420349 124.91097412 60.79000854 125.39221191 C62.84025259 127.59919893 62.84025259 127.59919893 65.46826172 128.54614258 C65.74281475 123.47862317 65.94092969 118.41553448 66.07250977 113.34228516 C66.12740706 111.6221164 66.20216455 109.90245088 66.2980957 108.18408203 C67.14017679 97.60935332 67.14017679 97.60935332 63.25195312 88.13842773 C60.59763366 85.2575505 57.57954666 82.92168799 54.46826172 80.54614258 C48.53721539 75.59854718 43.05721714 70.25649442 37.62841797 64.76879883 C36.82085556 63.9574498 36.01329315 63.14610077 35.18125916 62.31016541 C32.62863467 59.74542141 30.07930718 57.17743947 27.53076172 54.60864258 C24.14947277 51.20087081 20.76495817 47.79635115 17.37841797 44.39379883 C16.59934586 43.60642838 15.82027374 42.81905792 15.01759338 42.00782776 C14.30272263 41.28965378 13.58785187 40.5714798 12.85131836 39.83154297 C12.22036758 39.19535538 11.58941681 38.55916779 10.93934631 37.90370178 C9.67940657 36.43311231 9.67940657 36.43311231 8.46826172 36.54614258 Z M-42.53173828 87.54614258 C-33.11303 98.61076307 -23.47283845 109.44487319 -13.46923828 119.98364258 C-12.91538704 120.56777672 -12.3615358 121.15191086 -11.79090118 121.75374603 C4.96555484 140.12459837 4.96555484 140.12459837 27.64595032 148.02592468 C35.42670844 148.08815516 43.03829108 146.81095261 50.46826172 144.54614258 C41.04955344 133.48152209 31.40936188 122.64741196 21.40576172 112.10864258 C20.85191048 111.52450844 20.29805923 110.9403743 19.72742462 110.33853912 C2.97096859 91.96768679 2.97096859 91.96768679 -19.70942688 84.06636047 C-27.490185 84.00413 -35.10176765 85.28133255 -42.53173828 87.54614258 Z M243.46826172 214.54614258 C243.46826172 220.48614258 243.46826172 226.42614258 243.46826172 232.54614258 C271.18826172 232.54614258 298.90826172 232.54614258 327.46826172 232.54614258 C327.46826172 226.60614258 327.46826172 220.66614258 327.46826172 214.54614258 C299.74826172 214.54614258 272.02826172 214.54614258 243.46826172 214.54614258 Z M158.46826172 252.54614258 C155.38577394 285.64717901 155.38577394 285.64717901 163.46826172 315.54614258 C167.57973267 319.11763577 171.80663047 318.95743118 177.0222168 318.88671875 C177.87150757 318.88715683 178.72079834 318.88759491 179.5958252 318.88804626 C182.39338444 318.88596199 185.19033886 318.86264804 187.98779297 318.83911133 C189.93120496 318.83351409 191.8746212 318.82924459 193.81803894 318.82624817 C198.92597194 318.81480948 204.03364786 318.7853506 209.14147949 318.75213623 C214.35649132 318.72141436 219.5715448 318.7077383 224.78662109 318.69262695 C235.0139474 318.66048005 245.24108316 318.60929541 255.46826172 318.54614258 C255.52739746 317.79268555 255.5865332 317.03922852 255.64746094 316.26293945 C255.73012207 315.27358398 255.8127832 314.28422852 255.89794922 313.26489258 C256.01759033 311.79439453 256.01759033 311.79439453 256.13964844 310.29418945 C256.56581104 306.73038096 257.30584375 304.42936653 259.46826172 301.54614258 C264.86609074 298.67219701 269.20186005 298.11106338 275.25341797 298.18286133 C276.48239052 298.18211357 276.48239052 298.18211357 277.7361908 298.18135071 C279.45818524 298.18367866 281.1801839 298.19333109 282.90209961 298.20996094 C285.52667878 298.23360579 288.15024323 298.2305055 290.77490234 298.22387695 C292.45524689 298.22945317 294.1355872 298.2365627 295.81591797 298.24536133 C296.59419449 298.24444992 297.37247101 298.24353851 298.17433167 298.24259949 C303.56825595 298.31229186 308.1480707 298.74450661 312.5594635 302.16996765 C315.09571846 305.32723456 315.27432645 307.80072519 315.71826172 311.79614258 C315.94255859 313.69106445 315.94255859 313.69106445 316.17138672 315.62426758 C316.26935547 316.58848633 316.36732422 317.55270508 316.46826172 318.54614258 C327.57757294 318.63887701 338.68679187 318.70992521 349.79641151 318.75339127 C354.95523386 318.77425424 360.11379114 318.80254855 365.27246094 318.84790039 C370.25211564 318.89140382 375.23151558 318.91528939 380.21134567 318.92565155 C382.10994857 318.93303482 384.00853774 318.94745272 385.90703201 318.96906281 C388.56918575 318.99815666 391.23029065 319.0020961 393.89257812 319.00024414 C395.06646591 319.0218158 395.06646591 319.0218158 396.2640686 319.04382324 C401.44674275 319.00488472 404.34814845 317.95022367 408.46826172 314.54614258 C421.2017648 298.37115217 413.46826172 266.85529475 413.46826172 252.54614258 C329.31826172 252.54614258 245.16826172 252.54614258 158.46826172 252.54614258 Z M276.46826172 318.54614258 C276.33276532 321.7559018 276.23392134 324.95989886 276.15576172 328.17114258 C276.11386719 329.07477539 276.07197266 329.9784082 276.02880859 330.90942383 C275.94710684 335.38668014 275.94701191 338.55040777 278.83544922 342.12817383 C281.62499934 344.69009003 282.70586376 345.63790838 286.46826172 345.54614258 C290.15606191 344.29229051 291.98282977 343.28395367 294.13623047 340.01098633 C295.84130313 335.57579733 295.80057337 331.86406514 295.65576172 327.17114258 C295.59388672 324.32489258 295.53201172 321.47864258 295.46826172 318.54614258 C289.19826172 318.54614258 282.92826172 318.54614258 276.46826172 318.54614258 Z M168.46826172 339.54614258 C168.46826172 371.88614258 168.46826172 404.22614258 168.46826172 437.54614258 C180.98993946 438.40174284 180.98993946 438.40174284 193.49005127 438.67985535 C194.83529708 438.68325368 194.83529708 438.68325368 196.20771956 438.68672067 C199.15297924 438.69295009 202.09819159 438.69223862 205.04345703 438.69140625 C207.17870644 438.6944043 209.31395531 438.6978083 211.44920349 438.70158386 C217.20246833 438.71035302 222.95571827 438.7127587 228.70898914 438.71339965 C232.30536108 438.71411311 235.90172928 438.7162528 239.49810028 438.71889687 C252.0478896 438.7281201 264.59766834 438.73223472 277.14746094 438.73144531 C288.84646015 438.73084227 300.5454136 438.74144599 312.24440122 438.75718898 C322.30156968 438.77024077 332.35872311 438.77563035 342.41589999 438.7749899 C348.41796152 438.77473463 354.41998213 438.77760339 360.42203522 438.78816795 C366.05279142 438.79781149 371.6834672 438.79795404 377.31422615 438.79065132 C379.38350351 438.78960146 381.4527858 438.79199197 383.52205467 438.79801178 C386.3382245 438.80567678 389.15411255 438.80112394 391.97027588 438.79338074 C392.79564134 438.7985243 393.6210068 438.80366786 394.47138333 438.80896729 C398.33231279 438.78537552 400.17911012 438.73891031 403.46826172 436.54614258 C403.88564044 433.83130664 403.88564044 433.83130664 403.76123047 430.66333008 C403.74672852 428.91342773 403.74672852 428.91342773 403.73193359 427.12817383 C403.70679688 425.90485352 403.68166016 424.6815332 403.65576172 423.42114258 C403.64222656 422.19008789 403.62869141 420.9590332 403.61474609 419.69067383 C403.57929714 416.64206415 403.52988251 413.59431757 403.46826172 410.54614258 C402.59795822 410.53583511 401.72765472 410.52552765 400.83097839 410.51490784 C392.63495327 410.41698867 384.4390012 410.31448212 376.24309826 410.20680332 C372.02936096 410.15160506 367.81561668 410.09818999 363.60180664 410.04882812 C359.53635408 410.00113892 355.47098583 409.94879442 351.40563393 409.89320183 C349.85349943 409.87279893 348.30134183 409.85408244 346.74916649 409.83706856 C344.57756567 409.8129788 342.40612385 409.78293059 340.23461914 409.75146484 C338.99773849 409.73592056 337.76085785 409.72037628 336.48649597 409.70436096 C333.46826172 409.54614258 333.46826172 409.54614258 330.46826172 408.54614258 C328.60151111 404.30269974 328.39970016 400.16319662 328.90576172 395.60864258 C330.46826172 392.54614258 330.46826172 392.54614258 333.6375885 391.37466431 C337.3169308 390.57887337 340.56474609 390.27055926 344.3215332 390.22729492 C344.96629105 390.2172493 345.61104889 390.20720367 346.27534485 390.19685364 C348.380007 390.16627109 350.48454349 390.14905711 352.58935547 390.13208008 C354.05909793 390.11334826 355.52882987 390.09377338 356.99855042 390.07339478 C360.84697232 390.02227995 364.695429 389.98254446 368.54400635 389.94525146 C373.17229075 389.89800577 377.80040533 389.83649725 382.42855072 389.77740479 C389.44171839 389.68944449 396.45485768 389.61950051 403.46826172 389.54614258 C403.46826172 373.04614258 403.46826172 356.54614258 403.46826172 339.54614258 C374.42826172 339.54614258 345.38826172 339.54614258 315.46826172 339.54614258 C314.47826172 342.84614258 313.48826172 346.14614258 312.46826172 349.54614258 C307.80786245 357.09155091 301.83116666 362.62331405 293.09326172 364.98364258 C282.94022452 366.65528648 273.89402285 364.48384015 265.46826172 358.54614258 C259.88707519 352.7180009 258.06685839 347.3419326 255.46826172 339.54614258 C226.75826172 339.54614258 198.04826172 339.54614258 168.46826172 339.54614258 Z " fill="#000000" transform="translate(78.53173828125,26.453857421875)"/>
<path d="M0 0 C2.38312703 1.89428046 3.6500559 3.30011179 5 6 C5.36503283 10.92794324 4.86998105 14.77455603 3.51171875 19.5234375 C1.89191121 25.83808829 1.49738087 31.75080557 1.5625 38.25 C1.57152344 39.34046631 1.58054688 40.43093262 1.58984375 41.55444336 C2.022997 61.890086 9.56522238 79.66247678 23.375 94.5625 C29.14487495 99.92024102 34.87004613 105.11275896 41.37109375 109.578125 C44.12389058 111.98104598 44.90912026 114.30325536 45.375 117.875 C44.90139376 121.82171864 43.44329387 123.90995187 41 127 C37.24377219 128.87811391 33.9872396 128.94173753 30 128 C24.97053469 125.10863688 20.50426894 121.64064277 16 118 C15.17113281 117.35546875 14.34226563 116.7109375 13.48828125 116.046875 C-1.91870339 103.32297386 -13.70109616 83.43852173 -18 64 C-18.17225098 63.22664307 -18.34450195 62.45328613 -18.52197266 61.65649414 C-20.03905398 54.23117135 -20.38540378 47.00416992 -20.375 39.4375 C-20.37338867 38.21401855 -20.37177734 36.99053711 -20.37011719 35.72998047 C-20.2075497 23.61870248 -19.52215895 10.98477051 -12 1 C-8.4628316 -1.90553119 -4.17930477 -1.21002458 0 0 Z " fill="#000000" transform="translate(147,217)"/>
<path d="M0 0 C10.01817605 8.0711807 10.01817605 8.0711807 11.1875 14.4375 C10.51997334 17.77513331 9.48838988 19.98014739 7.625 22.8125 C3.90763616 25.29074256 0.52209189 25.17514108 -3.8125 24.4375 C-6.77658709 22.89370464 -9.08669498 21.05804758 -11.6171875 18.89453125 C-29.8835769 3.83337622 -51.58564015 -0.65356079 -74.8125 1.4375 C-79.12255055 2.14241481 -83.21272 3.24809579 -87.375 4.5625 C-92.40512859 5.84289637 -96.98254951 6.43203831 -101.6875 3.875 C-104.42864793 0.73074208 -105.25152802 -1.42533165 -105.8125 -5.5625 C-104.96851294 -9.11930262 -104.27942339 -11.5880225 -101.12744141 -13.68188477 C-68.69847705 -29.32375902 -27.85598454 -21.14314892 0 0 Z " fill="#000000" transform="translate(291.8125,174.5625)"/>
<path d="M0 0 C2.86624771 2.44825325 4.61349969 4.24877735 5.44140625 8 C5.65821147 11.69268247 5.10798801 13.83081878 3.125 16.9375 C-0.36158203 20.3215355 -3.03592714 20.38966392 -7.73828125 20.359375 C-11.32520929 19.78943134 -12.86838894 17.79773951 -15 15 C-16.43304064 12.13391871 -16.30644155 10.18699217 -16 7 C-14.37743711 3.98666891 -12.89925309 1.73867218 -10.25 -0.4375 C-6.66498744 -1.33375314 -3.46638537 -1.16003788 0 0 Z " fill="#000000" transform="translate(447,194)"/>
<path d="M0 0 C2.46810594 2.1516821 3.74159986 3.68402403 4.37890625 6.9296875 C4.60432912 10.78369142 4.24527155 12.61574124 2.125 15.9375 C-1.35839365 19.31844089 -4.03626432 19.40432349 -8.73828125 19.34375 C-11 19 -11 19 -14 16.875 C-16.26157198 13.62399027 -17 11.95490344 -17 8 C-15.74488452 3.37176167 -14.83102983 1.52738431 -10.75 -1.0625 C-6.26613335 -2.18346666 -4.19262057 -1.89854516 0 0 Z " fill="#000000" transform="translate(374,418)"/>
</svg>
