<?xml version="1.0" encoding="UTF-8"?>
<svg version="1.1" xmlns="http://www.w3.org/2000/svg" width="512" height="512">
<path d="M0 0 C2.59621269 1.64017491 4.76426597 3.65386772 7 5.75 C8.32127946 6.94177789 9.64290383 8.1331735 10.96484375 9.32421875 C11.63370605 9.93571777 12.30256836 10.5472168 12.99169922 11.17724609 C16.13340584 14.0286905 19.34829275 16.79341443 22.5625 19.5625 C23.80224962 20.63652683 25.04183325 21.7107453 26.28125 22.78515625 C30.03409233 26.03227537 33.7957722 29.2690025 37.5625 32.5 C38.40180054 33.22038452 38.40180054 33.22038452 39.25805664 33.95532227 C40.32093115 34.86578579 41.39114853 35.76776142 42.46923828 36.66015625 C44 38 44 38 45.41748047 39.55859375 C46.98131876 41.29715971 46.98131876 41.29715971 50 43 C52.05930308 42.71684645 52.05930308 42.71684645 54.1862793 41.85229492 C54.9834285 41.558862 55.7805777 41.26542908 56.60188293 40.96310425 C60.18201857 39.52529127 63.68945375 37.97527152 67.1796875 36.33203125 C68.31741104 35.80377495 68.31741104 35.80377495 69.4781189 35.2648468 C71.10296201 34.50980975 72.72681056 33.75262923 74.34973145 32.99346924 C76.91556899 31.79352747 79.48419736 30.5997628 82.05371094 29.40771484 C85.60589851 27.7595945 89.15729345 26.10978788 92.70800781 24.45849609 C100.13194442 21.00776872 107.56332012 17.57341608 115.003479 14.1578064 C116.48227764 13.47794954 117.96028748 12.79637387 119.43743896 12.11294556 C125.96055003 9.09493347 132.49690159 6.09923157 139.171875 3.4296875 C140.40309082 2.9344458 140.40309082 2.9344458 141.65917969 2.42919922 C144.93834518 1.82795048 146.16534407 2.20559995 149 4 C152.86204729 8.88279465 155.41341013 14.6697993 157.9609375 20.3125 C158.31459381 21.0844873 158.66825012 21.85647461 159.03262329 22.65185547 C160.15192084 25.09891422 161.26343672 27.54942004 162.375 30 C163.11150199 31.61089533 163.84847807 33.221574 164.5859375 34.83203125 C168.11575613 42.55499276 171.60324769 50.29724642 175.0390625 58.0625 C175.33968597 58.73555176 175.64030945 59.40860352 175.95004272 60.10205078 C178 64.76748653 178 64.76748653 178 67 C179.11479736 66.69102783 180.22959473 66.38205566 181.37817383 66.0637207 C195.31122416 62.58276509 211.6743343 60.45312035 225 67 C237.3357829 74.60196993 247.50202652 85.92020855 257.375 96.375 C258.03824406 97.0764426 258.70148811 97.77788521 259.38483047 98.50058365 C266.13162772 105.66461283 272.75515274 112.93401359 279.21630859 120.35693359 C279.69066754 120.90141805 280.16502649 121.4459025 280.65375996 122.00688648 C283.71921408 125.56744593 285.11834802 127.46886734 285.15821838 132.15078735 C285.17290161 133.45489815 285.17290161 133.45489815 285.18788147 134.78535461 C285.19363693 135.74129013 285.1993924 136.69722565 285.20532227 137.68212891 C285.21522186 138.68703873 285.22512146 139.69194855 285.23532104 140.72731018 C285.26699582 144.06037004 285.2917171 147.39344417 285.31640625 150.7265625 C285.33697061 153.03299335 285.35796694 155.33942038 285.37937927 157.64584351 C285.43465339 163.72526975 285.4840391 169.80473031 285.53222656 175.88421631 C285.58240264 182.08430038 285.638109 188.28433444 285.69335938 194.484375 C285.80100625 206.65620731 285.90243669 218.82808298 286 231 C287.02797699 230.9927037 288.05595398 230.98540741 289.11508179 230.97789001 C290.47825042 230.97198869 291.84141983 230.9662659 293.20458984 230.96069336 C293.88041611 230.95542381 294.55624237 230.95015427 295.25254822 230.94472504 C300.23772626 230.9294517 304.8082909 231.31687321 309.625 232.5625 C310.32955322 232.73813477 311.03410645 232.91376953 311.76000977 233.09472656 C328.65453808 237.64376801 342.617298 248.99170522 351.6875 263.75 C360.69853459 279.72686807 363.14517776 299.82032129 358.4375 317.625 C352.00281036 336.21410342 339.95539052 350.30959329 322.5 359.5 C319 361 319 361 316 361 C316.00888245 361.89012283 316.01776489 362.78024567 316.0269165 363.69734192 C316.10739139 372.12621258 316.16813061 380.55495238 316.20724869 388.98412037 C316.22803651 393.3166487 316.25619092 397.64885698 316.30175781 401.98120117 C316.34553275 406.16985361 316.36920315 410.35820011 316.37950897 414.54706383 C316.38684404 416.13731381 316.40116625 417.72754891 316.42292023 419.31766701 C316.60804027 433.42266393 314.35612059 444.13999274 304.4453125 454.6484375 C294.5092582 464.01400065 282.90383221 465.14925791 269.90086365 465.14717102 C268.05708314 465.15268605 268.05708314 465.15268605 266.17605454 465.1583125 C262.77141984 465.16741338 259.36683324 465.17204331 255.96219099 465.17470181 C252.28715928 465.17861582 248.61214138 465.18819332 244.93711853 465.19691467 C236.06592027 465.21664735 227.19472092 465.22674088 218.32350621 465.23564246 C214.14166048 465.24003029 209.959816 465.24539579 205.77797127 465.25063133 C191.86966305 465.26763982 177.96135561 465.28213313 164.0530386 465.28938007 C160.44641049 465.29128983 156.83978238 465.29321019 153.2331543 465.29516602 C151.88861037 465.29589163 151.88861037 465.29589163 150.51690394 465.2966319 C136.00220982 465.30492908 121.48759819 465.33026243 106.97294008 465.36274669 C92.05765203 465.3958544 77.14240586 465.41383215 62.22708088 465.41702431 C53.85809113 465.41918589 45.48922172 465.4278829 37.12026787 465.45348549 C29.99185912 465.4752432 22.86359996 465.48321804 15.73516177 465.47351871 C12.10208953 465.46898872 8.46932559 465.47078356 4.83629608 465.49028015 C0.88674531 465.51129112 -3.06238607 465.5008793 -7.01197815 465.48774719 C-8.71163824 465.50420106 -8.71163824 465.50420106 -10.4456349 465.52098733 C-23.45303276 465.41707901 -33.76761068 461.93936434 -43.12109375 452.96484375 C-51.53207454 444.21433713 -54.16510612 434.80321017 -54.07746887 422.82270813 C-54.07394006 422.1229718 -54.07041125 421.42323547 -54.0667755 420.70229501 C-54.0584749 419.1762617 -54.04781907 417.65023979 -54.03508186 416.12423706 C-54.01435589 413.64001793 -53.99964048 411.15582475 -53.98648071 408.67155457 C-53.97222582 405.99332465 -53.9575741 403.3151027 -53.94112074 400.63688529 C-53.90068582 393.99515096 -53.88000863 387.35356399 -53.8712616 380.7117157 C-53.86933618 379.26368851 -53.86933618 379.26368851 -53.86737186 377.78640825 C-53.86249385 373.8057772 -53.85831845 369.82514581 -53.85458529 365.84451354 C-53.84328733 354.5581419 -53.81248419 343.27261516 -53.72241211 331.98657227 C-53.65091737 323.01234909 -53.6219641 314.03912002 -53.64257544 305.06461972 C-53.6518926 300.31999565 -53.64006265 295.57759272 -53.57660866 290.83333778 C-53.51735717 286.36629105 -53.51486031 281.90270105 -53.55459976 277.43547249 C-53.55929293 275.80326726 -53.54373767 274.17084833 -53.50561714 272.53908157 C-53.21976636 262.93544536 -53.21976636 262.93544536 -57.57434654 254.66805077 C-60.4866648 251.80046027 -63.68929399 249.39408282 -67 247 C-68.84009755 245.50830562 -70.67459661 244.00964021 -72.5 242.5 C-73.3971875 241.778125 -74.294375 241.05625 -75.21875 240.3125 C-78.24019336 237.80028867 -81.12440078 235.17597543 -84 232.5 C-88.61001639 228.2104224 -93.37783236 224.19589103 -98.28515625 220.24609375 C-101.10673495 217.9116941 -103.80590712 215.48009402 -106.5 213 C-110.07792463 209.70668301 -113.71539666 206.55348679 -117.5 203.5 C-121.28460334 200.44651321 -124.92207537 197.29331699 -128.5 194 C-133.82259379 189.10382288 -139.36658149 184.53181203 -145 180 C-151.71603016 174.59023111 -151.71603016 174.59023111 -152.625 169.5 C-152.55653828 164.07196381 -149.18313165 161.33264547 -145.5625 157.6328125 C-143.05006204 155.05143569 -140.80785861 152.3772174 -138.5625 149.5625 C-134.70058325 144.78715598 -130.62325776 140.26332315 -126.46484375 135.74609375 C-124.07292703 133.08124834 -121.80745116 130.35168175 -119.5625 127.5625 C-115.90493736 123.02763839 -112.05382973 118.74463817 -108.08837891 114.48291016 C-104.28601193 110.37220724 -100.75729408 106.07724416 -97.24609375 101.71484375 C-94.9116941 98.89326505 -92.48009402 96.19409288 -90 93.5 C-86.70668301 89.92207537 -83.55348679 86.28460334 -80.5 82.5 C-76.66280969 77.74404581 -72.60614899 73.24495199 -68.46875 68.75 C-66.05621896 66.06262366 -63.7674379 63.31034556 -61.5 60.5 C-57.66280969 55.74404581 -53.60614899 51.24495199 -49.46875 46.75 C-47.05621896 44.06262366 -44.7674379 41.31034556 -42.5 38.5 C-38.66280969 33.74404581 -34.60614899 29.24495199 -30.46875 24.75 C-28.05621896 22.06262366 -25.7674379 19.31034556 -23.5 16.5 C-8.50055573 -2.05546225 -8.50055573 -2.05546225 0 0 Z M-5 18 C-7.0311868 20.0795123 -7.0311868 20.0795123 -9.0625 22.8125 C-12.25290502 26.85092192 -15.50207015 30.71830673 -19 34.5 C-22.29331699 38.07792463 -25.44651321 41.71539666 -28.5 45.5 C-32.33719031 50.25595419 -36.39385101 54.75504801 -40.53125 59.25 C-42.94378104 61.93737634 -45.2325621 64.68965444 -47.5 67.5 C-51.33835414 72.25739668 -55.39622359 76.75783918 -59.53515625 81.25390625 C-61.92707297 83.91875166 -64.19254884 86.64831825 -66.4375 89.4375 C-70.09506264 93.97236161 -73.94617027 98.25536183 -77.91162109 102.51708984 C-81.71398807 106.62779276 -85.24270592 110.92275584 -88.75390625 115.28515625 C-91.0883059 118.10673495 -93.51990598 120.80590712 -96 123.5 C-99.29331699 127.07792463 -102.44651321 130.71539666 -105.5 134.5 C-108.55348679 138.28460334 -111.70668301 141.92207537 -115 145.5 C-119.89661131 150.82306579 -124.46149131 156.3715345 -129 162 C-130.65839866 164.00712736 -132.32789773 166.00426503 -134 168 C-125.66037006 176.43195056 -116.92815302 184.36348294 -107.6796875 191.7890625 C-104.86746685 194.1093495 -102.18202737 196.53071134 -99.5 199 C-95.94329756 202.27418423 -92.32838189 205.40642433 -88.5625 208.4375 C-84.56774409 211.65944396 -80.75459104 215.00668205 -77 218.5 C-71.5310035 223.58545648 -65.83881171 228.34186428 -60 233 C-59.09121094 233.74378906 -58.18242188 234.48757813 -57.24609375 235.25390625 C-55.34257616 237.10229175 -55.34257616 237.10229175 -54 237 C-53.85304688 235.96101562 -53.70609375 234.92203125 -53.5546875 233.8515625 C-51.86583059 222.94730733 -49.4608973 214.44256544 -40.6875 207.0625 C-32.34238189 201.16121016 -24.03738147 200.44989809 -14 200 C-15.4576993 195.32172875 -17.32030635 190.91460393 -19.38671875 186.48046875 C-19.72052551 185.75725433 -20.05433228 185.03403992 -20.39825439 184.28890991 C-21.11716532 182.73211089 -21.83747574 181.17595751 -22.55905151 179.62039185 C-24.48840145 175.46078706 -26.40736237 171.29638762 -28.328125 167.1328125 C-28.71987411 166.28443314 -29.11162323 165.43605377 -29.51524353 164.56196594 C-33.9830393 154.88196287 -38.39761762 145.17788394 -42.79199219 135.46435547 C-43.39247504 134.13764865 -43.99305922 132.81098769 -44.59375 131.484375 C-44.88260071 130.84641998 -45.17145142 130.20846497 -45.46905518 129.55117798 C-47.33418858 125.44132504 -49.23494421 121.34961891 -51.15625 117.265625 C-51.63070557 116.24911865 -52.10516113 115.2326123 -52.59399414 114.18530273 C-53.45612319 112.34182236 -54.32696604 110.50237773 -55.20874023 108.66821289 C-57.80656383 103.0873499 -59.01921326 99.05763978 -57 93 C-55.02688387 92.25753304 -53.01899566 91.60671327 -51 91 C-48.51046211 89.91106552 -46.04606332 88.79959642 -43.5859375 87.6484375 C-42.51280807 87.15155678 -42.51280807 87.15155678 -41.41799927 86.64463806 C-39.8745337 85.92997713 -38.33165442 85.21404887 -36.78930664 84.49697876 C-21.28462769 77.29163037 -5.70782565 70.2612347 9.93212891 63.35498047 C18.32528184 59.6469042 26.68330827 55.87759473 35 52 C35 51.34 35 50.68 35 50 C33.44759659 48.60674046 31.82970015 47.28619872 30.1875 46 C26.16052706 42.78254658 22.28942988 39.49961778 18.5 36 C13.94846036 31.80762059 9.24574511 27.86773763 4.41015625 24.0078125 C2 22 2 22 -0.12890625 19.7421875 C-1.93983367 17.65927663 -1.93983367 17.65927663 -5 18 Z M133.0703125 22.71875 C131.80603282 23.31910148 130.54170764 23.91935714 129.27734375 24.51953125 C128.60300293 24.84131348 127.92866211 25.1630957 127.23388672 25.49462891 C114.57531714 31.52935795 101.83308551 37.34684796 89 43 C77.59748172 48.02671003 66.26351301 53.1690513 55 58.5 C43.19213648 64.08744535 31.3023009 69.45776374 19.34866333 74.72561646 C4.48050677 81.28273637 -10.26399084 88.09585317 -24.98803711 94.96972656 C-26.25923904 95.56235039 -26.25923904 95.56235039 -27.55612183 96.16694641 C-29.14753305 96.90918105 -30.73825087 97.65290487 -32.32815552 98.39836121 C-35.1945889 99.73567157 -37.99632974 100.99877658 -41 102 C-40.34478194 106.8372082 -38.38079222 110.83127739 -36.30859375 115.19140625 C-35.9315329 115.99707031 -35.55447205 116.80273438 -35.16598511 117.6328125 C-34.35218062 119.37108479 -33.53607865 121.10828295 -32.71792603 122.84451294 C-30.54192394 127.463558 -28.38337172 132.09071807 -26.2265625 136.71875 C-25.56763756 138.13203331 -25.56763756 138.13203331 -24.895401 139.5738678 C-19.92144248 150.27226065 -15.15305393 161.06047708 -10.42944336 171.87133789 C-6.24806667 181.40457577 -1.73605941 190.73002534 3 200 C4.59485229 200.01401855 4.59485229 200.01401855 6.22192383 200.02832031 C10.21630754 200.06858898 14.20995048 200.13444418 18.20385742 200.20751953 C19.9231607 200.23551754 21.64258763 200.25683592 23.36206055 200.27099609 C35.20485614 200.37430632 44.29374787 201.64070628 55 207 C55.00238835 206.30185779 55.00477671 205.60371557 55.00723743 204.88441753 C55.06633386 187.90912259 55.14184933 170.93398063 55.23571491 153.95884228 C55.28071003 145.74983693 55.32011602 137.54087533 55.34643555 129.33178711 C55.36938565 122.17802474 55.40274994 115.02440037 55.44870156 107.87074739 C55.47267435 104.08175586 55.49137643 100.29290136 55.49761391 96.50383568 C55.50364659 92.93903676 55.52357972 89.37458861 55.55427551 85.80991936 C55.56729264 83.87465362 55.56548084 81.93930606 55.5632782 80.0039978 C55.58208542 78.28132439 55.58208542 78.28132439 55.60127258 76.52384949 C55.60588155 75.5237041 55.61049051 74.52355871 55.61523914 73.49310589 C56 71 56 71 57.25798035 69.17967987 C59.42161944 67.71448315 60.66777706 67.61712681 63.27104187 67.60127258 C64.14182373 67.58873444 65.01260559 67.57619629 65.90977478 67.5632782 C67.33828514 67.56543083 67.33828514 67.56543083 68.7956543 67.56762695 C69.80071014 67.5574353 70.80576599 67.54724365 71.84127808 67.53674316 C75.1689809 67.5065079 78.49639637 67.49733102 81.82421875 67.48828125 C84.12922633 67.4714424 86.43422467 67.45329325 88.73921204 67.43388367 C94.81040565 67.38629149 100.88156186 67.35654168 106.95288086 67.33044434 C113.14639678 67.30068534 119.3397837 67.25413904 125.53320312 67.20898438 C137.68873473 67.12284634 149.84429282 67.05554775 162 67 C161.74571259 66.43529873 161.49142519 65.87059746 161.22943211 65.28878403 C160.05913732 62.68965997 158.88906441 60.09043608 157.71899414 57.49121094 C157.31909523 56.60315765 156.91919632 55.71510437 156.50717926 54.80014038 C153.12820105 47.29331128 149.775714 39.7750531 146.4375 32.25 C145.90576172 31.05246094 145.37402344 29.85492188 144.82617188 28.62109375 C143.55033733 25.74759251 142.27494278 22.87389699 141 20 C137.96282905 20 135.80238091 21.4120912 133.0703125 22.71875 Z M70 82 C69.401875 104.501875 68.80375 127.00375 68.1875 150.1875 C67.92348389 157.23246826 67.65946777 164.27743652 67.38745117 171.53588867 C67.26417605 177.20903724 67.15869864 182.87011223 67.16796875 188.54296875 C67.16851627 189.27719803 67.16906379 190.0114273 67.1696279 190.76790595 C67.2419526 207.98157838 67.54986079 223.77704412 80.06428528 236.97883606 C85.29655708 241.93836035 90.89889239 246.21640345 97.1334877 249.83420563 C99 251 99 251 100.98763657 252.57668304 C107.51418077 257.60353492 113.04552884 257.86866859 121.11962891 257.80810547 C122.40692398 257.82183197 123.69421906 257.83555847 125.02052307 257.84970093 C128.52683987 257.88536868 132.03215057 257.88326709 135.53859377 257.87181616 C138.47363054 257.86560707 141.4084775 257.87784426 144.34348714 257.88989365 C151.26854228 257.91791301 158.19310351 257.91491863 165.11816406 257.89208984 C172.24935052 257.86910035 179.37903501 257.89733567 186.51002371 257.95088279 C192.64879996 257.99524363 198.78710543 258.00846252 204.92603052 257.99672997 C208.58569331 257.99000284 212.24439215 257.99473682 215.90391922 258.02923203 C219.98329698 258.06601392 224.05976121 258.03775524 228.13916016 258.00341797 C229.34350204 258.02275391 230.54784393 258.04208984 231.78868103 258.06201172 C237.95529913 258.02614285 237.95529913 258.02614285 243.25275803 255.23364639 C245.00192269 253.23425717 246.49060325 251.18170115 248 249 C250.703125 246.6796875 250.703125 246.6796875 253.25 244.875 C254.08015625 244.27429688 254.9103125 243.67359375 255.765625 243.0546875 C260.36735404 240.13136688 265.2139219 237.61058806 270 235 C270 202.99 270 170.98 270 138 C250.695 137.505 250.695 137.505 231 137 C221.43365066 133.412619 219.45551621 131.91103242 215 123 C214.67 109.47 214.34 95.94 214 82 C166.48 82 118.96 82 70 82 Z M229 93 C228.88413245 97.43728151 228.81285942 101.87417591 228.75 106.3125 C228.71648437 107.57513672 228.68296875 108.83777344 228.6484375 110.13867188 C228.63554687 111.34716797 228.62265625 112.55566406 228.609375 113.80078125 C228.58842773 114.91622314 228.56748047 116.03166504 228.54589844 117.1809082 C228.75162494 120.05235669 228.75162494 120.05235669 230.64453125 121.86914062 C233.62749149 123.30125835 235.77299244 123.34157364 239.078125 123.29296875 C240.23828125 123.28330078 241.3984375 123.27363281 242.59375 123.26367188 C243.8003125 123.23853516 245.006875 123.21339844 246.25 123.1875 C247.47203125 123.17396484 248.6940625 123.16042969 249.953125 123.14648438 C252.96919498 123.1111398 255.98437487 123.0617956 259 123 C253.95241573 116.85397771 248.40441039 111.25128263 242.77563477 105.64526367 C241.17019485 104.04525338 239.57025692 102.4398769 237.97070312 100.83398438 C236.95344609 99.81738694 235.93587953 98.8010991 234.91796875 97.78515625 C233.99781982 96.86613525 233.0776709 95.94711426 232.12963867 95.00024414 C230.36546624 92.88589729 230.36546624 92.88589729 229 93 Z M-34.8125 221.875 C-38.70288301 227.43269002 -39.29433686 232.53048256 -39.26069641 239.17781067 C-39.26452196 239.98513049 -39.26834751 240.79245032 -39.27228898 241.62423438 C-39.28258172 244.32092687 -39.27863391 247.01740495 -39.2746582 249.71411133 C-39.27900679 251.65110979 -39.28419043 253.58810652 -39.29014587 255.52510071 C-39.30353262 260.78139981 -39.3041148 266.037627 -39.30158257 271.29393983 C-39.30051246 275.68497346 -39.30539738 280.07599256 -39.310188 284.46702307 C-39.32128247 294.82901928 -39.32172118 305.19097924 -39.31567383 315.55297852 C-39.30963579 326.23434816 -39.32194091 336.91558602 -39.3432439 347.59693319 C-39.36087256 356.77419747 -39.36685918 365.95141985 -39.36360615 375.12870044 C-39.36179488 380.60684618 -39.36441383 386.08489795 -39.37832069 391.56302834 C-39.39091463 396.7168567 -39.38894002 401.87048006 -39.37590981 407.02430534 C-39.37354774 408.91206049 -39.3762654 410.79983014 -39.38453293 412.68756866 C-39.39503379 415.27236109 -39.38687318 417.85646992 -39.3742218 420.4412384 C-39.38159609 421.18133787 -39.38897037 421.92143735 -39.39656812 422.68396407 C-39.3156353 430.58944205 -37.19448098 437.64009651 -31.74609375 443.49609375 C-26.27520716 448.2081549 -19.98075034 450.12010342 -12.86614799 450.13422108 C-11.82281551 450.13867892 -10.77948303 450.14313676 -9.70453441 450.14772969 C-8.55961343 450.14754533 -7.41469246 450.14736097 -6.2350769 450.14717102 C-4.40906061 450.15268605 -4.40906061 450.15268605 -2.5461551 450.1583125 C0.83458553 450.1674323 4.21527764 450.17204748 7.59602594 450.17470181 C11.24172372 450.17860819 14.88740749 450.1881863 18.53309631 450.19691467 C27.33837245 450.21666974 36.14364972 450.22674412 44.94894248 450.23564246 C49.09681035 450.24002697 53.24467694 450.24539336 57.39254379 450.25063133 C71.18325345 450.26764272 84.97396232 450.28213651 98.76468086 450.28938007 C102.34279506 450.29128993 105.92090926 450.29321027 109.49902344 450.29516602 C110.38833214 450.29564976 111.27764085 450.2961335 112.19389831 450.2966319 C126.59758235 450.30493081 141.0011833 450.33026579 155.40483107 450.36274669 C170.19686998 450.39583116 184.98886669 450.41383009 199.7809428 450.41702431 C208.08447413 450.41918814 216.3878843 450.42791803 224.69137955 450.45348549 C231.76356223 450.47521146 238.83559432 450.48323361 245.90780659 450.47351871 C249.51416554 450.46897945 253.12021389 450.47083799 256.72653008 450.49028015 C260.64220654 450.51120717 264.55745718 450.50090892 268.47317505 450.48774719 C269.6047117 450.49871644 270.73624834 450.50968568 271.90207398 450.52098733 C281.77699149 450.440971 289.49767492 448.20751906 296.52734375 441.07421875 C300.19010399 435.91526467 301.37611812 431.32216192 301.34057617 425.05493164 C301.34123329 424.07316452 301.34123329 424.07316452 301.34190369 423.07156372 C301.33983374 420.93411147 301.31659013 418.79746939 301.29296875 416.66015625 C301.28736636 415.16800871 301.2830993 413.67585561 301.28010559 412.18370056 C301.26870733 408.27587372 301.23928423 404.36838683 301.20599365 400.46069336 C301.17518381 396.4653788 301.16157704 392.47000876 301.14648438 388.47460938 C301.11440898 380.6495854 301.06327442 372.82484052 301 365 C299.70167236 364.94086426 298.40334473 364.88172852 297.06567383 364.82080078 C295.34194933 364.73751773 293.61823569 364.65400975 291.89453125 364.5703125 C291.04121216 364.53204346 290.18789307 364.49377441 289.30871582 364.4543457 C271.71870878 363.5822539 256.37951235 356.57239427 244 344 C231.9246318 329.78600395 226.29707321 313.12568812 226.69921875 294.5 C227.21230722 288.52951598 228.56879929 282.80637385 230 277 C230.33862024 275.33439944 230.67284175 273.6678898 231 272 C230.36500139 271.99853344 229.73000278 271.99706688 229.0757618 271.99555588 C213.59175672 271.9584294 198.10801243 271.89933777 182.62419319 271.81609726 C175.13617745 271.77636612 167.64826589 271.74394369 160.16015625 271.72900391 C153.62998585 271.7159565 147.10004527 271.68891366 140.57000434 271.64538693 C137.11553233 271.62284096 133.66134304 271.60708515 130.20679092 271.60811615 C126.34091332 271.60900674 122.47560907 271.57863724 118.60986328 271.54589844 C117.47697372 271.5509288 116.34408417 271.55595917 115.17686462 271.56114197 C106.02361517 271.44162481 97.90398136 269.57941031 91.1875 263 C90.34703125 262.195625 89.5065625 261.39125 88.640625 260.5625 C87.76921875 259.716875 86.8978125 258.87125 86 258 C84.14632359 256.33278808 82.29210982 254.66617353 80.4375 253 C75.77663445 248.74812375 71.30017647 244.32294881 66.85546875 239.84765625 C66.30626266 239.29516205 65.75705658 238.74266785 65.19120789 238.1734314 C62.40108634 235.36380806 59.61853379 232.54715135 56.84545898 229.72070312 C46.31907764 218.53389646 46.31907764 218.53389646 31.98730469 214.82299805 C30.74881775 214.81016281 29.51033081 214.79732758 28.23431396 214.78410339 C26.88017173 214.77593453 25.52602494 214.76849108 24.171875 214.76171875 C23.48831184 214.75764322 22.80474869 214.7535677 22.1004715 214.74936867 C18.48088383 214.72852444 14.86133387 214.71421683 11.24169922 214.70483398 C7.51487013 214.69378537 3.78864072 214.65939965 0.06202316 214.61966228 C-2.81373149 214.5934349 -5.68934471 214.58513669 -8.56520844 214.58155251 C-9.93826081 214.57670065 -11.31130746 214.56512666 -12.68424225 214.54651451 C-22.02525841 214.4277752 -28.26931513 214.71577581 -34.8125 221.875 Z M255 263 C254.4225 263.55429687 253.845 264.10859375 253.25 264.6796875 C244.68608501 273.64503601 241.11998731 286.26535537 240.6875 298.375 C241.04137675 313.17537454 247.19623188 326.01591491 257.359375 336.58984375 C269.44135504 347.61733145 283.86367532 350.82317865 299.72607422 350.17919922 C311.02779507 349.28855469 323.20330452 343.26490434 331 335 C342.86362816 320.89572636 346.32550161 306.95351203 345 289 C342.83416618 276.4616488 335.99618705 264.91297521 326 257 C302.21413686 240.91041737 275.5051509 242.56604755 255 263 Z " fill="#000000" transform="translate(152,24)"/>
<path d="M0 0 C1.10738698 -0.00694553 2.21477397 -0.01389106 3.35571814 -0.02104706 C7.07381557 -0.03937259 10.79127895 -0.02903681 14.50939941 -0.01878357 C17.17196135 -0.02583919 19.83447792 -0.03444551 22.49702454 -0.04489136 C28.98250362 -0.06653761 35.46780727 -0.066403 41.95331061 -0.05826581 C47.22395181 -0.05196724 52.49454184 -0.05310151 57.7651825 -0.05953789 C58.89018524 -0.06089037 58.89018524 -0.06089037 60.03791532 -0.06227018 C61.56150601 -0.06412136 63.08509668 -0.06598392 64.60868734 -0.06785773 C78.89708712 -0.08443818 93.18538816 -0.07571473 107.473782 -0.05887216 C120.5487225 -0.04417284 133.62343326 -0.05880633 146.69834417 -0.08764232 C160.12196902 -0.11702708 173.54548779 -0.12801144 186.96914339 -0.11846012 C188.48714477 -0.11743756 190.00514617 -0.11644295 191.52314758 -0.11547661 C192.64349066 -0.11476202 192.64349066 -0.11476202 193.78646693 -0.114033 C199.0511008 -0.11186776 204.31563435 -0.12167868 209.58024597 -0.13624763 C215.99567804 -0.15375358 222.4108171 -0.15367883 228.82623756 -0.13089598 C232.0999318 -0.11973784 235.37300175 -0.11932079 238.64669228 -0.13519669 C242.19440256 -0.15104352 245.74068806 -0.13625308 249.28833008 -0.11352539 C250.32480226 -0.12536112 251.36127444 -0.13719685 252.42915487 -0.14939123 C257.14304742 -0.0878097 259.42389415 -0.00941225 263.32265472 2.82736301 C265.14416504 5.5146637 265.14416504 5.5146637 265.14416504 9.1396637 C264.15799782 12.46797807 263.80496386 13.49120745 261.14416504 15.5146637 C259.02568823 15.89186186 259.02568823 15.89186186 256.52265263 15.89498043 C255.56817928 15.90342037 254.61370594 15.91186031 253.63030916 15.92055601 C252.05416634 15.91154094 252.05416634 15.91154094 250.44618225 15.90234375 C249.33163145 15.90772929 248.21708064 15.91311483 247.06875557 15.91866356 C243.31456594 15.93303071 239.56072458 15.92581773 235.80651855 15.91871643 C233.12293369 15.92441542 230.43937428 15.9312766 227.75579834 15.93951416 C221.2115829 15.95673389 214.66746334 15.95753561 208.12323112 15.95230126 C202.805344 15.94826415 197.48748529 15.94969763 192.16959953 15.95504951 C191.03543115 15.95617215 191.03543115 15.95617215 189.87835027 15.95731746 C188.34243679 15.9588489 186.80652331 15.96038724 185.27060985 15.96193243 C170.85827343 15.97566899 156.44599125 15.97021171 142.03365605 15.95874722 C128.84154785 15.94881394 115.64957988 15.96175504 102.45749331 15.98568141 C88.91981584 16.01005004 75.38220375 16.01968578 61.84450477 16.01302868 C54.24092051 16.00953143 46.63744414 16.01180175 39.03387642 16.02927971 C32.56094775 16.04397382 26.08820291 16.04467395 19.61527795 16.0272088 C16.3114176 16.01867304 13.00795513 16.01876395 9.70409966 16.03186035 C6.1254626 16.04496637 2.54772878 16.03361413 -1.03086853 16.01586914 C-2.07939969 16.02547415 -3.12793085 16.03507915 -4.20823568 16.04497522 C-11.18732124 15.9734089 -11.18732124 15.9734089 -14.49723911 13.70208836 C-16.52676221 10.43442868 -16.45987944 8.2731627 -15.85583496 4.5146637 C-11.44738911 -0.67713284 -6.30147878 -0.0501017 0 0 Z " fill="#000000" transform="translate(158.8558349609375,429.48533630371094)"/>
<path d="M0 0 C1.27866943 -0.00990463 2.55733887 -0.01980927 3.87475586 -0.03001404 C5.28955174 -0.02577603 6.70434669 -0.02121817 8.11914062 -0.01637268 C9.61076367 -0.02207558 11.10238235 -0.02903954 12.59399414 -0.03717041 C16.64354633 -0.05512465 20.69288211 -0.05392938 24.74246216 -0.04822803 C28.12234817 -0.04513983 31.50219238 -0.05122441 34.88207245 -0.05726677 C42.85435964 -0.07131744 50.82653968 -0.06974585 58.79882812 -0.05836487 C67.02640617 -0.04687908 75.25365843 -0.06096569 83.48119354 -0.08776134 C90.54372201 -0.10990246 97.60614809 -0.11655944 104.6687088 -0.11068493 C108.88753562 -0.1073108 113.10615351 -0.10976064 117.32495117 -0.12693596 C121.29117309 -0.14237819 125.25691139 -0.13848033 129.22311401 -0.11963081 C130.67918809 -0.11593751 132.13529779 -0.11907501 133.59133911 -0.1295166 C135.57778339 -0.14267504 137.56435213 -0.12880285 139.55078125 -0.11352539 C140.66279907 -0.11331611 141.77481689 -0.11310682 142.92053223 -0.1128912 C146.4580748 0.50738199 147.63962252 1.54283903 149.77539062 4.38768005 C150.32911872 8.26377674 150.5243566 10.38899879 148.13555145 13.57426357 C145.08255873 15.9200136 143.34081101 15.8927449 139.51281738 15.90234375 C138.2257338 15.91506821 136.93865021 15.92779266 135.61256409 15.94090271 C134.18832214 15.93472043 132.76408198 15.92811441 131.33984375 15.92112732 C129.83836519 15.92818538 128.33689375 15.93692992 126.83543396 15.94723511 C122.75896954 15.9697506 118.68289296 15.96678467 114.60639 15.95791364 C111.20412508 15.95280662 107.80193324 15.96009387 104.39967585 15.96738571 C96.37462137 15.98439119 88.34975703 15.98081195 80.32470703 15.96409607 C72.04252555 15.94716783 63.76087085 15.96301719 55.47874689 15.99531895 C48.36949335 16.02199698 41.26040398 16.02929591 34.1511054 16.02080387 C29.90429334 16.01587013 25.65779838 16.01811431 21.411026 16.03859138 C17.41844014 16.05692112 13.4266135 16.05102395 9.43406868 16.02639198 C7.96832218 16.02137563 6.50251809 16.02489534 5.03681755 16.03754044 C3.03724972 16.05342763 1.03749818 16.03552756 -0.96203613 16.01586914 C-2.0814283 16.01528283 -3.20082047 16.01469652 -4.35413361 16.01409245 C-7.22460938 15.38768005 -7.22460938 15.38768005 -9.6160202 13.07498074 C-11.22460938 10.38768005 -11.22460938 10.38768005 -11.22460938 6.76268005 C-9.41166388 0.64398901 -6.00402623 0.01311953 0 0 Z " fill="#000000" transform="translate(252.224609375,206.61231994628906)"/>
<path d="M0 0 C1.27866943 -0.00990463 2.55733887 -0.01980927 3.87475586 -0.03001404 C5.28955174 -0.02577603 6.70434669 -0.02121817 8.11914062 -0.01637268 C9.61076367 -0.02207558 11.10238235 -0.02903954 12.59399414 -0.03717041 C16.64354633 -0.05512465 20.69288211 -0.05392938 24.74246216 -0.04822803 C28.12234817 -0.04513983 31.50219238 -0.05122441 34.88207245 -0.05726677 C42.85435964 -0.07131744 50.82653968 -0.06974585 58.79882812 -0.05836487 C67.02640617 -0.04687908 75.25365843 -0.06096569 83.48119354 -0.08776134 C90.54372201 -0.10990246 97.60614809 -0.11655944 104.6687088 -0.11068493 C108.88753562 -0.1073108 113.10615351 -0.10976064 117.32495117 -0.12693596 C121.29117309 -0.14237819 125.25691139 -0.13848033 129.22311401 -0.11963081 C130.67918809 -0.11593751 132.13529779 -0.11907501 133.59133911 -0.1295166 C135.57778339 -0.14267504 137.56435213 -0.12880285 139.55078125 -0.11352539 C140.66279907 -0.11331611 141.77481689 -0.11310682 142.92053223 -0.1128912 C146.4580748 0.50738199 147.63962252 1.54283903 149.77539062 4.38768005 C150.27539062 7.88768005 150.27539062 7.88768005 149.77539062 11.38768005 C147.64078774 14.22914796 146.45594502 15.26690162 142.92332554 15.89383793 C141.81260653 15.89664485 140.70188753 15.89945177 139.55751038 15.90234375 C138.2802861 15.91506821 137.00306183 15.92779266 135.68713379 15.94090271 C134.27392393 15.93472041 132.86071587 15.92811438 131.44750977 15.92112732 C129.95750575 15.92818551 128.4675089 15.9369301 126.9775238 15.94723511 C122.9319821 15.96975115 118.8868312 15.96678426 114.84125066 15.95791364 C111.4639331 15.95280592 108.08668912 15.96009458 104.70937914 15.96738571 C96.74181568 15.98439192 88.77444371 15.98081188 80.80688477 15.96409607 C72.5872057 15.94717429 64.36805767 15.96300814 56.14843661 15.99531895 C49.0909714 16.02201035 42.03367155 16.02929209 34.97616094 16.02080387 C30.76117414 16.01587323 26.54650687 16.01809732 22.33156013 16.03859138 C18.36769668 16.05694164 14.40459726 16.05099874 10.44077492 16.02639198 C8.98673637 16.02138185 7.53263967 16.02487929 6.07864761 16.03754044 C4.09256729 16.05346563 2.10630165 16.03550234 0.12025452 16.01586914 C-0.99084151 16.01528283 -2.10193754 16.01469652 -3.24670315 16.01409245 C-7.220333 15.17822631 -8.74948129 13.54396936 -11.22460938 10.38768005 C-11.28710938 6.76268005 -11.28710938 6.76268005 -10.22460938 3.38768005 C-7.01540119 0.16060348 -4.446617 0.0097164 0 0 Z " fill="#000000" transform="translate(252.224609375,172.61231994628906)"/>
<path d="M0 0 C1.27025528 -0.00701431 2.54051056 -0.01402863 3.84925842 -0.02125549 C5.25460974 -0.01382798 6.65995947 -0.00609684 8.06530762 0.00190735 C9.54707596 -0.00052094 11.02884267 -0.00424062 12.51060486 -0.00915527 C16.53332301 -0.01856287 20.55579779 -0.00914002 24.57849693 0.00417686 C28.78735771 0.01549094 32.99620651 0.01138388 37.20507812 0.00942993 C44.27327451 0.00854694 51.34137499 0.01962835 58.4095459 0.03804016 C66.58250901 0.05920787 74.75533162 0.06271769 82.92831659 0.0564782 C90.78893547 0.05078431 98.64950484 0.05643051 106.51011658 0.06765175 C109.85612401 0.0722974 113.20210117 0.07317173 116.54811096 0.0710659 C120.48795898 0.06918281 124.42766392 0.07728852 128.36747932 0.0931263 C129.81387299 0.09737024 131.26028117 0.09821896 132.70667839 0.0954361 C134.68002851 0.09221528 136.65338693 0.10251925 138.62670898 0.11352539 C140.2836742 0.1166047 140.2836742 0.1166047 141.97411346 0.11974621 C144.80700897 0.37365306 146.45589662 0.81456388 148.81335449 2.3742218 C150.35922325 5.46595932 150.10694971 7.96851733 149.81335449 11.3742218 C147.68601615 14.24146843 146.49000544 15.25490632 142.94287872 15.88037968 C141.82348656 15.8831866 140.70409439 15.88599352 139.55078125 15.8888855 C138.26369766 15.90160995 136.97661407 15.91433441 135.65052795 15.92744446 C134.22628601 15.92126218 132.80204585 15.91465616 131.37780762 15.90766907 C129.87632906 15.91472713 128.37485761 15.92347167 126.87339783 15.93377686 C122.7969334 15.95629235 118.72085682 15.95332642 114.64435387 15.94445539 C111.24208895 15.93934837 107.8398971 15.94663562 104.43763971 15.95392746 C96.41258524 15.97093294 88.38772089 15.9673537 80.3626709 15.95063782 C72.08048942 15.93370958 63.79883471 15.94955893 55.51671076 15.9818607 C48.40745722 16.00853873 41.29836785 16.01583765 34.18906927 16.00734562 C29.9422572 16.00241187 25.69576225 16.00465605 21.44898987 16.02513313 C17.45640401 16.04346287 13.46457737 16.0375657 9.47203255 16.01293373 C8.00628604 16.00791738 6.54048196 16.01143709 5.07478142 16.02408218 C3.07521359 16.03996938 1.07546204 16.02206931 -0.92407227 16.00241089 C-2.04346443 16.00182458 -3.1628566 16.00123827 -4.31616974 16.00063419 C-7.18664551 15.3742218 -7.18664551 15.3742218 -9.57805634 13.06152248 C-11.18664551 10.3742218 -11.18664551 10.3742218 -11.18664551 6.7492218 C-9.37857606 0.64698742 -5.99150723 -0.00090982 0 0 Z " fill="#000000" transform="translate(252.1866455078125,240.6257781982422)"/>
<path d="M0 0 C1.42260384 -0.01270432 1.42260384 -0.01270432 2.87394714 -0.02566528 C6.00993244 -0.04907005 9.1454281 -0.05005661 12.28149414 -0.04882812 C14.46098528 -0.05592747 16.64047455 -0.06362614 18.81996155 -0.07189941 C23.38881628 -0.08535215 27.95749818 -0.08690933 32.52636719 -0.08105469 C38.38220853 -0.07515726 44.23722117 -0.1057489 50.09290218 -0.14617157 C54.59420746 -0.17201641 59.09531234 -0.17492889 63.59668159 -0.17127991 C65.75566249 -0.17297409 67.91465236 -0.18264519 70.07356071 -0.20042419 C73.09257407 -0.22255033 76.10989885 -0.21294384 79.12890625 -0.1953125 C80.02101807 -0.20857574 80.91312988 -0.22183899 81.83227539 -0.23550415 C86.23672198 -0.17571273 88.08878421 0.01560991 91.7190094 2.73181152 C93.62915039 5.41992188 93.62915039 5.41992188 93.69165039 9.04492188 C92.48068576 12.89151541 92.13067093 13.59178386 88.62915039 15.41992188 C85.50707598 15.87257451 82.40867448 15.85016935 79.25830078 15.83984375 C77.83569695 15.85254807 77.83569695 15.85254807 76.38435364 15.86550903 C73.24836834 15.8889138 70.11287268 15.88990036 66.97680664 15.88867188 C64.7973155 15.89577122 62.61782623 15.90346989 60.43833923 15.91174316 C55.86948451 15.9251959 51.3008026 15.92675308 46.73193359 15.92089844 C40.87609225 15.91500101 35.02107961 15.94559265 29.1653986 15.98601532 C24.66409332 16.01186016 20.16298844 16.01477264 15.66161919 16.01112366 C13.50263829 16.01281784 11.34364842 16.02248894 9.18474007 16.04026794 C6.16572671 16.06239408 3.14840193 16.05278759 0.12939453 16.03515625 C-1.20877319 16.05505112 -1.20877319 16.05505112 -2.57397461 16.0753479 C-6.9784212 16.01555648 -8.83048343 15.82423384 -12.46070862 13.10803223 C-14.37084961 10.41992188 -14.37084961 10.41992188 -14.43334961 6.79492188 C-12.09361226 -0.63718501 -6.78522449 -0.02223912 0 0 Z " fill="#000000" transform="translate(255.370849609375,138.580078125)"/>
<path d="M0 0 C2.0625 3.25 2.0625 3.25 3 7 C1.84706119 11.16952502 -0.20127458 13.57205836 -3.234375 16.59082031 C-4.10868164 17.46812805 -4.98298828 18.34543579 -5.88378906 19.24932861 C-6.8389602 20.19249626 -7.79436955 21.13542273 -8.75 22.078125 C-9.72942433 23.0544894 -10.70825695 24.03144768 -11.68652344 25.00897217 C-13.73310259 27.05095915 -15.78448037 29.08794935 -17.83984375 31.12109375 C-20.47637424 33.72926787 -23.10408085 36.34611052 -25.72869873 38.96626663 C-27.74760863 40.98102454 -29.76933404 42.9929355 -31.79211426 45.00380707 C-32.76223096 45.96822252 -33.73187814 46.93311051 -34.7010498 47.89847565 C-36.05329862 49.24386436 -37.40937069 50.58540705 -38.765625 51.92675781 C-39.53680664 52.69111145 -40.30798828 53.45546509 -41.10253906 54.24298096 C-43.36189604 56.33511005 -44.59632715 56.92310993 -47.625 57.5 C-52.87088519 56.72283182 -55.30497046 53.64298687 -59 50 C-60.19546289 48.88678277 -61.39218019 47.77491178 -62.58984375 46.6640625 C-63.87395762 45.44435047 -65.15649853 44.22298041 -66.4375 43 C-67.06527344 42.41911621 -67.69304687 41.83823242 -68.33984375 41.23974609 C-71.43242053 38.21922771 -72.8606858 36.52093754 -74.00390625 32.24609375 C-74 29 -74 29 -72.5 26.0625 C-70 24 -70 24 -66.75 23.25 C-61.41014221 24.31797156 -58.74842541 27.20613913 -55 31 C-54.39285156 31.59425781 -53.78570312 32.18851562 -53.16015625 32.80078125 C-51.75704275 34.18408609 -50.37593898 35.58966255 -49 37 C-45.92489338 35.63089658 -43.84193894 34.07953077 -41.48828125 31.68359375 C-40.48704224 30.67244507 -40.48704224 30.67244507 -39.46557617 29.64086914 C-38.75506104 28.91375732 -38.0445459 28.18664551 -37.3125 27.4375 C-36.20322144 26.31686157 -36.20322144 26.31686157 -35.0715332 25.17358398 C-32.70950077 22.78712619 -30.35400451 20.39437535 -28 18 C-24.90157197 14.84843437 -21.79664717 11.70348723 -18.6875 8.5625 C-17.97698486 7.83538818 -17.26646973 7.10827637 -16.53442383 6.35913086 C-15.86693115 5.68503174 -15.19943848 5.01093262 -14.51171875 4.31640625 C-13.92865967 3.72287354 -13.34560059 3.12934082 -12.74487305 2.51782227 C-8.5564803 -1.12555785 -5.38491177 -1.66442727 0 0 Z " fill="#000000" transform="translate(481,294)"/>
<path d="M0 0 C0.69495575 -0.00540298 1.3899115 -0.01080597 2.10592651 -0.01637268 C4.39267163 -0.02883339 6.67815105 -0.01238837 8.96484375 0.00561523 C10.55997788 0.00546018 12.1551124 0.00397018 13.75024414 0.00120544 C17.0891999 -0.00017735 20.42772547 0.01235897 23.76660156 0.03515625 C28.04056986 0.06354085 32.31382367 0.06080212 36.58784485 0.04806614 C39.88047356 0.04110193 43.17293793 0.04890665 46.46554565 0.06132317 C48.0411618 0.06583047 49.61679562 0.06618077 51.19241333 0.06225777 C53.39687086 0.05933816 55.60035339 0.07588667 57.8046875 0.09765625 C59.05757568 0.10305923 60.31046387 0.10846222 61.60131836 0.11402893 C65.1623243 0.5322417 67.0598538 1.35565609 69.90234375 3.50170898 C71.32276196 6.3425454 71.21686647 8.35648176 70.90234375 11.50170898 C69.33752441 13.66467285 69.33752441 13.66467285 66.90234375 15.50170898 C63.60095215 16.00964355 63.60095215 16.00964355 59.62695312 16.01928711 C58.9012764 16.02629639 58.17559967 16.03330566 57.42793274 16.04052734 C55.03359502 16.05810615 52.64044309 16.04648605 50.24609375 16.03295898 C48.57987237 16.03565396 46.91365252 16.03953642 45.24743652 16.04455566 C41.75709037 16.05045052 38.26715396 16.04188848 34.77685547 16.02319336 C30.30423112 16.00040344 25.83256685 16.01352664 21.35997772 16.03748322 C17.91982802 16.05194176 14.47990572 16.04733503 11.03974915 16.03697205 C9.39073065 16.0343049 7.74169148 16.03757414 6.09269714 16.04689026 C3.78715383 16.05705728 1.48316218 16.04155513 -0.82226562 16.01928711 C-2.1336853 16.01610474 -3.44510498 16.01292236 -4.79626465 16.00964355 C-8.09765625 15.50170898 -8.09765625 15.50170898 -10.51721191 13.68811035 C-12.84587428 10.46661721 -12.71942887 8.37051637 -12.09765625 4.50170898 C-8.2614505 0.48971818 -5.44519134 0.00072219 0 0 Z " fill="#000000" transform="translate(155.09765625,381.498291015625)"/>
</svg>
