<?xml version="1.0" encoding="UTF-8"?>
<svg version="1.1" xmlns="http://www.w3.org/2000/svg" width="512" height="512">
<path d="M0 0 C1.10520574 0.9387427 2.20917517 1.87894106 3.31263733 2.81973267 C3.92754563 3.34314554 4.54245394 3.86655842 5.17599583 4.40583229 C7.87935153 6.76854748 10.40923826 9.28492938 12.93359375 11.8359375 C13.4563942 12.36015289 13.97919464 12.88436829 14.51783752 13.42446899 C16.16012345 15.0722787 17.7988665 16.72355901 19.4375 18.375 C20.56161467 19.50413955 21.68596174 20.63304778 22.81054688 21.76171875 C25.54305235 24.50515188 28.27239009 27.25169985 31 30 C29.59976481 33.16105691 27.95182235 35.30068604 25.51666451 37.74339771 C24.79060292 38.47652489 24.06454134 39.20965206 23.31647789 39.96499521 C22.51571481 40.7633432 21.71495173 41.5616912 20.8899231 42.38423157 C20.04165762 43.23773372 19.19339214 44.09123588 18.31942165 44.97060174 C15.96375368 47.33868807 13.60366335 49.70220326 11.24156308 52.0638634 C8.69534553 54.61172874 6.15485035 57.16528933 3.61355591 59.71806335 C-1.94294745 65.29741423 -7.506904 70.86929287 -13.07231283 76.43975854 C-16.54536826 79.91606979 -20.01678804 83.39401115 -23.48785782 86.87230492 C-33.09410657 96.49811542 -42.70192963 106.12234646 -52.31651115 115.73983479 C-52.9316978 116.35520901 -53.54688445 116.97058323 -54.18071312 117.60460515 C-55.42788704 118.85214532 -56.67506223 120.09968421 -57.92223869 121.34722183 C-58.54135207 121.96651802 -59.16046545 122.58581421 -59.79833984 123.22387695 C-60.41820747 123.84392513 -61.0380751 124.46397331 -61.67672659 125.10281082 C-71.73245555 135.16208548 -81.77637944 145.23305841 -91.8151847 155.3092197 C-102.11611544 165.64817563 -112.426322 175.97780266 -122.74613202 186.29791516 C-128.54264093 192.09500977 -134.33509638 197.89603031 -140.11745834 203.70723915 C-145.03835081 208.65256761 -149.96766756 213.58929769 -154.90833746 218.51487074 C-157.43062658 221.02996023 -159.9486342 223.54898687 -162.45600891 226.07895279 C-165.16926068 228.81641668 -167.90145485 231.53443931 -170.63595581 234.25068665 C-171.43225745 235.06018825 -172.22855909 235.86968986 -173.04899108 236.70372182 C-174.1459067 237.78385448 -174.1459067 237.78385448 -175.26498222 238.88580799 C-176.20885963 239.83090708 -176.20885963 239.83090708 -177.17180526 240.79509908 C-179 242 -179 242 -181.07090509 241.83409905 C-184.16294501 240.49716765 -186.27975324 238.12059001 -188.60614014 235.75462341 C-189.1608374 235.20248942 -189.71553467 234.65035543 -190.28704095 234.0814901 C-192.14746111 232.22601885 -193.99694314 230.36001404 -195.84667969 228.49389648 C-197.17665773 227.16307242 -198.50729634 225.83290822 -199.83854675 224.50335693 C-203.45444759 220.88831841 -207.06101086 217.26409098 -210.66600323 213.63817859 C-214.43362213 209.85183231 -218.20971296 206.07395472 -221.98492432 202.29518127 C-229.13421691 195.13655665 -236.27582645 187.97031757 -243.4147265 180.80133063 C-251.54176436 172.64078486 -259.67730128 164.48873489 -267.81357336 156.33739746 C-284.55187543 139.5677201 -301.27944314 122.78736932 -318 106 C-317.0612573 104.89479426 -316.12105894 103.79082483 -315.18026733 102.68736267 C-314.65685446 102.07245437 -314.13344158 101.45754606 -313.59416771 100.82400417 C-311.23145252 98.12064847 -308.71507062 95.59076174 -306.1640625 93.06640625 C-305.63984711 92.5436058 -305.11563171 92.02080536 -304.57553101 91.48216248 C-302.9277213 89.83987655 -301.27644099 88.2011335 -299.625 86.5625 C-298.49586045 85.43838533 -297.36695222 84.31403826 -296.23828125 83.18945312 C-293.49484812 80.45694765 -290.74830015 77.72760991 -288 75 C-284.51970879 76.49368515 -282.27381652 78.47917418 -279.60870361 81.15078735 C-278.73654709 82.02019455 -277.86439056 82.88960175 -276.96580505 83.78535461 C-276.0073837 84.75085363 -275.04905867 85.71644827 -274.09082031 86.68212891 C-273.07589455 87.69761894 -272.06052792 88.71266852 -271.04475403 89.72731018 C-268.29058246 92.4809079 -265.54262121 95.24062883 -262.79572773 98.00148439 C-259.923203 100.88651097 -257.04501414 103.76587542 -254.16741943 106.64584351 C-248.72010053 112.09937878 -243.27789998 117.55799229 -237.83751655 123.01844537 C-231.64318262 129.2351334 -225.44316924 135.44614388 -219.24267054 141.65668225 C-206.48878056 154.43147778 -193.742046 167.21339139 -181 180 C-175.94543406 175.76575616 -171.2031622 171.34404708 -166.55250549 166.67276001 C-165.83598641 165.95709535 -165.11946732 165.24143069 -164.38123554 164.50407922 C-161.99600006 162.12048261 -159.61434147 159.73334477 -157.23266602 157.34619141 C-155.51758446 155.63082761 -153.80228235 153.91568432 -152.08677673 152.20074463 C-148.40162916 148.51582432 -144.71801164 144.82938193 -141.03579903 141.14152908 C-135.7120258 135.8096065 -130.38547223 130.48046855 -125.05825006 125.15199213 C-116.41390879 116.50546573 -107.77180005 107.85671153 -99.13110352 99.20654297 C-90.74067814 90.80692952 -82.34919638 82.40837375 -73.95629883 74.01123047 C-73.43840066 73.49306958 -72.9205025 72.97490869 -72.38691045 72.44104595 C-69.78859372 69.84142414 -67.1902563 67.24182301 -64.59190857 64.64223218 C-43.05806133 43.09802911 -21.52787821 21.55016768 0 0 Z " fill="#1C9FE8" transform="translate(460,142)"/>
<path d="M0 0 C2.84731326 1.29277137 4.88961912 2.64574826 7.08105469 4.86987305 C7.65555359 5.4477507 8.23005249 6.02562836 8.82196045 6.62101746 C9.73766815 7.5569146 9.73766815 7.5569146 10.671875 8.51171875 C11.31312317 9.15816849 11.95437134 9.80461823 12.61505127 10.47065735 C14.66484762 12.53824026 16.70785445 14.61236224 18.75 16.6875 C20.77866262 18.74396246 22.8088256 20.79888319 24.84210205 22.8507843 C26.10502666 24.12576559 27.3652734 25.40340754 28.62225342 26.68424988 C31.49482794 29.58877857 34.40031698 32.37635627 37.5144043 35.02099609 C44.34282979 40.92267815 50.59992151 47.45662897 56.97265625 53.83984375 C58.42404351 55.29055619 59.87557908 56.74112025 61.32725525 58.19154358 C64.35887609 61.22169583 67.38869567 64.25363453 70.41723633 67.28686523 C74.2825809 71.15790655 78.15239825 75.0244404 82.02358341 78.88963985 C85.01867737 81.88110552 88.01136729 84.87496711 91.00335503 87.86953926 C92.42865221 89.29549944 93.85468128 90.7207285 95.28148079 92.14518547 C108.38215412 105.22906268 108.38215412 105.22906268 113.60792542 111.38331604 C115.8530141 113.99064679 118.27486751 116.38630894 120.71484375 118.8125 C121.21544815 119.31168945 121.71605255 119.81087891 122.23182678 120.32519531 C123.79800764 121.8858737 125.36766471 123.44299847 126.9375 125 C128.01390654 126.07137887 129.09008014 127.14299182 130.16601562 128.21484375 C132.77466745 130.81259638 135.38644471 133.40717962 138 136 C136.33898108 140.24690868 133.18747192 143.15388191 130.0390625 146.33203125 C129.45208588 146.92803635 128.86510925 147.52404144 128.26034546 148.1381073 C127.02070156 149.3922274 125.77825392 150.64358151 124.53320312 151.89233398 C122.62638454 153.81110678 120.73901206 155.7477424 118.8515625 157.68554688 C117.6443813 158.90218592 116.43608526 160.11772004 115.2265625 161.33203125 C114.66288971 161.91523636 114.09921692 162.49844147 113.51846313 163.09931946 C111.90087891 164.69848633 111.90087891 164.69848633 109 167 C104.7446554 166.92483706 102.23131176 163.65501325 99.4250946 160.81950378 C98.87377532 160.27427561 98.32245604 159.72904743 97.75443012 159.16729718 C95.90548917 157.33503031 94.0674705 155.49218538 92.22924805 153.64916992 C90.90746219 152.33472164 89.58505407 151.02089884 88.2620697 149.70765686 C84.66844591 146.1362862 81.08456023 142.55529229 77.5029943 138.97183394 C74.5157002 135.98442036 71.52408124 133.00135618 68.53255969 130.01817685 C61.47874621 122.98360976 54.43315236 115.9408823 47.39233398 108.89331055 C40.11874385 101.61307269 32.83050724 94.34773429 25.53508729 87.08937758 C19.27897455 80.86390237 13.03250833 74.62886229 6.79364616 68.38609964 C3.06416482 64.65454529 -0.66903975 60.92691115 -4.41173744 57.20860863 C-7.9284611 53.7140522 -11.43304714 50.20777164 -14.92848778 46.69193077 C-16.21619359 45.40079755 -17.50821684 44.11395446 -18.80473328 42.83166885 C-20.56824584 41.08619036 -22.31579119 39.3261713 -24.06001282 37.56144714 C-24.84236997 36.79786676 -24.84236997 36.79786676 -25.64053231 36.01886052 C-27.04149342 34.58212566 -27.04149342 34.58212566 -29 32 C-28.83128536 28.76216613 -27.58010671 27.20907388 -25.31616211 24.97558594 C-24.47540382 24.13516754 -24.47540382 24.13516754 -23.61766052 23.277771 C-23.01035599 22.68595032 -22.40305145 22.09412964 -21.77734375 21.484375 C-21.15726944 20.86854553 -20.53719513 20.25271606 -19.89833069 19.6182251 C-17.91832095 17.65499365 -15.92813081 15.70245564 -13.9375 13.75 C-12.59241465 12.41996252 -11.24800512 11.08924121 -9.90429688 9.7578125 C-6.61065094 6.49722463 -3.30783661 3.24618812 0 0 Z " fill="#3EB7F8" transform="translate(50,217)"/>
<path d="M0 0 C8.20479897 8.17225383 15.89999248 16.67811558 23.125 25.72265625 C24.88045889 27.9870203 24.88045889 27.9870203 26.8125 29.55859375 C28 31 28 31 27.83003139 32.81088638 C26.7276908 35.71818461 25.10596143 37.26873892 22.90699768 39.46722412 C22.02502716 40.35620895 21.14305664 41.24519379 20.23435974 42.16111755 C19.24956627 43.13848342 18.2646216 44.11569695 17.27954102 45.09277344 C16.24753821 46.12720418 15.2161817 47.16228004 14.1854248 48.19795227 C11.38448397 51.00830359 8.57421137 53.80914879 5.76191449 56.60813046 C2.82322853 59.53551022 -0.10775077 62.47058797 -3.03981018 65.40460205 C-7.96348342 70.32915832 -12.8931058 75.24769663 -17.82641602 80.16259766 C-23.53645669 85.85145299 -29.23759857 91.5491064 -34.93393654 97.25168014 C-40.40795023 102.73138002 -45.88760335 108.20540489 -51.37007332 113.67664337 C-53.70632131 116.00823729 -56.04066256 118.34171624 -58.37353325 120.67668915 C-61.11773643 123.42277019 -63.86685696 126.16383074 -66.61992645 128.90102196 C-67.63190209 129.90874044 -68.64216772 130.91817937 -69.65062904 131.92941475 C-71.02247739 133.30446472 -72.40105415 134.67279235 -73.78001404 136.04071045 C-74.93675959 137.1943767 -74.93675959 137.1943767 -76.11687374 138.37134933 C-78 140 -78 140 -80 140 C-81.37212301 138.46804728 -82.6715446 136.87078919 -83.9375 135.25 C-87.35669835 130.96636665 -90.88288087 126.87795697 -94.625 122.875 C-99.04725884 118.1296116 -103.14143529 113.21498848 -107 108 C-102.00560623 101.97036604 -96.59211706 96.45699026 -91.04736328 90.93383789 C-90.051202 89.93795919 -89.05526186 88.94185924 -88.05952454 87.94555664 C-85.37418267 85.25992954 -82.68578337 82.57738251 -79.99679804 79.8954041 C-77.18029848 77.08518386 -74.36665747 74.27210448 -71.55270386 71.45933533 C-66.23188962 66.14162096 -60.90853291 60.82645942 -55.58424366 55.51222461 C-49.5193571 49.45854106 -43.45733223 43.40199531 -37.39553857 37.34521496 C-24.93352642 24.89363674 -12.46794942 12.445633 0 0 Z " fill="#1C9FE8" transform="translate(356,125)"/>
</svg>
