<?xml version="1.0" encoding="UTF-8"?>
<svg version="1.1" xmlns="http://www.w3.org/2000/svg" width="512" height="512">
<path d="M0 0 C0.91884979 -0.00817749 1.83769958 -0.01635498 2.78439331 -0.02478027 C5.83371321 -0.04965038 8.88298652 -0.06615388 11.93237305 -0.08056641 C13.49240083 -0.08855192 13.49240083 -0.08855192 15.08394432 -0.09669876 C20.58801919 -0.12343658 26.09207132 -0.14281001 31.59619141 -0.15722656 C37.28611786 -0.17388159 42.97546592 -0.21866504 48.66517353 -0.26959801 C53.03605325 -0.30322506 57.40679488 -0.314799 61.77779198 -0.32045364 C63.87539277 -0.327178 65.97298411 -0.34243065 68.07045937 -0.36634445 C71.0057883 -0.39790286 73.93954652 -0.39804673 76.875 -0.390625 C77.74220169 -0.40703033 78.60940338 -0.42343567 79.50288391 -0.44033813 C83.87293642 -0.39508611 85.60556532 -0.21366722 89.1746521 2.54469299 C91.55363399 5.7639888 91.7175868 7.40147382 91.61987305 11.36865234 C91.60375977 12.52558594 91.58764648 13.68251953 91.57104492 14.87451172 C91.52915039 16.07269531 91.48725586 17.27087891 91.4440918 18.50537109 C91.41025391 20.33165039 91.41025391 20.33165039 91.37573242 22.19482422 C91.31689709 25.19542592 91.2347332 28.19351906 91.1315918 31.19287109 C92.39874023 31.15806641 93.66588867 31.12326172 94.97143555 31.08740234 C96.67064091 31.05923872 98.36986078 31.03194135 100.0690918 31.00537109 C100.89989258 30.98023437 101.73069336 30.95509766 102.58666992 30.92919922 C110.05500152 30.84202025 116.17367649 32.2395308 122.4440918 36.38037109 C128.63372922 42.85789863 130.19579324 49.4366848 130.1315918 58.19287109 C131.11242737 58.18398865 132.09326294 58.1751062 133.1038208 58.16595459 C142.34424827 58.0848914 151.58460366 58.02491665 160.82530594 57.98562241 C165.57615216 57.96474166 170.32671148 57.9364152 175.07739258 57.89111328 C179.66152519 57.84767279 184.24538174 57.82373766 188.82970428 57.81336212 C190.57924496 57.8059675 192.32877042 57.79152754 194.07819366 57.76995087 C196.52764105 57.74094009 198.97594575 57.73691401 201.42553711 57.73876953 C202.51202797 57.71719788 202.51202797 57.71719788 203.62046814 57.69519043 C207.05681116 57.7233832 208.81259514 57.94188306 211.55072021 60.09625244 C214.33082571 63.78334576 214.25360637 66.06097089 214.24511719 70.66210938 C214.24526321 71.32564423 214.24540924 71.98917908 214.24555969 72.67282104 C214.24486211 74.86964163 214.23707694 77.06637779 214.22924805 79.26318359 C214.22738332 80.78490147 214.22595967 82.30661994 214.22496033 83.82833862 C214.22113946 87.83638156 214.21131284 91.84438835 214.20025635 95.85241699 C214.19003298 99.94115713 214.18546072 104.02990311 214.18041992 108.11865234 C214.1696902 116.14340853 214.15261893 124.16813532 214.1315918 132.19287109 C214.7293895 132.25409149 215.32718719 132.31531189 215.94309998 132.37838745 C230.85007846 133.95885407 244.72470812 138.58414597 258.1315918 145.19287109 C259.28530273 145.76134766 260.43901367 146.32982422 261.62768555 146.91552734 C268.98355536 150.71909254 275.53986177 155.20506351 282.1315918 160.19287109 C284.45657906 161.87155789 286.7933864 163.53257291 289.1315918 165.19287109 C304.35987701 153.35251268 304.35987701 153.35251268 312.79174805 136.89208984 C313.04713308 133.86795728 313.07793572 130.98982818 312.92211914 127.96020508 C312.67049124 122.99211006 312.66089984 120.05753174 315.9909668 116.18115234 C317.350384 114.83047241 318.73286096 113.50279608 320.1315918 112.19287109 C321.79677975 110.48820779 323.45939691 108.78103066 325.11987305 107.07177734 C326.89199883 105.29702814 328.66678029 103.52492706 330.4440918 101.75537109 C331.80244141 100.3912207 331.80244141 100.3912207 333.18823242 98.99951172 C334.05254883 98.13648437 334.91686523 97.27345703 335.80737305 96.38427734 C336.59023682 95.6025415 337.37310059 94.82080566 338.1796875 94.01538086 C341.34856588 91.05657196 343.77973495 90.97874668 348.0612793 90.66943359 C351.40032681 91.51364561 352.3892169 93.30694194 354.1315918 96.19287109 C354.55737305 99.60302734 354.55737305 99.60302734 354.4440918 103.25537109 C354.41959961 104.46322266 354.39510742 105.67107422 354.36987305 106.91552734 C354.18117145 109.51094761 353.89008358 111.72006456 353.1315918 114.19287109 C354.0597168 114.02787109 354.9878418 113.86287109 355.9440918 113.69287109 C362.17408036 112.84275046 368.47968015 111.99691094 374.3190918 114.63037109 C376.6233606 117.88813044 376.64396105 119.94785034 376.55340576 123.85913086 C375.80781783 127.98419239 373.28312159 130.17685977 370.2956543 132.94287109 C369.70110443 133.52705811 369.10655457 134.11124512 368.49398804 134.71313477 C366.60168619 136.56193293 364.68019561 138.37672311 362.7565918 140.19287109 C361.47074139 141.44212173 360.18686372 142.69340632 358.9050293 143.94677734 C349.66188643 152.92772378 349.66188643 152.92772378 347.1315918 154.19287109 C345.64560095 154.15402524 344.16073499 154.0666559 342.6784668 153.95458984 C332.84135307 153.67365256 325.2431012 154.37559873 317.71362305 161.22021484 C312.14294239 166.51333488 307.04403729 172.29097775 302.1315918 178.19287109 C302.50960938 178.69278564 302.88762695 179.1927002 303.27709961 179.70776367 C324.13432676 207.38772328 336.63357566 236.82865632 336.4440918 271.94287109 C336.44135757 272.99752563 336.44135757 272.99752563 336.43856812 274.07348633 C336.39213091 284.72348792 335.88049641 294.84859954 333.1315918 305.19287109 C332.95998535 305.84529785 332.78837891 306.49772461 332.61157227 307.16992188 C322.45327862 344.85274307 298.84561155 375.45147235 265.39331055 395.46240234 C250.73434991 403.88162575 231.28657012 412.19287109 214.1315918 412.19287109 C214.14158455 413.37891182 214.14158455 413.37891182 214.15177917 414.58891296 C214.21194488 422.04842203 214.2575938 429.50781307 214.28702831 436.96750164 C214.30266975 440.80241452 214.32387984 444.63712654 214.35791016 448.47192383 C214.39055847 452.17424806 214.40845626 455.87637934 214.41622353 459.57883644 C214.42175726 460.98981576 214.43256344 462.40078479 214.44878197 463.81168175 C214.47062629 465.79109736 214.4718178 467.77070802 214.47216797 469.75024414 C214.48216072 471.43901924 214.48216072 471.43901924 214.49235535 473.16191101 C214.08604498 476.57553329 213.16885639 478.44914181 211.1315918 481.19287109 C208.4932177 482.51205814 206.5273932 482.32197338 203.57114601 482.32709217 C202.38179282 482.33155001 201.19243963 482.33600786 199.96704543 482.34060079 C198.64878622 482.34041643 197.33052701 482.34023206 195.97232056 482.34004211 C194.56688725 482.34333983 193.1614549 482.3470652 191.75602376 482.35118359 C187.88032682 482.36122203 184.00464536 482.36492333 180.12893724 482.3675729 C175.95434438 482.37147043 171.77976385 482.38104905 167.60517883 482.38978577 C157.5176636 482.40956443 147.43014735 482.41961756 137.34261757 482.42851356 C132.5962534 482.43289362 127.84989035 482.43826111 123.10352707 482.44350243 C107.33300063 482.4605151 91.5624749 482.47501079 75.79194069 482.48225117 C71.69780095 482.48416116 67.60366121 482.48608148 63.50952148 482.48803711 C61.9830924 482.48876272 61.9830924 482.48876272 60.42582636 482.48950299 C43.92927885 482.49780897 27.43280372 482.52315529 10.93628784 482.55561779 C-5.98686198 482.58864935 -22.90997495 482.60669633 -39.83315718 482.60989541 C-49.34042003 482.61206399 -58.8475773 482.62086347 -68.35480881 482.64635658 C-76.44901702 482.66801024 -84.543094 482.67614037 -92.63732789 482.6663898 C-96.76948365 482.66182971 -100.90136834 482.66382987 -105.03348732 482.68315125 C-108.81356957 482.70067446 -112.59318087 482.69987449 -116.37326737 482.68425395 C-118.39432426 482.68072454 -120.41538549 482.69698465 -122.43637502 482.71385843 C-123.63094371 482.70527753 -124.8255124 482.69669664 -126.05628014 482.68785572 C-127.60619119 482.68932093 -127.60619119 482.68932093 -129.18741357 482.69081575 C-132.70090888 482.03824965 -133.83596266 481.12290141 -135.8684082 478.19287109 C-136.37095553 475.0332756 -136.37095553 475.0332756 -136.37456608 471.21502686 C-136.38373612 470.15635619 -136.38373612 470.15635619 -136.39309141 469.07629824 C-136.40875591 466.69913058 -136.39580008 464.32297383 -136.3830719 461.94580078 C-136.38839433 460.22927629 -136.39545826 458.51275647 -136.40411896 456.79624557 C-136.42281336 452.06985121 -136.41641802 447.34376873 -136.40596592 442.61736107 C-136.39899318 437.52389131 -136.41495713 432.43048687 -136.42796326 427.33703613 C-136.44964047 417.35521769 -136.4494669 407.37351308 -136.44133771 397.39167881 C-136.43504613 389.28157511 -136.436167 381.1715047 -136.44260979 373.06140137 C-136.44351144 371.90854794 -136.4444131 370.75569452 -136.44534208 369.56790614 C-136.44719321 367.22614319 -136.44905577 364.88438025 -136.45092963 362.54261732 C-136.46752093 340.56722616 -136.45877743 318.59189914 -136.44194406 296.61651182 C-136.42724428 276.49558188 -136.44187711 256.37480123 -136.47071422 236.25389051 C-136.50008039 215.61066171 -136.51108872 194.96750187 -136.50153202 174.32425308 C-136.50050943 171.99094901 -136.49951482 169.65764492 -136.49854851 167.32434082 C-136.49807212 166.17621375 -136.49759573 165.02808668 -136.4971049 163.84516788 C-136.49493718 155.74176349 -136.50476378 147.63842413 -136.51931953 139.53503418 C-136.53680253 129.66402032 -136.53678357 119.7931969 -136.51396788 109.92219067 C-136.50278921 104.88268753 -136.49974489 99.8435204 -136.51826859 94.80403137 C-136.53499263 90.19497082 -136.52883282 85.58654143 -136.5040518 80.97752237 C-136.49914141 79.30598303 -136.50275731 77.63439355 -136.51553924 75.96289587 C-136.53161492 73.69806486 -136.51717846 71.43544465 -136.49482059 69.17071533 C-136.49455091 67.91069324 -136.49428122 66.65067116 -136.49400336 65.35246658 C-135.8684082 62.19287109 -135.8684082 62.19287109 -133.55428356 59.78681946 C-130.03781882 57.69995299 -127.01955255 57.6595398 -123.04882812 57.73876953 C-122.27756592 57.73818542 -121.50630371 57.73760132 -120.71166992 57.73699951 C-118.17360736 57.73977644 -115.63673321 57.7708484 -113.09887695 57.80224609 C-111.33483013 57.80970991 -109.570775 57.81540218 -107.80671692 57.81939697 C-103.17213907 57.83464228 -98.5380656 57.87391441 -93.90368652 57.91821289 C-89.17129336 57.9591895 -84.4388184 57.97741308 -79.70629883 57.99755859 C-70.4267808 58.04040987 -61.14763651 58.10864773 -51.8684082 58.19287109 C-51.88653564 57.52030273 -51.90466309 56.84773438 -51.92333984 56.15478516 C-51.93743896 55.26500977 -51.95153809 54.37523437 -51.96606445 53.45849609 C-51.99325562 52.14026855 -51.99325562 52.14026855 -52.02099609 50.79541016 C-51.68029428 44.98440009 -48.79005937 40.76563888 -44.6184082 36.88037109 C-38.20211755 31.33758536 -30.93613918 30.76371095 -22.8684082 31.00537109 C-21.56323242 31.02567383 -21.56323242 31.02567383 -20.23168945 31.04638672 C-18.11032193 31.08135432 -15.98927847 31.13514579 -13.8684082 31.19287109 C-13.88411865 30.46173096 -13.8998291 29.73059082 -13.91601562 28.97729492 C-13.97851172 25.6533995 -14.01744573 22.32962789 -14.0559082 19.00537109 C-14.08104492 17.85488281 -14.10618164 16.70439453 -14.13208008 15.51904297 C-14.14174805 14.40722656 -14.15141602 13.29541016 -14.16137695 12.14990234 C-14.1770874 11.12872314 -14.19279785 10.10754395 -14.20898438 9.05541992 C-13.81358683 5.7320965 -12.83631017 3.87544951 -10.8684082 1.19287109 C-7.50511657 -0.48877472 -3.70044412 0.01805126 0 0 Z M3.1315918 17.19287109 C3.1315918 27.75287109 3.1315918 38.31287109 3.1315918 49.19287109 C26.5615918 49.19287109 49.9915918 49.19287109 74.1315918 49.19287109 C74.1315918 38.63287109 74.1315918 28.07287109 74.1315918 17.19287109 C50.7015918 17.19287109 27.2715918 17.19287109 3.1315918 17.19287109 Z M-34.8684082 52.19287109 C-34.8684082 70.01287109 -34.8684082 87.83287109 -34.8684082 106.19287109 C13.9715918 106.19287109 62.8115918 106.19287109 113.1315918 106.19287109 C113.1315918 88.70287109 113.1315918 71.21287109 113.1315918 53.19287109 C109.01071979 48.23701073 109.01071979 48.23701073 106.00341797 47.62524414 C104.97438354 47.66452026 104.97438354 47.66452026 103.92456055 47.70458984 C102.79824219 47.72875977 102.79824219 47.72875977 101.64916992 47.75341797 C100.88024414 47.7953125 100.11131836 47.83720703 99.3190918 47.88037109 C98.53083008 47.90292969 97.74256836 47.92548828 96.93041992 47.94873047 C94.99665251 48.00732948 93.06387012 48.09700282 91.1315918 48.19287109 C91.07100586 49.09650391 91.01041992 50.00013672 90.94799805 50.93115234 C90.82231445 52.70039062 90.82231445 52.70039062 90.6940918 54.50537109 C90.57227539 56.26300781 90.57227539 56.26300781 90.44799805 58.05615234 C90.1315918 61.19287109 90.1315918 61.19287109 89.1315918 64.19287109 C85.04164162 65.72126494 80.62077437 65.34825575 76.31152344 65.35400391 C75.4216423 65.35896881 74.53176117 65.36393372 73.61491394 65.36904907 C70.67385076 65.38364343 67.73284147 65.39046731 64.79174805 65.39599609 C62.74678038 65.40174873 60.70181273 65.40750645 58.65684509 65.41326904 C54.37051136 65.42377053 50.08419635 65.42961913 45.79785156 65.43310547 C40.30543658 65.43859575 34.8132688 65.46263884 29.32093143 65.49107742 C25.0976031 65.50969725 20.87433447 65.514909 16.65096855 65.51644135 C14.62596723 65.51946866 12.60096698 65.52749981 10.57600594 65.54062653 C7.74416354 65.55767708 4.91292756 65.55580944 2.08105469 65.54931641 C1.2450473 65.55853119 0.40903992 65.56774597 -0.45230103 65.57723999 C-5.07620285 65.54402097 -8.11286311 65.19767334 -11.8684082 62.19287109 C-13.21932348 59.49104054 -13.20698878 57.07478903 -13.4309082 54.06787109 C-13.5565918 52.42431641 -13.5565918 52.42431641 -13.68481445 50.74755859 C-13.74540039 49.90451172 -13.80598633 49.06146484 -13.8684082 48.19287109 C-16.61946242 48.08475106 -19.36625908 48.00552164 -22.1184082 47.94287109 C-22.89571289 47.90935547 -23.67301758 47.87583984 -24.47387695 47.84130859 C-25.22797852 47.82841797 -25.98208008 47.81552734 -26.7590332 47.80224609 C-27.45029297 47.78129883 -28.14155273 47.76035156 -28.85375977 47.73876953 C-31.5447579 48.15679407 -31.5447579 48.15679407 -34.8684082 52.19287109 Z M-119.8684082 75.19287109 C-119.8684082 203.89287109 -119.8684082 332.59287109 -119.8684082 465.19287109 C-15.2584082 465.19287109 89.3515918 465.19287109 197.1315918 465.19287109 C197.1315918 448.03287109 197.1315918 430.87287109 197.1315918 413.19287109 C191.8515918 412.86287109 186.5715918 412.53287109 181.1315918 412.19287109 C181.10581055 414.45646484 181.0800293 416.72005859 181.0534668 419.05224609 C181.01502889 421.24996253 180.96987473 423.44744571 180.92407227 425.64501953 C180.89588645 427.1696454 180.87465991 428.69441675 180.8605957 430.21923828 C180.83913131 432.41433045 180.79247011 434.60767821 180.7409668 436.80224609 C180.7095459 438.7817627 180.7095459 438.7817627 180.67749023 440.80126953 C180.1315918 444.19287109 180.1315918 444.19287109 178.77877903 446.37352085 C174.54053027 449.28637069 170.25515928 448.73976374 165.23069763 448.69407654 C164.10641973 448.69961093 162.98214183 448.70514533 161.8237949 448.71084744 C158.04262657 448.72450073 154.26211295 448.70945865 150.48095703 448.69458008 C147.77589805 448.6961543 145.07086315 448.70370716 142.36581421 448.71095276 C135.77323561 448.72489732 129.18084834 448.7173204 122.58827882 448.70227718 C114.91476669 448.68543258 107.24130243 448.68862533 99.56777752 448.69237126 C85.87913067 448.69825196 72.19057576 448.68406952 58.50195312 448.65942383 C45.21155349 448.63549773 31.92127668 448.62842111 18.63085938 448.63891602 C4.16563328 448.65031812 -10.29953599 448.65226443 -24.76476139 448.63781792 C-26.30633381 448.63629204 -27.84790625 448.63477169 -29.38947868 448.63325691 C-30.14800692 448.6324991 -30.90653516 448.63174128 -31.6880491 448.63096051 C-37.0402414 448.62621256 -42.39240837 448.62807269 -47.7446003 448.63232231 C-54.26399766 448.63724235 -60.78327875 448.63129421 -67.30264945 448.61142801 C-70.63065975 448.60153747 -73.95834423 448.59807144 -77.28638649 448.60432053 C-80.88928226 448.6102392 -84.49164966 448.59783356 -88.09449768 448.58055115 C-89.68231335 448.58956622 -89.68231335 448.58956622 -91.3022061 448.59876341 C-92.26364623 448.59032347 -93.22508637 448.58188352 -94.21566105 448.57318783 C-95.04773832 448.5721587 -95.8798156 448.57112957 -96.73710734 448.57006925 C-99.37370089 448.10344427 -100.22441616 447.26285842 -101.8684082 445.19287109 C-103.19740418 442.53487914 -102.99504114 440.53246927 -102.99704266 437.55433846 C-103.0002671 436.34756828 -103.00349155 435.14079811 -103.0068137 433.89745915 C-103.00534234 432.54623283 -103.00377461 431.19500662 -103.00212097 429.84378052 C-103.00398767 428.41772364 -103.0062878 426.99166727 -103.00898629 425.56561172 C-103.01512824 421.63290252 -103.0149679 417.7002145 -103.01379192 413.76750159 C-103.01358851 409.53156182 -103.01910091 405.29562896 -103.02384949 401.05969238 C-103.03216976 392.75538983 -103.03490495 384.45109438 -103.03546187 376.14678802 C-103.03593639 369.39915642 -103.03798792 362.65152718 -103.04116249 355.90389633 C-103.04997291 336.78918926 -103.05458127 317.67448782 -103.05383202 298.55977871 C-103.05379206 297.52845994 -103.0537521 296.49714117 -103.05371094 295.43457031 C-103.05367006 294.40199785 -103.05362918 293.36942538 -103.05358706 292.30556284 C-103.0531805 275.56654559 -103.06275145 258.82755083 -103.0768493 242.08854009 C-103.09119794 224.91678742 -103.09812032 207.74504572 -103.09725553 190.57328689 C-103.09692303 180.92633164 -103.0996932 171.27939997 -103.11043358 161.6324501 C-103.11951873 153.41932375 -103.12173025 145.20623164 -103.11492416 136.99310245 C-103.11164884 132.80026732 -103.11163853 128.60749799 -103.1202774 124.41466904 C-103.12809893 120.57918918 -103.12675587 116.74382775 -103.11799327 112.90835093 C-103.11644863 111.51803867 -103.11831042 110.12771776 -103.12385335 108.73741569 C-103.13087214 106.85265093 -103.12444878 104.96785027 -103.11729717 103.08308601 C-103.11751454 102.03462317 -103.11773191 100.98616032 -103.11795586 99.90592587 C-102.86341451 97.13858018 -102.38283179 95.50572339 -100.8684082 93.19287109 C-98.49457835 92.00595617 -96.97661928 92.03714242 -94.3269043 91.98754883 C-92.91566788 91.957631 -92.91566788 91.957631 -91.47592163 91.92710876 C-90.45817657 91.91039627 -89.44043152 91.89368378 -88.3918457 91.87646484 C-87.35146149 91.85568375 -86.31107727 91.83490265 -85.23916626 91.81349182 C-81.90731571 91.74797238 -78.5753847 91.68910018 -75.2434082 91.63037109 C-72.98819146 91.58718816 -70.73298294 91.54357394 -68.4777832 91.49951172 C-62.94140787 91.39228852 -57.4049514 91.2910278 -51.8684082 91.19287109 C-51.8684082 85.91287109 -51.8684082 80.63287109 -51.8684082 75.19287109 C-74.3084082 75.19287109 -96.7484082 75.19287109 -119.8684082 75.19287109 Z M130.1315918 75.19287109 C130.1315918 80.47287109 130.1315918 85.75287109 130.1315918 91.19287109 C131.50412109 91.2022168 132.87665039 91.2115625 134.29077148 91.22119141 C139.38257313 91.26106023 144.4737686 91.32681085 149.56518555 91.40039062 C151.76888238 91.42861819 153.9726808 91.44982379 156.17651367 91.46386719 C159.34436112 91.48527156 162.51098487 91.53191008 165.6784668 91.58349609 C166.6640155 91.58472473 167.64956421 91.58595337 168.66497803 91.58721924 C175.34350603 91.73026063 175.34350603 91.73026063 178.74682617 93.72802734 C180.68539578 97.17862656 180.73460141 100.38034133 180.7409668 104.23974609 C180.75750305 105.01094788 180.77403931 105.78214966 180.79107666 106.57672119 C180.83953773 109.03218564 180.86092217 111.48703093 180.8815918 113.94287109 C180.90975325 115.61087096 180.93968094 117.27884201 180.97143555 118.94677734 C181.04861365 123.02909276 181.08914466 127.1094566 181.1315918 131.19287109 C186.4115918 131.19287109 191.6915918 131.19287109 197.1315918 131.19287109 C197.1315918 112.71287109 197.1315918 94.23287109 197.1315918 75.19287109 C175.0215918 75.19287109 152.9115918 75.19287109 130.1315918 75.19287109 Z M-86.8684082 108.19287109 C-86.8684082 215.11287109 -86.8684082 322.03287109 -86.8684082 432.19287109 C-4.0384082 432.19287109 78.7915918 432.19287109 164.1315918 432.19287109 C164.1315918 424.60287109 164.1315918 417.01287109 164.1315918 409.19287109 C161.2647168 408.40912109 158.3978418 407.62537109 155.4440918 406.81787109 C147.71162818 404.57020395 140.40512629 401.77131945 133.1315918 398.31787109 C132.30957275 397.93195801 131.48755371 397.54604492 130.640625 397.1484375 C127.08827552 395.40930702 123.83878043 393.80239273 120.82519531 391.20500183 C110.90562579 382.97219586 100.30065962 384.13006326 88.0065918 384.29833984 C85.76887698 384.29843859 83.53115883 384.29457368 81.29345703 384.28694153 C75.43551022 384.27555277 69.57875494 384.30903143 63.7210083 384.3548584 C54.31884954 384.42168665 44.91656999 384.42394019 35.51422119 384.41817665 C32.23453652 384.42327695 28.95556685 384.45016093 25.67602539 384.48002625 C23.67293469 384.48666356 21.66984217 384.49278035 19.66674805 384.49829102 C18.7555571 384.51229446 17.84436615 384.52629791 16.90556335 384.54072571 C13.31793581 384.53654349 10.81157403 384.53038226 7.56689453 382.9198761 C5.58220826 380.53183416 5.64697556 378.25339285 5.6003418 375.22802734 C6.39219334 372.19453722 7.65610158 371.11187814 10.1315918 369.19287109 C12.89232727 368.78996472 15.26060582 368.62828294 18.02124023 368.64697266 C18.81186356 368.63663498 19.60248688 368.6262973 20.41706848 368.61564636 C23.0252419 368.58619468 25.63264009 368.58471873 28.2409668 368.58349609 C30.05130496 368.568516 31.86162944 368.55178921 33.67193604 368.53338623 C38.43288802 368.48968117 43.19365565 368.46970666 47.95477295 368.45465088 C52.81460486 368.43509115 57.67423733 368.39311988 62.53393555 368.35302734 C72.06642616 368.27769108 81.59887221 368.22742031 91.1315918 368.19287109 C89.133165 364.79673716 87.06338103 361.81657452 84.5065918 358.81787109 C75.40730164 347.54810805 67.72128176 333.96194097 63.1315918 320.19287109 C62.46173752 320.18700485 61.79188324 320.18113861 61.10173035 320.1750946 C54.14257148 320.11126129 47.18387938 320.02686782 40.22509766 319.93041992 C37.62652736 319.89712366 35.02788393 319.86910656 32.42919922 319.84643555 C28.69816861 319.81297658 24.96781119 319.7606638 21.23706055 319.70458984 C20.07136032 319.69819992 18.9056601 319.69181 17.70463562 319.68522644 C16.0832946 319.6555352 16.0832946 319.6555352 14.42919922 319.62524414 C13.47655685 319.61414108 12.52391449 319.60303802 11.54240417 319.59159851 C8.72409991 319.12547548 7.82435301 318.4531964 6.1315918 316.19287109 C5.7331543 314.25537109 5.7331543 314.25537109 5.7565918 312.19287109 C5.74499023 311.17193359 5.74499023 311.17193359 5.7331543 310.13037109 C6.25799451 307.57820692 7.09758185 306.80167901 9.1315918 305.19287109 C11.35258484 304.79414368 11.35258484 304.79414368 13.97021484 304.76049805 C14.9510051 304.74070389 15.93179535 304.72090973 16.94230652 304.70051575 C18.52680351 304.69093086 18.52680351 304.69093086 20.14331055 304.68115234 C21.22667191 304.66320114 22.31003326 304.64524994 23.42622375 304.62675476 C26.89047336 304.57252125 30.35458418 304.53871365 33.8190918 304.50537109 C36.16611638 304.47220961 38.51312261 304.43772105 40.86010742 304.40185547 C46.61714442 304.31678736 52.3741991 304.24849277 58.1315918 304.19287109 C58.04169479 303.60170502 57.95179779 303.01053894 57.85917664 302.40145874 C56.1205997 290.80742972 54.66448889 279.56119328 54.9440918 267.81787109 C54.95762695 266.67705078 54.97116211 265.53623047 54.98510742 264.36083984 C55.019434 261.63759833 55.06797766 258.91555609 55.1315918 256.19287109 C54.57671082 256.18922546 54.02182983 256.18557983 53.45013428 256.18182373 C47.67474486 256.14001269 41.9001512 256.07067768 36.12524414 255.98535156 C33.97005166 255.9571261 31.81475537 255.93591944 29.65942383 255.921875 C26.5610635 255.90046763 23.46395353 255.8538279 20.3659668 255.80224609 C19.40229187 255.80101746 18.43861694 255.79978882 17.44573975 255.79852295 C10.75797787 255.65209963 10.75797787 255.65209963 7.52514648 253.28198242 C5.12683909 249.68662216 5.59126174 247.44797026 6.1315918 243.19287109 C8.95497403 240.38323019 11.07447783 239.81204365 14.99194336 239.76049805 C15.95263733 239.74070389 16.9133313 239.72090973 17.90313721 239.70051575 C19.4470816 239.69093086 19.4470816 239.69093086 21.0222168 239.68115234 C22.08196716 239.66320114 23.14171753 239.64524994 24.23358154 239.62675476 C27.61621123 239.57260089 30.9986994 239.53873911 34.3815918 239.50537109 C36.67588234 239.47220258 38.97015421 239.43771336 41.2644043 239.40185547 C46.88667323 239.31687154 52.50896036 239.24854308 58.1315918 239.19287109 C58.34537979 238.5306958 58.55916779 237.86852051 58.7794342 237.1862793 C63.34371161 223.09127819 68.77061402 210.14267474 76.02172852 197.2097168 C77.11234164 195.22785251 78.1255514 193.21865936 79.1315918 191.19287109 C78.2612883 191.18700485 77.3909848 191.18113861 76.49430847 191.1750946 C68.29816831 191.11722487 60.10230232 191.04518134 51.90642834 190.95715618 C47.69268386 190.91240141 43.47903721 190.8731568 39.26513672 190.84643555 C35.19954335 190.82045315 31.13432542 190.78008736 27.068964 190.72968483 C25.51685564 190.71298168 23.96468229 190.7014889 22.41249657 190.69525719 C20.24057907 190.68565311 18.06962952 190.6576408 15.89794922 190.62524414 C14.66106857 190.61414108 13.42418793 190.60303802 12.14982605 190.59159851 C9.1315918 190.19287109 9.1315918 190.19287109 7.2335968 188.78694153 C5.20349557 185.85036289 5.58979088 182.60764266 6.1315918 179.19287109 C7.67497271 177.01810708 8.76824453 176.37454473 11.1315918 175.19287109 C13.71379079 175.11211319 16.26906123 175.09124649 18.85083008 175.11450195 C20.50310196 175.12061927 22.15537455 175.1265459 23.80764771 175.13230896 C24.68615513 175.13698118 25.56466255 175.1416534 26.46979141 175.14646721 C31.12009858 175.16561172 35.77033536 175.15043373 40.4206543 175.14013672 C46.33955208 175.12789738 52.25772848 175.12613318 58.17651367 175.16870117 C62.95793436 175.20218363 67.73792699 175.1966001 72.51934433 175.16513252 C74.33812064 175.16021784 76.15699433 175.16944413 77.97562027 175.19334221 C87.87489236 175.60394787 87.87489236 175.60394787 96.96943665 172.43945312 C98.95737293 170.45967758 100.52545505 168.48374302 102.1315918 166.19287109 C118.15481879 151.18146129 140.11457359 140.64787848 161.33081055 135.66552734 C163.14015921 135.35244515 163.14015921 135.35244515 164.1315918 134.19287109 C164.21907387 132.26619602 164.23856514 130.33635248 164.22924805 128.40771484 C164.22550171 126.8278479 164.22550171 126.8278479 164.22167969 125.21606445 C164.21257568 123.86778564 164.20347168 122.51950684 164.1940918 121.13037109 C164.1631543 114.72630859 164.1631543 114.72630859 164.1315918 108.19287109 C152.9115918 108.19287109 141.6915918 108.19287109 130.1315918 108.19287109 C129.4715918 111.82287109 128.8115918 115.45287109 128.1315918 119.19287109 C125.26973063 122.05473226 123.3165095 121.44712161 119.30555725 121.4535675 C118.59542699 121.45739305 117.88529673 121.4612186 117.15364736 121.46516007 C114.76218809 121.47552018 112.37096756 121.4714923 109.97949219 121.4675293 C108.26979855 121.47187412 106.56010686 121.47705649 104.85041809 121.48301697 C100.19756909 121.4964431 95.54480114 121.49698163 90.89193654 121.49445367 C87.01251487 121.49338638 83.13310975 121.4982611 79.25369161 121.50305909 C70.10401106 121.51416682 60.95437155 121.5145846 51.8046875 121.50854492 C42.35478 121.50250313 32.90502132 121.51481847 23.45513922 121.53611499 C15.35150006 121.55370839 7.24790837 121.55973593 -0.85574919 121.55647725 C-5.69995991 121.5546606 -10.54406449 121.55733841 -15.38825798 121.57119179 C-19.94285769 121.58372879 -24.49722479 121.58186539 -29.05182076 121.5687809 C-30.72601015 121.56640651 -32.40021571 121.56918049 -34.0743866 121.57740402 C-36.3549944 121.58780086 -38.6348114 121.5798287 -40.91539001 121.5670929 C-42.19316283 121.56726064 -43.47093565 121.56742838 -44.78742886 121.5676012 C-47.8684082 121.19287109 -47.8684082 121.19287109 -50.8684082 118.19287109 C-51.1984082 114.89287109 -51.5284082 111.59287109 -51.8684082 108.19287109 C-63.4184082 108.19287109 -74.9684082 108.19287109 -86.8684082 108.19287109 Z M331.27612305 124.28271484 C328.82563003 128.37244551 329.21324437 133.53867418 329.1315918 138.19287109 C333.9292608 138.38477785 337.74574118 138.23960138 342.1315918 136.19287109 C344.49521595 133.69914067 344.49521595 133.69914067 346.1315918 131.19287109 C345.0178418 130.90412109 343.9040918 130.61537109 342.7565918 130.31787109 C339.1315918 129.19287109 339.1315918 129.19287109 337.1315918 127.19287109 C336.73394917 125.20465796 336.39383831 123.2034277 336.1315918 121.19287109 C334.02656973 121.19287109 332.67749438 122.89749765 331.27612305 124.28271484 Z M162.1315918 152.19287109 C161.4612793 152.36947266 160.7909668 152.54607422 160.1003418 152.72802734 C141.2873411 157.84850132 122.28511029 168.72023184 109.1315918 183.19287109 C108.3478418 183.95599609 107.5640918 184.71912109 106.7565918 185.50537109 C105.8903418 186.39224609 105.0240918 187.27912109 104.1315918 188.19287109 C103.49737305 188.81935547 102.8631543 189.44583984 102.2097168 190.09130859 C80.33916299 212.81496911 70.49493295 245.03449621 70.9831543 276.06005859 C71.90631397 308.55225239 85.85532983 337.06114592 108.1315918 360.19287109 C108.71295898 360.83740234 109.29432617 361.48193359 109.89331055 362.14599609 C129.00868726 382.75400927 159.70094971 394.81984257 187.43774414 396.31738281 C219.80375194 397.36186613 250.23630834 388.29489113 275.1315918 367.19287109 C275.64028809 366.76780273 276.14898437 366.34273437 276.6730957 365.90478516 C299.91436153 346.32466327 316.01340512 316.55582013 319.1315918 286.19287109 C320.78853866 252.1933717 314.01993362 220.7772303 292.0769043 194.03662109 C290.21539774 191.84891793 290.21539774 191.84891793 287.1315918 192.19287109 C285.12820474 193.7795514 285.12820474 193.7795514 283.11987305 195.91162109 C282.36254883 196.67861328 281.60522461 197.44560547 280.82495117 198.23583984 C280.03926758 199.04666016 279.25358398 199.85748047 278.4440918 200.69287109 C277.64680664 201.50369141 276.84952148 202.31451172 276.02807617 203.14990234 C274.055717 205.15769312 272.09067688 207.17213979 270.1315918 209.19287109 C271.50447887 212.77523099 272.96559141 215.47328707 275.3190918 218.50537109 C289.71920348 238.75552815 293.80280417 265.44163585 289.8815918 289.59521484 C284.80003853 313.97079065 271.83652035 336.72480837 250.96044922 350.92578125 C228.15475351 365.67146812 201.4576595 371.11406659 174.61962891 366.11669922 C149.69804393 360.54563006 127.95264305 345.5167795 114.22924805 323.97802734 C101.06255271 302.56457621 96.38317405 276.39880013 101.2565918 251.63037109 C101.82720462 249.46943919 102.45414341 247.32272775 103.1315918 245.19287109 C103.32495117 244.57186523 103.51831055 243.95085937 103.7175293 243.31103516 C111.66323007 218.38262517 128.15547915 198.44631673 151.44628906 186.30102539 C174.61612361 174.83988133 201.71239671 173.08293947 226.25756836 181.02807617 C237.1423272 184.78361273 246.95092247 190.23333144 256.1315918 197.19287109 C259.3902554 195.76641329 261.5340772 194.02582948 264.0222168 191.49755859 C265.08569336 190.42441406 265.08569336 190.42441406 266.1706543 189.32958984 C266.90026367 188.58322266 267.62987305 187.83685547 268.3815918 187.06787109 C269.12666992 186.31376953 269.87174805 185.55966797 270.6394043 184.78271484 C272.474726 182.92386337 274.30521089 181.06050105 276.1315918 179.19287109 C273.11253999 174.98562811 269.67863904 172.17699501 265.3815918 169.38037109 C264.7218335 168.94950195 264.0620752 168.51863281 263.38232422 168.07470703 C233.03761143 148.6500769 197.08311831 142.73466231 162.1315918 152.19287109 Z M144.1315918 211.19287109 C143.26147461 211.84642578 143.26147461 211.84642578 142.3737793 212.51318359 C127.80584361 223.82874294 118.4618289 243.167014 116.1315918 261.19287109 C114.26618591 282.87158154 118.53521194 303.11507128 132.0065918 320.56787109 C133.3572227 322.13093132 134.73290002 323.67266636 136.1315918 325.19287109 C136.88053711 326.03333984 137.62948242 326.87380859 138.40112305 327.73974609 C147.52912352 337.47234756 158.61504641 343.76935304 171.1315918 348.19287109 C171.98108398 348.51255859 172.83057617 348.83224609 173.70581055 349.16162109 C191.92314523 354.90606532 213.29930587 351.97058179 230.3190918 344.06787109 C250.62771454 333.20888055 264.91222675 316.51606496 272.16674805 294.63037109 C278.07048683 273.59680781 275.49976521 252.28032875 265.1315918 233.19287109 C262.96337556 229.71530486 260.67332658 226.40673635 258.1315918 223.19287109 C254.87292819 224.6193289 252.7291064 226.35991271 250.2409668 228.88818359 C249.17749023 229.96132812 249.17749023 229.96132812 248.0925293 231.05615234 C247.36291992 231.80251953 246.63331055 232.54888672 245.8815918 233.31787109 C245.13651367 234.07197266 244.39143555 234.82607422 243.6237793 235.60302734 C241.78845759 237.46187881 239.9579727 239.32524114 238.1315918 241.19287109 C240.01078187 245.91598512 242.00313003 250.58541108 244.01049805 255.25537109 C248.58384211 267.23848864 247.29341877 282.65108689 242.1315918 294.19287109 C234.84838392 308.16925483 224.91101391 316.59051168 210.0612793 321.39599609 C195.32643495 325.40387376 181.30697387 323.0250263 167.9519043 315.91162109 C155.55661942 308.35770787 148.70417874 297.07986229 145.1315918 283.19287109 C142.24858202 268.22413161 145.26976293 255.14088314 153.1315918 242.19287109 C160.86186632 231.55658597 172.03887855 224.28054192 184.9831543 221.60302734 C198.16412091 219.8859039 211.00212288 220.83260518 222.1940918 228.39990234 C224.11596939 229.44465755 224.11596939 229.44465755 226.00952148 228.47338867 C228.37451199 227.04628614 230.08528052 225.46573578 232.0222168 223.49755859 C232.73120117 222.78212891 233.44018555 222.06669922 234.1706543 221.32958984 C234.90026367 220.58322266 235.62987305 219.83685547 236.3815918 219.06787109 C237.12666992 218.31376953 237.87174805 217.55966797 238.6394043 216.78271484 C240.474726 214.92386337 242.30521089 213.06050105 244.1315918 211.19287109 C240.93157336 203.94973251 231.4583361 200.42523863 224.3269043 197.63427734 C196.38243953 187.84500018 167.06490572 191.82894455 144.1315918 211.19287109 Z M166.3190918 251.31787109 C161.17641072 259.22831456 158.70633215 269.38451539 160.6394043 278.61865234 C163.01671901 287.62239024 167.66738579 295.48004303 175.1315918 301.19287109 C184.96568051 306.59115809 194.13321198 309.00133376 205.1940918 306.06787109 C215.16345437 302.71866609 222.61707775 296.29737314 227.4440918 287.00537109 C231.12359946 279.38242483 231.54708857 270.16256282 229.23706055 262.05224609 C228.28904576 259.7073332 227.2912848 257.43977629 226.1315918 255.19287109 C222.38272623 256.74940181 220.04204172 259.06605438 217.2175293 261.94677734 C216.29198242 262.88328125 215.36643555 263.81978516 214.4128418 264.78466797 C213.44374078 265.77455882 212.47499467 266.76479724 211.5065918 267.75537109 C209.60093809 269.69738018 207.69123549 271.63521297 205.7800293 273.57177734 C204.51425049 274.86450562 204.51425049 274.86450562 203.22290039 276.18334961 C200.24192794 279.04774189 199.47173072 279.17127497 195.1940918 279.44287109 C192.72395684 279.38907505 191.35863243 279.30639141 189.1315918 278.19287109 C187.38723305 274.7041536 187.08902749 271.88291689 188.1315918 268.19287109 C190.66074563 264.42237404 193.89428603 261.34983931 197.1315918 258.19287109 C199.13393304 256.21164508 201.13285673 254.22706465 203.12939453 252.23999023 C204.49675586 250.88427015 205.87121115 249.53566465 207.25292969 248.19458008 C207.88448975 247.57526611 208.5160498 246.95595215 209.16674805 246.31787109 C209.7378833 245.76357422 210.30901855 245.20927734 210.89746094 244.63818359 C212.34804582 243.25613265 212.34804582 243.25613265 212.1315918 241.19287109 C195.78710879 232.9283921 177.89283699 237.14091269 166.3190918 251.31787109 Z " fill="#000000" transform="translate(135.868408203125,14.80712890625)"/>
<path d="M0 0 C2.83423303 2.2856718 3.00889797 4.04300684 3.75 7.625 C3.45658913 13.346512 -0.47366591 16.57741416 -4.37207031 20.3984375 C-6.28960885 22.28491812 -8.17148296 24.20425359 -10.0546875 26.125 C-12.86766212 28.97877933 -15.68449639 31.82828064 -18.5234375 34.65625 C-19.12075684 35.25244141 -19.71807617 35.84863281 -20.33349609 36.46289062 C-23.67525852 39.54518424 -26.24091932 40.62971375 -30.8203125 40.50390625 C-35.22673627 39.48521688 -37.97191893 36.17858212 -41 33 C-41.67933594 32.34 -42.35867187 31.68 -43.05859375 31 C-46.19989455 27.76389133 -47.83668391 25.80297079 -48.75 21.3125 C-47.78325846 17.04272488 -46.57632467 15.51103647 -43 13 C-39.5123104 12.36587462 -37.27871011 12.18678524 -34.21875 14.1328125 C-32.74756174 15.34723677 -31.36547882 16.66782554 -30 18 C-26.75980142 16.58288975 -24.66279375 14.87791385 -22.21484375 12.33984375 C-21.51939453 11.62892578 -20.82394531 10.91800781 -20.10742188 10.18554688 C-19.39134766 9.44369141 -18.67527344 8.70183594 -17.9375 7.9375 C-16.51384635 6.46286502 -15.08565422 4.99259428 -13.65234375 3.52734375 C-13.02320068 2.87499756 -12.39405762 2.22265137 -11.74584961 1.55053711 C-8.01473569 -1.7631679 -4.59170451 -1.0659314 0 0 Z " fill="#000000" transform="translate(124,172)"/>
<path d="M0 0 C2.08853325 3.13279987 2.60830947 5.09925881 2.50024414 8.84594727 C1.88440933 11.49773378 0.90041115 12.65879403 -0.94140625 14.65234375 C-1.57699463 15.34465088 -2.21258301 16.03695801 -2.86743164 16.75024414 C-3.5711792 17.49266357 -4.27492676 18.23508301 -5 19 C-5.74048584 19.78947021 -6.48097168 20.57894043 -7.24389648 21.39233398 C-9.63699321 23.91273102 -12.06371247 26.39637572 -14.5 28.875 C-15.31597656 29.72835938 -16.13195312 30.58171875 -16.97265625 31.4609375 C-24.9499241 39.55344678 -24.9499241 39.55344678 -31 40 C-35.95981444 38.34252707 -39.25830433 35.14770975 -42.8125 31.4375 C-43.30169922 30.94314453 -43.79089844 30.44878906 -44.29492188 29.93945312 C-48.9210233 25.21097601 -48.9210233 25.21097601 -49.1875 21.125 C-49.00235491 18.03924846 -48.77840309 16.48976433 -47 14 C-44.36738018 11.9524068 -42.94105532 12.00214344 -39.5625 12.125 C-35.73572623 13.06490935 -33.84263633 14.32964466 -31 17 C-27.88446516 15.62347755 -25.84526809 14.05537494 -23.50390625 11.59375 C-22.54194336 10.60181641 -22.54194336 10.60181641 -21.56054688 9.58984375 C-20.23037965 8.19856424 -18.90224605 6.80533753 -17.57617188 5.41015625 C-11.77061153 -0.56427195 -8.37718868 -3.31926344 0 0 Z " fill="#000000" transform="translate(125,302)"/>
<path d="M0 0 C3.609375 0.61328125 3.609375 0.61328125 6.109375 2.05078125 C8.33379212 5.85082717 8.3673817 9.30736176 7.609375 13.61328125 C6.07604866 16.31916185 4.04426026 18.26079079 1.7734375 20.36328125 C1.17888763 20.94746826 0.58433777 21.53165527 -0.02822876 22.13354492 C-1.92053061 23.98234309 -3.84202119 25.79713326 -5.765625 27.61328125 C-7.05147541 28.86253189 -8.33535307 30.11381647 -9.6171875 31.3671875 C-19.86292807 41.32229136 -19.86292807 41.32229136 -24.015625 42.11328125 C-29.16720767 41.35008382 -31.78442427 38.19174197 -35.390625 34.61328125 C-36.0609375 33.96875 -36.73125 33.32421875 -37.421875 32.66015625 C-43.237982 26.98706828 -43.237982 26.98706828 -43.703125 22.80078125 C-43.30096986 18.69879878 -42.57088945 17.25057372 -39.390625 14.61328125 C-36.24892318 13.88646964 -33.53231922 13.88655483 -30.390625 14.61328125 C-27.328125 17.11328125 -27.328125 17.11328125 -25.390625 19.61328125 C-22.0322045 18.17249464 -20.01584003 16.38776828 -17.5625 13.69921875 C-16.84449219 12.93867188 -16.12648438 12.178125 -15.38671875 11.39453125 C-13.89265743 9.79393686 -12.41074501 8.18191295 -10.94140625 6.55859375 C-4.7692904 0.08942419 -4.7692904 0.08942419 0 0 Z " fill="#000000" transform="translate(119.390625,235.38671875)"/>
<path d="M0 0 C2.875 1.4375 2.875 1.4375 5 4 C5.78073011 7.7489825 5.88164444 11.44779382 3.95733643 14.83569336 C2.45257553 16.6025528 0.86697193 18.1733244 -0.8359375 19.75 C-1.43048737 20.33418701 -2.02503723 20.91837402 -2.63760376 21.52026367 C-4.52990561 23.36906184 -6.45139619 25.18385201 -8.375 27 C-9.66085041 28.24925064 -10.94472807 29.50053522 -12.2265625 30.75390625 C-22.53767446 40.77252714 -22.53767446 40.77252714 -27.1640625 41.4921875 C-32.61451208 40.79284265 -34.76657494 38.05656761 -38.375 34.125 C-39.00277344 33.47402344 -39.63054687 32.82304687 -40.27734375 32.15234375 C-45.82057008 26.34572437 -45.82057008 26.34572437 -46.375 22.1875 C-46 19 -46 19 -43.9375 16.125 C-41 14 -41 14 -37.5625 13.375 C-32.94382702 14.18529351 -31.31615327 15.76472852 -28 19 C-24.75904935 17.58079247 -22.64164495 15.86691752 -20.1796875 13.33984375 C-19.47972656 12.62892578 -18.77976562 11.91800781 -18.05859375 11.18554688 C-17.33800781 10.44369141 -16.61742188 9.70183594 -15.875 8.9375 C-14.43712439 7.46526807 -12.99712292 5.99510844 -11.5546875 4.52734375 C-10.92030762 3.87499756 -10.28592773 3.22265137 -9.63232422 2.55053711 C-6.56640745 -0.36176283 -4.13918037 -0.405802 0 0 Z " fill="#000000" transform="translate(122,365)"/>
</svg>
