<?xml version="1.0" encoding="UTF-8"?>
<svg version="1.1" xmlns="http://www.w3.org/2000/svg" width="512" height="512">
<path d="M0 0 C0.82859535 -0.00630794 1.65719071 -0.01261588 2.51089501 -0.01911497 C3.41594144 -0.02097697 4.32098786 -0.02283896 5.25345993 -0.02475739 C6.21903501 -0.03055077 7.1846101 -0.03634416 8.17944503 -0.0423131 C11.42357389 -0.06038918 14.66768536 -0.07124907 17.91184616 -0.08200836 C20.23440332 -0.09318292 22.55695886 -0.10469622 24.87951279 -0.11652374 C32.51364015 -0.15308425 40.14778404 -0.17829727 47.78196335 -0.20114899 C49.0804153 -0.20509485 50.37886724 -0.20904072 51.71666622 -0.21310616 C63.95968201 -0.24951823 76.20270284 -0.2811177 88.445755 -0.30221558 C91.27999257 -0.30718468 94.11422998 -0.31222904 96.94846725 -0.31735992 C97.65288247 -0.3186306 98.35729768 -0.31990127 99.0830588 -0.32121044 C110.49419671 -0.34257088 121.90504667 -0.39156973 133.31603971 -0.45160407 C145.0366906 -0.5127583 156.75719296 -0.54740785 168.47800136 -0.55668879 C175.0568373 -0.56295192 181.63514324 -0.58112592 188.21382523 -0.62807465 C194.40278397 -0.67169621 200.59092202 -0.68224265 206.78000832 -0.66744614 C209.05039221 -0.66777516 211.32081102 -0.6800806 213.59105492 -0.70529556 C216.69379061 -0.73793589 219.79351513 -0.72725821 222.8962822 -0.70590973 C223.79240573 -0.7256175 224.68852927 -0.74532527 225.61180806 -0.76563025 C231.73556833 -0.6594054 234.7650007 1.05675714 239.11600095 5.34155339 C239.68123729 5.93589911 240.24647363 6.53024482 240.82883835 7.14260101 C241.89101584 8.16832323 242.95556389 9.19160539 244.02401352 10.21079254 C245.06423107 11.24521305 246.10187668 12.28222512 247.13718796 13.32155609 C247.99972183 14.18146149 247.99972183 14.18146149 248.87968063 15.05873871 C250.74934363 16.92405681 252.61539203 18.79294089 254.4811821 20.66213226 C255.7900013 21.97027686 257.09896883 23.27827306 258.40807724 24.58612823 C261.13532519 27.3119097 263.86077552 30.03947229 266.58494186 32.76833344 C270.08093037 36.27005273 273.58143531 39.7672175 277.08327007 43.26308918 C279.7795823 45.95579637 282.47351887 48.6508701 285.16673088 51.34667778 C286.4574305 52.63804507 287.74887499 53.9286683 289.04107094 55.21853828 C290.83855679 57.01349492 292.63282377 58.8116075 294.42625046 60.61061859 C294.9617804 61.1441243 295.49731033 61.67763 296.04906845 62.22730255 C300.12158703 66.32343825 300.95332343 68.07399347 300.96305943 73.80843258 C300.96751727 75.02133604 300.97197511 76.23423951 300.97656804 77.48389763 C300.97647874 78.84209153 300.97628887 80.20028543 300.97600937 81.55847931 C300.97930708 82.99192214 300.98303245 84.42536405 300.98715085 85.85880476 C300.99719013 89.81219997 301.00089076 93.76558 301.00354016 97.71898615 C301.00743769 101.97755813 301.01701662 106.23611803 301.02575302 110.49468231 C301.04553641 120.78839177 301.05558749 131.08210224 301.06448081 141.37582597 C301.06886196 146.22240202 301.07422934 151.06897696 301.07946968 155.91555214 C301.0964863 172.02662523 301.11097947 188.13769764 301.11821842 204.24877834 C301.12012836 208.43189177 301.12204868 212.61500519 301.12400436 216.79811859 C301.1244881 217.83782673 301.12497184 218.87753487 301.12547024 219.94874931 C301.13376668 236.78329316 301.15909514 253.61776587 301.19158504 270.45227867 C301.22466548 287.73367617 301.24266821 305.01503755 301.24586266 322.29646689 C301.2480272 332.00013071 301.25676722 341.70369088 301.28232384 351.40732384 C301.30404454 359.67370686 301.31207463 367.93996107 301.30235706 376.20636939 C301.29781589 380.4224265 301.29968766 384.63821793 301.3191185 388.85423851 C301.33677692 392.71918548 301.33573104 396.58367349 301.32022121 400.44862551 C301.31784913 401.84175917 301.3221479 403.23492483 301.33404986 404.62800967 C301.43749417 417.54298387 298.89686271 427.64362104 289.82883835 437.14260101 C280.65704598 445.89828182 270.64698721 448.75891509 258.17795944 448.65053558 C257.05742865 448.65677555 255.93689785 448.66301551 254.78241158 448.66944456 C251.05548088 448.6853048 247.32921054 448.67279702 243.60227585 448.66017914 C240.91900877 448.66560335 238.23578606 448.67258385 235.5525322 448.68141937 C229.03777915 448.6991476 222.52321109 448.69539019 216.00845098 448.68376881 C210.71083281 448.67471221 205.41326625 448.67352008 200.11564255 448.67786407 C199.35985991 448.67847701 198.60407727 448.67908994 197.82539213 448.67972144 C196.28973403 448.68100043 194.75407595 448.68229728 193.21841788 448.68361181 C178.83967224 448.69500091 164.46102882 448.68193018 150.08229995 448.66041034 C137.76143346 448.64254086 125.44071775 448.64564544 113.11985397 448.66408539 C98.7903667 448.68552168 84.46096889 448.69390243 70.13146782 448.68163633 C68.60165661 448.68036222 67.07184539 448.67910474 65.54203415 448.67786407 C64.78946063 448.67724697 64.03688712 448.67662987 63.26150835 448.67599407 C57.97409492 448.67254943 52.68673854 448.67835033 47.39933395 448.68778229 C40.95021225 448.69903439 34.50128513 448.69589515 28.05218554 448.67465931 C24.76563701 448.66419168 21.47947682 448.66212898 18.19292068 448.67325592 C14.62153278 448.68423017 11.05104805 448.67042345 7.47971725 448.65053558 C5.93985436 448.66391991 5.93985436 448.66391991 4.36888313 448.67757463 C-6.85901554 448.55678057 -16.03489892 444.90973273 -24.17116165 437.14260101 C-35.22450571 425.56394952 -35.75176501 413.32617761 -35.62526321 398.17702484 C-35.62413328 396.27394891 -35.62477144 394.37087124 -35.62703323 392.46779633 C-35.62817561 387.33002689 -35.60474365 382.19263497 -35.5767374 377.05495286 C-35.55164408 371.67514629 -35.54937551 366.29533 -35.54463577 360.91547394 C-35.53222925 350.74074987 -35.49943915 340.56619879 -35.45923781 330.39155072 C-35.41444767 318.80266512 -35.39251486 307.21377103 -35.37245607 295.62482035 C-35.33070442 271.79731494 -35.259587 247.969975 -35.17116165 224.14260101 C-29.89116165 224.14260101 -24.61116165 224.14260101 -19.17116165 224.14260101 C-19.1630748 226.42778152 -19.15498795 228.71296204 -19.14665604 231.06739044 C-19.06954133 252.59436117 -18.98157808 274.12126807 -18.88363457 295.64815426 C-18.8335405 306.71554372 -18.78709719 317.78292588 -18.74928665 328.85036469 C-18.71631672 338.49819678 -18.67645785 348.14597178 -18.6283716 357.79374081 C-18.60315637 362.90081818 -18.58136039 368.00785792 -18.56781769 373.1149807 C-18.55495218 377.92564285 -18.5328495 382.73617562 -18.50377846 387.54676628 C-18.49473773 389.3087219 -18.48902067 391.07069834 -18.48694801 392.83267593 C-18.70268613 408.87609324 -18.70268613 408.87609324 -12.17116165 423.14260101 C-12.17116165 423.80260101 -12.17116165 424.46260101 -12.17116165 425.14260101 C-2.83073453 429.99962312 4.84307908 431.29282025 15.20855331 431.27631378 C16.25271918 431.27857934 17.29688504 431.28084489 18.37269229 431.2831791 C21.87086225 431.28950825 25.36899337 431.28869043 28.86716843 431.28786469 C31.3755867 431.29085685 33.88400452 431.29425951 36.39242172 431.2980423 C42.49872234 431.30596257 48.60500873 431.3090967 54.711314 431.30965468 C59.67629368 431.3101303 64.64127018 431.31218737 69.60624886 431.3153553 C83.69161788 431.32415926 97.7769793 431.32877509 111.8623511 431.32802483 C113.000722 431.32796489 113.000722 431.32796489 114.1620903 431.32790375 C115.30185567 431.32784243 115.30185567 431.32784243 116.4646466 431.32777987 C128.77693111 431.32737348 141.08918502 431.33694186 153.40146068 431.35104211 C166.0521851 431.36541532 178.7028946 431.37231178 191.35362738 431.37144834 C198.45259912 431.37111669 205.55153879 431.37384953 212.65050316 431.38462639 C219.32764599 431.39469815 226.00470991 431.39438638 232.68185997 431.38710976 C235.13078536 431.38606394 237.57971496 431.38842659 240.02863312 431.39447021 C243.37522579 431.40219345 246.72158477 431.39754293 250.06817245 431.38983917 C251.03394693 431.39498274 251.9997214 431.4001263 252.99476177 431.40542573 C262.16180155 431.35889283 270.4756519 430.54039735 277.23508835 423.72463226 C282.88669081 417.33372134 283.94525987 410.60095229 283.96750355 402.28181648 C283.97297799 401.12731644 283.97845244 399.9728164 283.98409277 398.78333151 C283.98507088 397.52457752 283.98604899 396.26582353 283.98705673 394.96892548 C283.99162561 393.61081115 283.99662612 392.25269822 284.0020203 390.89458692 C284.01557365 387.16842985 284.02301163 383.44228189 284.02944696 379.71610665 C284.03746324 375.69571383 284.05115678 371.67533986 284.06415939 367.65496063 C284.08590473 360.6912991 284.10405632 353.72763564 284.11976433 346.76395798 C284.14248065 336.6956596 284.17062104 326.62738213 284.20008361 316.55910151 C284.2477379 300.22382542 284.29100795 283.88854078 284.3315239 267.55324554 C284.37088982 251.68540023 284.41231868 235.81756252 284.4565239 219.94972992 C284.4606103 218.48249261 284.4606103 218.48249261 284.46477927 216.98561414 C284.47845892 212.07846248 284.49217916 207.17131093 284.50591958 202.26415944 C284.61985038 161.55698913 284.72666725 120.84980243 284.82883835 80.14260101 C284.25778366 80.15148346 283.68672897 80.16036591 283.0983696 80.16951752 C277.12825708 80.25835142 271.15833385 80.31848407 265.18772507 80.36232758 C262.96271253 80.38238148 260.73775228 80.40963166 258.51292038 80.44435883 C255.3055947 80.49315036 252.09896884 80.51563263 248.89133835 80.53322601 C247.904561 80.55387115 246.91778366 80.5745163 245.90110397 80.59578705 C238.52419429 80.59815711 233.185809 79.08433662 227.58665085 74.17775726 C226.77840866 73.20129242 226.77840866 73.20129242 225.95383835 72.20510101 C225.39954147 71.55670258 224.8452446 70.90830414 224.27415085 70.24025726 C221.62016514 66.38839151 220.57668389 62.91725319 220.60178757 58.26052094 C220.60201416 56.8496244 220.60201416 56.8496244 220.60224533 55.41022491 C220.6125679 54.40796371 220.62289047 53.40570251 220.63352585 52.37306976 C220.63635574 51.33693039 220.63918564 50.30079102 220.64210129 49.23325348 C220.65327381 45.93208395 220.6783733 42.6311882 220.70383835 39.33010101 C220.71387192 37.08856848 220.72299711 34.84703168 220.7311821 32.60549164 C220.75320356 27.11776841 220.78665214 21.63020428 220.82883835 16.14260101 C192.82132486 16.22650736 164.81386896 16.32164322 136.8064394 16.4301281 C123.80195478 16.4802386 110.79747641 16.52668177 97.79294968 16.56447601 C86.45751663 16.5974288 75.12213233 16.63727829 63.78675312 16.68539107 C57.78541365 16.71062327 51.7841064 16.73241432 45.7827282 16.74594498 C40.13160132 16.75879497 34.48058509 16.78088124 28.82951927 16.80998421 C26.75795057 16.81903698 24.68636406 16.82474484 22.61477661 16.82681465 C19.78016773 16.83015343 16.94586946 16.84567454 14.11132431 16.86412811 C13.29709505 16.86219338 12.48286579 16.86025864 11.64396292 16.85826528 C2.85872222 16.94340529 -5.1353882 18.06486278 -11.57741165 24.56056976 C-14.20478687 27.53164232 -15.95235187 30.37537079 -17.17116165 34.14260101 C-23.02395665 33.62777182 -28.50092535 32.68902909 -34.17116165 31.14260101 C-33.99316479 23.13274206 -29.54563674 16.8656789 -24.28053665 11.05666351 C-17.65262184 4.88677534 -9.21824643 0.04408152 0 0 Z M236.82883835 29.14260101 C236.74144844 33.51747432 236.68831435 37.8921218 236.64133835 42.26760101 C236.61620163 43.50510101 236.59106491 44.74260101 236.56516647 46.01760101 C236.5554985 47.21642914 236.54583054 48.41525726 236.5358696 49.65041351 C236.52015915 50.75014496 236.5044487 51.8498764 236.48826218 52.98293304 C236.88994189 56.70948418 237.76525155 59.01506941 239.82883835 62.14260101 C243.55270997 64.36079026 246.95378339 64.37838352 251.2233696 64.33791351 C252.42542038 64.3314682 253.62747116 64.32502289 254.86594772 64.31838226 C256.11182663 64.30162445 257.35770554 64.28486664 258.64133835 64.26760101 C259.90655319 64.25857758 261.17176804 64.24955414 262.47532272 64.24025726 C265.59335399 64.21672495 268.71099932 64.18384647 271.82883835 64.14260101 C267.80546445 59.32007746 263.60080597 54.76618927 259.1530571 50.33400726 C258.5424292 49.72242264 257.9318013 49.11083801 257.30266953 48.48072052 C256.0257545 47.20313062 254.74759842 45.92677999 253.46824265 44.65163422 C251.50067269 42.68947846 249.53857103 40.72196581 247.57688522 38.75392914 C246.33176352 37.50946725 245.08633219 36.26531507 243.8405571 35.02150726 C243.25207489 34.43100082 242.66359268 33.84049438 242.05727768 33.23209381 C239.80828268 30.43838931 239.80828268 30.43838931 236.82883835 29.14260101 Z " fill="#000000" transform="translate(139.17116165161133,47.857398986816406)"/>
<path d="M0 0 C1.18142578 -0.01891296 1.18142578 -0.01891296 2.38671875 -0.03820801 C3.22847656 -0.03011108 4.07023438 -0.02201416 4.9375 -0.01367188 C6.24654297 -0.01941223 6.24654297 -0.01941223 7.58203125 -0.02526855 C9.42449092 -0.02798678 11.26698924 -0.02063182 13.109375 -0.00390625 C15.92795934 0.01750565 18.74399485 -0.00370989 21.5625 -0.02929688 C23.35417229 -0.02665358 25.14584299 -0.02152857 26.9375 -0.01367188 C27.77925781 -0.0217688 28.62101563 -0.02986572 29.48828125 -0.03820801 C30.27589844 -0.02559937 31.06351563 -0.01299072 31.875 0 C32.90947266 0.00477356 32.90947266 0.00477356 33.96484375 0.00964355 C37.11317783 0.82030062 38.09781984 1.80580111 39.9375 4.51757812 C40.52053971 7.97250508 40.44210385 11.38983788 40.39160156 14.88574219 C40.39218567 15.93971191 40.39276978 16.99368164 40.39337158 18.07958984 C40.39058414 21.56446224 40.35945968 25.04848009 40.328125 28.53320312 C40.32066499 30.94886813 40.31497093 33.36453918 40.31097412 35.7802124 C40.29569905 42.13928933 40.25640049 48.49800101 40.2121582 54.85693359 C40.17124624 61.34532734 40.15297178 67.83378008 40.1328125 74.32226562 C40.08990855 87.05419696 40.0216341 99.78585718 39.9375 112.51757812 C45.2175 112.51757812 50.4975 112.51757812 55.9375 112.51757812 C55.9375 117.79757812 55.9375 123.07757813 55.9375 128.51757812 C-12.7025 128.51757812 -81.3425 128.51757812 -152.0625 128.51757812 C-152.0625 123.23757813 -152.0625 117.95757812 -152.0625 112.51757812 C-146.7825 112.51757812 -141.5025 112.51757812 -136.0625 112.51757812 C-136.08344727 111.20563477 -136.10439453 109.89369141 -136.12597656 108.54199219 C-136.1983797 103.67426469 -136.24430113 98.80658478 -136.28222656 93.93847656 C-136.30234126 91.83162431 -136.32963667 89.72482787 -136.36425781 87.61816406 C-136.41278168 84.58970366 -136.43547016 81.56198134 -136.453125 78.53320312 C-136.47377014 77.59140198 -136.49441528 76.64960083 -136.51568604 75.67926025 C-136.51699566 71.86206105 -136.49558948 69.28568272 -134.60058594 65.92480469 C-130.79335004 63.81390552 -127.35158366 63.94507115 -123.0625 63.98632812 C-122.18980469 63.98250122 -121.31710938 63.97867432 -120.41796875 63.97473145 C-118.57550908 63.97201322 -116.73301076 63.97936818 -114.890625 63.99609375 C-112.07204066 64.01750565 -109.25600515 63.99629011 -106.4375 63.97070312 C-104.64582771 63.97334642 -102.85415701 63.97847143 -101.0625 63.98632812 C-100.22074219 63.9782312 -99.37898438 63.97013428 -98.51171875 63.96179199 C-94.96925257 64.01850189 -92.65462155 64.18927988 -89.52441406 65.92480469 C-87.22027653 70.01130111 -87.57084268 73.92425633 -87.671875 78.53320312 C-87.67753479 79.50416931 -87.68319458 80.4751355 -87.68902588 81.4755249 C-87.71139689 84.57337982 -87.76159527 87.67007346 -87.8125 90.76757812 C-87.83256403 92.86912391 -87.85081497 94.97068784 -87.8671875 97.07226562 C-87.9112642 102.22114982 -87.98029742 107.36916716 -88.0625 112.51757812 C-82.7825 112.51757812 -77.5025 112.51757812 -72.0625 112.51757812 C-72.0939209 109.09560059 -72.0939209 109.09560059 -72.12597656 105.60449219 C-72.19224175 98.06884321 -72.23643342 90.53318139 -72.26974869 82.99731827 C-72.29062765 78.42806849 -72.31895071 73.8591171 -72.36425781 69.29003906 C-72.40770488 64.8809694 -72.43163478 60.47218682 -72.44200897 56.06291962 C-72.44940243 54.38036326 -72.46384017 52.6978227 -72.48542023 51.01538849 C-72.51444003 48.65932712 -72.51845675 46.30445339 -72.51660156 43.94824219 C-72.53098267 43.25196716 -72.54536377 42.55569214 -72.56018066 41.83831787 C-72.53209084 38.54347432 -72.25095437 36.77587074 -70.2880249 34.08551025 C-67.90715855 32.4081366 -66.86552051 32.0132229 -64 32 C-62.81857422 31.98108704 -62.81857422 31.98108704 -61.61328125 31.96179199 C-60.77152344 31.96988892 -59.92976563 31.97798584 -59.0625 31.98632812 C-58.18980469 31.98250122 -57.31710937 31.97867432 -56.41796875 31.97473145 C-54.57550908 31.97201322 -52.73301076 31.97936818 -50.890625 31.99609375 C-48.07204066 32.01750565 -45.25600515 31.99629011 -42.4375 31.97070312 C-40.64582771 31.97334642 -38.85415701 31.97847143 -37.0625 31.98632812 C-36.22074219 31.9782312 -35.37898438 31.97013428 -34.51171875 31.96179199 C-33.72410156 31.97440063 -32.93648438 31.98700928 -32.125 32 C-31.09052734 32.00477356 -31.09052734 32.00477356 -30.03515625 32.00964355 C-27.01716645 32.78673858 -25.89132279 34.01102216 -24.0625 36.51757812 C-23.68795019 39.13876142 -23.55438804 41.33327675 -23.60839844 43.94824219 C-23.60781433 44.69009766 -23.60723022 45.43195313 -23.60662842 46.19628906 C-23.60940975 48.64240714 -23.64050214 51.0872986 -23.671875 53.53320312 C-23.67933726 55.2314182 -23.68503027 56.92964189 -23.68902588 58.62786865 C-23.70428349 63.09313822 -23.74356611 67.55788566 -23.7878418 72.02294922 C-23.82879193 76.58098284 -23.84703633 81.13910099 -23.8671875 85.69726562 C-23.91006064 94.63763587 -23.98041125 103.57748185 -24.0625 112.51757812 C-18.7825 112.51757812 -13.5025 112.51757812 -8.0625 112.51757812 C-8.07138245 111.17342834 -8.08026489 109.82927856 -8.0894165 108.44439697 C-8.17043073 95.78980478 -8.23043111 83.13526505 -8.26974869 70.48047256 C-8.29064165 63.97417663 -8.31899108 57.4680897 -8.36425781 50.96191406 C-8.4076537 44.68550303 -8.43162422 38.40929329 -8.44200897 32.13274384 C-8.44941153 29.73568298 -8.46386659 27.3386334 -8.48542023 24.94165802 C-8.51437016 21.58944207 -8.51845941 18.23806261 -8.51660156 14.88574219 C-8.53098267 13.89024353 -8.54536377 12.89474487 -8.56018066 11.86907959 C-8.52002101 5.1919861 -8.52002101 5.1919861 -6.2880249 1.9019165 C-3.93060674 0.43553685 -2.74581217 0.01267051 0 0 Z M7.9375 16.51757812 C7.9375 48.19757813 7.9375 79.87757813 7.9375 112.51757812 C13.2175 112.51757812 18.4975 112.51757812 23.9375 112.51757812 C23.9375 80.83757812 23.9375 49.15757812 23.9375 16.51757812 C18.6575 16.51757812 13.3775 16.51757812 7.9375 16.51757812 Z M-56.0625 48.51757812 C-56.0625 69.63757813 -56.0625 90.75757813 -56.0625 112.51757812 C-50.7825 112.51757812 -45.5025 112.51757812 -40.0625 112.51757812 C-40.0625 91.39757812 -40.0625 70.27757812 -40.0625 48.51757812 C-45.3425 48.51757812 -50.6225 48.51757812 -56.0625 48.51757812 Z M-120.0625 80.51757812 C-120.0625 91.07757813 -120.0625 101.63757813 -120.0625 112.51757812 C-114.7825 112.51757812 -109.5025 112.51757812 -104.0625 112.51757812 C-104.0625 101.95757812 -104.0625 91.39757812 -104.0625 80.51757812 C-109.3425 80.51757812 -114.6225 80.51757812 -120.0625 80.51757812 Z " fill="#000000" transform="translate(320.0625,183.482421875)"/>
<path d="M0 0 C1.1171131 -0.00453111 2.23422619 -0.00906223 3.3851912 -0.01373065 C7.12436968 -0.02637978 10.8634026 -0.02475391 14.6026001 -0.02310181 C17.28526347 -0.02908674 19.96791549 -0.03583577 22.65057373 -0.04345703 C29.17918995 -0.06004528 35.70777005 -0.0655656 42.23640558 -0.06668179 C47.54555093 -0.06763334 52.8546844 -0.07174899 58.16382599 -0.07808304 C73.22923547 -0.09568989 88.2946165 -0.10492284 103.36003634 -0.10342209 C104.17162535 -0.10334218 104.98321436 -0.10326227 105.81939697 -0.10317993 C106.63198149 -0.10309817 107.44456602 -0.10301641 108.28177431 -0.10293217 C121.44626166 -0.10211954 134.61063452 -0.12125295 147.77508876 -0.14945666 C161.30501011 -0.1782137 174.83487567 -0.19199539 188.36482835 -0.19026911 C195.95572894 -0.18960616 203.54650951 -0.19505671 211.13738251 -0.21662521 C217.60122131 -0.23487423 224.06488571 -0.239154 230.52873918 -0.22560637 C233.82337444 -0.21909516 237.11760754 -0.22108379 240.41222382 -0.23631287 C243.99256011 -0.25178764 247.57202571 -0.24244109 251.15234375 -0.22705078 C252.18164749 -0.23733791 253.21095123 -0.24762503 254.27144599 -0.25822389 C265.50984002 -0.15188394 274.68657134 3.49332015 282.83013916 11.26742554 C292.90503601 21.82112936 294.4272872 33.10243478 294.33807373 47.17025757 C294.34268946 48.76409028 294.34904688 50.35791872 294.35698271 51.95173836 C294.3736069 56.30677349 294.36546132 60.66145586 294.35303783 65.01649189 C294.34396123 69.72277979 294.35796999 74.42900842 294.36895752 79.13528442 C294.38671951 88.34512842 294.38291309 97.55484182 294.37130696 106.76469088 C294.36226378 114.2514735 294.36105246 121.73821959 294.36540222 129.2250061 C294.36601515 130.2916292 294.36662809 131.3582523 294.36725959 132.45719731 C294.36853853 134.6241994 294.36983538 136.79120148 294.37114996 138.95820355 C294.38254896 159.26567141 294.3694527 179.57306697 294.34794849 199.88052297 C294.33007814 217.29533398 294.33318244 234.71003833 294.35162354 252.12484741 C294.37304224 272.36095116 294.38145039 292.59699159 294.36917448 312.83310509 C294.36790032 314.99201837 294.36664284 317.15093167 294.36540222 319.30984497 C294.36447657 320.90307577 294.36447657 320.90307577 294.36353222 322.52849305 C294.36008232 330.00400638 294.36589989 337.47947947 294.37532043 344.95498657 C294.38655289 354.0684072 294.38347412 363.18169007 294.36219746 372.29509497 C294.35170387 376.94257277 294.34753635 381.58982109 294.36079407 386.23729706 C294.37275887 390.49603396 294.36608845 394.75432977 294.34488386 399.01302695 C294.34043505 400.54921846 294.34264515 402.08544763 294.35238701 403.62161469 C294.42419999 415.89187423 292.6164212 425.53457298 284.83013916 435.26742554 C281.35238737 433.7518915 278.87434076 431.69007993 276.08013916 429.14242554 C275.28092041 428.41797241 274.48170166 427.69351929 273.65826416 426.94711304 C273.05498291 426.39281616 272.45170166 425.83851929 271.83013916 425.26742554 C272.44043396 422.57978112 273.19280962 420.45141699 274.33013916 417.89242554 C276.55444225 412.5170264 276.9551084 407.58639981 276.95877361 401.80708599 C276.96199806 400.51880042 276.96522251 399.23051484 276.96854466 397.90319031 C276.96707365 396.48071259 276.96550594 395.05823497 276.96385193 393.63575745 C276.96572068 392.11906624 276.96802164 390.60237551 276.97071725 389.08568555 C276.9768337 384.9208325 276.97670184 380.75599953 276.97552288 376.59114301 C276.97531883 372.09818867 276.98083799 367.60524077 276.98558044 363.11228943 C276.99388667 354.31088255 276.99663527 345.50948238 276.99719282 336.70807191 C276.99766799 329.55392373 276.99972277 322.39977775 277.00289345 315.24563026 C277.01169989 294.96245855 277.01631283 274.67929213 277.01556297 254.39611848 C277.01552302 253.30266104 277.01548306 252.2092036 277.01544189 251.08261108 C277.01540101 249.98781865 277.01536013 248.89302622 277.01531801 247.76505826 C277.01491153 230.02089555 277.02448168 212.27675407 277.03858026 194.5325975 C277.05294225 176.31317265 277.05985054 158.09375814 277.05898649 139.87432748 C277.05865446 129.6454439 277.06140408 119.41658257 277.07216454 109.18770409 C277.08126719 100.47891804 277.08344671 91.77016432 277.07665511 83.06137558 C277.07338875 78.61878671 277.07333745 74.17625989 277.08200836 69.73367691 C277.08986907 65.66432738 277.08844631 61.59508913 277.07972423 57.52574233 C277.0781883 56.05605341 277.08000891 54.58635621 277.08558431 53.11667707 C277.12245044 42.70670222 277.13905033 33.88960414 270.83013916 25.26742554 C270.83013916 24.60742554 270.83013916 23.94742554 270.83013916 23.26742554 C270.29388916 22.99930054 269.75763916 22.73117554 269.20513916 22.45492554 C267.4546432 21.57967756 265.72846459 20.65538411 264.01763916 19.70492554 C257.45506968 16.74533538 250.39680185 17.12242572 243.33016968 17.13371277 C241.76263925 17.13031443 241.76263925 17.13031443 240.16344154 17.12684745 C236.66837762 17.12052689 233.17335268 17.12133556 229.67828369 17.12216187 C227.16971792 17.11916919 224.6611526 17.11576641 222.15258789 17.11198425 C216.04976649 17.10406883 209.94695932 17.10093011 203.84413327 17.10037187 C198.88203792 17.09989605 193.91994575 17.09783797 188.95785141 17.09467125 C174.87839053 17.0858693 160.79893726 17.08125122 146.71947362 17.08200172 C145.58195081 17.08206166 145.58195081 17.08206166 144.42144775 17.0821228 C143.28253064 17.08218412 143.28253064 17.08218412 142.1206051 17.08224668 C129.81485069 17.08265316 117.50912687 17.0730821 105.20338131 17.05898444 C92.55714529 17.0446114 79.91092419 17.03771474 67.26467979 17.03857821 C60.1690764 17.03890983 53.0735051 17.03617801 45.97790909 17.02540016 C39.30485687 17.01532875 32.63188361 17.01563998 25.95882416 17.02291679 C23.51151048 17.0239626 21.06419258 17.0216 18.61688614 17.01555634 C15.27253646 17.00783309 11.92842062 17.0124836 8.58407593 17.02018738 C7.61898358 17.01504381 6.65389122 17.00990025 5.65955365 17.00460082 C-1.19325014 17.0394101 -7.99524622 17.36265676 -13.98236084 20.95492554 C-16.16986084 22.26742554 -16.16986084 22.26742554 -18.00970459 22.16586304 C-21.1364157 20.86542261 -22.72517799 18.75463061 -24.91986084 16.20492554 C-25.71907959 15.28582397 -26.51829834 14.36672241 -27.34173584 13.41976929 C-27.94501709 12.70949585 -28.54829834 11.99922241 -29.16986084 11.26742554 C-27.93454335 7.56147307 -26.84366868 7.15331506 -23.54486084 5.20492554 C-22.70697021 4.69832397 -21.86907959 4.19172241 -21.00579834 3.66976929 C-13.99159732 0.20131451 -7.70555683 -0.02298697 0 0 Z " fill="#000000" transform="translate(178.16986083984375,15.732574462890625)"/>
<path d="M0 0 C1.27922927 1.07340623 2.55013137 2.15681479 3.8125 3.25 C5.0190625 4.16265625 5.0190625 4.16265625 6.25 5.09375 C18.92234837 15.75706753 28.88107274 34.90663809 30.8125 51.25 C32.53011627 74.41481581 29.21763685 96.83667222 13.76953125 115.109375 C13.12371094 115.81578125 12.47789062 116.5221875 11.8125 117.25 C11.01199219 118.14203125 10.21148437 119.0340625 9.38671875 119.953125 C-4.01723833 134.15239646 -22.78301617 143.87321223 -42.51953125 144.68359375 C-44.67955799 144.7072833 -46.8399417 144.70811186 -49 144.6875 C-50.14001465 144.67847656 -51.2800293 144.66945313 -52.45458984 144.66015625 C-71.08019406 144.27858177 -88.1219976 137.52284033 -102.1875 125.25 C-103.15558594 124.47785156 -104.12367187 123.70570313 -105.12109375 122.91015625 C-114.72163081 114.89617411 -120.76593272 103.74003866 -125.1875 92.25 C-125.83912109 90.58130859 -125.83912109 90.58130859 -126.50390625 88.87890625 C-133.02199162 68.87042817 -130.43230722 46.52277815 -121.375 27.875 C-118.26665425 21.78697482 -114.66955254 16.42570352 -110.1875 11.25 C-109.59066406 10.45722656 -108.99382812 9.66445312 -108.37890625 8.84765625 C-100.17885931 -0.87254199 -88.92737258 -7.29544315 -77.1875 -11.75 C-76.07632813 -12.183125 -74.96515625 -12.61625 -73.8203125 -13.0625 C-49.11342563 -21.1300549 -20.45783278 -15.7759407 0 0 Z M-94.9375 19.4375 C-108.42074448 34.06111839 -113.34384073 50.47892224 -112.609375 70.08984375 C-112.18813456 76.60132168 -110.79644459 82.23659656 -108.1875 88.25 C-107.82527344 89.12527344 -107.46304688 90.00054687 -107.08984375 90.90234375 C-100.80296222 104.73348313 -88.59990765 117.33412931 -74.36035156 122.97363281 C-57.09089713 129.27591766 -41.05746565 129.56042566 -23.61328125 122.86328125 C-7.55361196 115.30040392 4.8276274 102.28934878 11.22070312 85.67553711 C16.55547565 69.9757793 15.49407432 52.32160182 8.8125 37.25 C1.13748778 22.26182477 -11.27138827 10.43913464 -27 4.3125 C-51.73255781 -3.59313446 -75.76967251 2.03223136 -94.9375 19.4375 Z " fill="#000000" transform="translate(169.1875,111.75)"/>
<path d="M0 0 C0.85247314 -0.00700928 1.70494629 -0.01401855 2.58325195 -0.02124023 C5.3995832 -0.03883756 8.21490864 -0.02719147 11.03125 -0.01367188 C12.98893425 -0.01636629 14.9466172 -0.02024829 16.90429688 -0.02526855 C21.00664007 -0.03116595 25.10863482 -0.02259281 29.2109375 -0.00390625 C34.47045628 0.01888337 39.72915864 0.00576159 44.98864746 -0.01819611 C49.0309871 -0.03264751 53.07313305 -0.0280511 57.11547852 -0.01768494 C59.05476986 -0.01501583 60.99407877 -0.01829385 62.93334961 -0.02760315 C65.6435405 -0.03775789 68.35240775 -0.02228315 71.0625 0 C71.86469971 -0.00809692 72.66689941 -0.01619385 73.4934082 -0.02453613 C76.83059518 0.02631901 79.14515119 0.28516382 82.02819824 2.02062988 C84.17992939 5.59519827 84.08972046 8.93493567 84.04882812 12.98632812 C84.0558374 13.83880127 84.06284668 14.69127441 84.07006836 15.56958008 C84.08766568 18.38591132 84.0760196 21.20123676 84.0625 24.01757812 C84.06519442 25.97526238 84.06907642 27.93294533 84.07409668 29.890625 C84.07999408 33.99296819 84.07142093 38.09496294 84.05273438 42.19726562 C84.02994475 47.45678441 84.04306653 52.71548676 84.06702423 57.97497559 C84.08147563 62.01731523 84.07687923 66.05946118 84.06651306 70.10180664 C84.06384396 72.04109799 84.06712197 73.9804069 84.07643127 75.91967773 C84.08658602 78.62986863 84.07111128 81.33873587 84.04882812 84.04882812 C84.05692505 84.85102783 84.06502197 85.65322754 84.07336426 86.47973633 C84.02250912 89.81692331 83.76366431 92.13147931 82.02819824 95.01452637 C78.45362985 97.16625751 75.11389246 97.07604858 71.0625 97.03515625 C70.21002686 97.04216553 69.35755371 97.0491748 68.47924805 97.05639648 C65.6629168 97.07399381 62.84759136 97.06234772 60.03125 97.04882812 C58.07356575 97.05152254 56.1158828 97.05540454 54.15820312 97.0604248 C50.05585993 97.0663222 45.95386518 97.05774906 41.8515625 97.0390625 C36.59204372 97.01627288 31.33334136 97.02939466 26.07385254 97.05335236 C22.0315129 97.06780376 17.98936695 97.06320735 13.94702148 97.05284119 C12.00773014 97.05017208 10.06842123 97.0534501 8.12915039 97.0627594 C5.4189595 97.07291414 2.71009225 97.0574394 0 97.03515625 C-1.20329956 97.04730164 -1.20329956 97.04730164 -2.4309082 97.05969238 C-5.76809518 97.00883724 -8.08265119 96.74999243 -10.96569824 95.01452637 C-13.11742939 91.43995798 -13.02722046 88.10022058 -12.98632812 84.04882812 C-12.9933374 83.19635498 -13.00034668 82.34388184 -13.00756836 81.46557617 C-13.02516568 78.64924493 -13.0135196 75.83391949 -13 73.01757812 C-13.00269442 71.05989387 -13.00657642 69.10221092 -13.01159668 67.14453125 C-13.01749408 63.04218806 -13.00892093 58.94019331 -12.99023438 54.83789062 C-12.96744475 49.57837184 -12.98056653 44.31966949 -13.00452423 39.06018066 C-13.01897563 35.01784102 -13.01437923 30.97569507 -13.00401306 26.93334961 C-13.00134396 24.99405826 -13.00462197 23.05474935 -13.01393127 21.11547852 C-13.02408602 18.40528762 -13.00861128 15.69642038 -12.98632812 12.98632812 C-12.99442505 12.18412842 -13.00252197 11.38192871 -13.01086426 10.55541992 C-12.96000912 7.21823294 -12.70116431 4.90367694 -10.96569824 2.02062988 C-7.39112985 -0.13110126 -4.05139246 -0.04089233 0 0 Z M3.53125 16.51757812 C3.53125 37.63757813 3.53125 58.75757813 3.53125 80.51757812 C24.65125 80.51757812 45.77125 80.51757812 67.53125 80.51757812 C67.53125 59.39757812 67.53125 38.27757812 67.53125 16.51757812 C46.41125 16.51757812 25.29125 16.51757812 3.53125 16.51757812 Z " fill="#000000" transform="translate(180.46875,343.482421875)"/>
<path d="M0 0 C5.28 0 10.56 0 16 0 C16 2.64 16 5.28 16 8 C16.99 7.9175 17.98 7.835 19 7.75 C24.64257544 7.79550464 28.91861323 10.0451289 32.9921875 13.87109375 C38.62909094 20.05765374 40 23.37702219 40 32 C34.39 32 28.78 32 23 32 C22.34 30.35 21.68 28.7 21 27 C16.94654809 24.52620214 12.61718389 24.69888726 8 24.75 C7.30132812 24.74226563 6.60265625 24.73453125 5.8828125 24.7265625 C1.83594904 24.74183368 -1.41160252 25.06987711 -5 27 C-6.39935013 29.79870027 -6.25265405 31.90498792 -6 35 C-4.14657225 37.55949546 -3.06243607 37.97918798 0 39 C1.67888875 39.10242931 3.36108937 39.15478231 5.04296875 39.17578125 C6.03490234 39.19962891 7.02683594 39.22347656 8.04882812 39.24804688 C10.12154335 39.29061041 12.19451969 39.3220785 14.26757812 39.34179688 C21.93658245 39.55468725 27.40792697 40.85224262 33.2421875 45.96484375 C33.78101563 46.61582031 34.31984375 47.26679688 34.875 47.9375 C35.70644531 48.91009766 35.70644531 48.91009766 36.5546875 49.90234375 C41.03412097 56.40357557 40.67463728 63.37140917 40 71 C38.29438497 77.75768995 33.4963013 82.0157334 28 86 C23.9850759 88.25227449 20.56141107 88.17887887 16 88 C16 90.64 16 93.28 16 96 C10.72 96 5.44 96 0 96 C0 93.36 0 90.72 0 88 C-0.99 88.0825 -1.98 88.165 -3 88.25 C-8.64257544 88.20449536 -12.91861323 85.9548711 -16.9921875 82.12890625 C-22.62909094 75.94234626 -24 72.62297781 -24 64 C-18.39 64 -12.78 64 -7 64 C-6.34 65.65 -5.68 67.3 -5 69 C-0.94654809 71.47379786 3.38281611 71.30111274 8 71.25 C8.69867188 71.25773437 9.39734375 71.26546875 10.1171875 71.2734375 C14.16405096 71.25816632 17.41160252 70.93012289 21 69 C22.39935013 66.20129973 22.25265405 64.09501208 22 61 C20.14657225 58.44050454 19.06243607 58.02081202 16 57 C14.32111125 56.89757069 12.63891063 56.84521769 10.95703125 56.82421875 C9.96509766 56.80037109 8.97316406 56.77652344 7.95117188 56.75195312 C5.87845665 56.70938959 3.80548031 56.6779215 1.73242188 56.65820312 C-5.93658245 56.44531275 -11.40792697 55.14775738 -17.2421875 50.03515625 C-17.78101562 49.38417969 -18.31984375 48.73320312 -18.875 48.0625 C-19.42929688 47.41410156 -19.98359375 46.76570313 -20.5546875 46.09765625 C-25.03412097 39.59642443 -24.67463728 32.62859083 -24 25 C-22.29438497 18.24231005 -17.4963013 13.9842666 -12 10 C-7.9850759 7.74772551 -4.56141107 7.82112113 0 8 C0 5.36 0 2.72 0 0 Z " fill="#000000" transform="translate(112,128)"/>
<path d="M0 0 C31.68 0 63.36 0 96 0 C96 5.28 96 10.56 96 16 C64.32 16 32.64 16 0 16 C0 10.72 0 5.44 0 0 Z " fill="#000000" transform="translate(296,408)"/>
<path d="M0 0 C31.68 0 63.36 0 96 0 C96 5.28 96 10.56 96 16 C64.32 16 32.64 16 0 16 C0 10.72 0 5.44 0 0 Z " fill="#000000" transform="translate(296,376)"/>
<path d="M0 0 C31.68 0 63.36 0 96 0 C96 5.28 96 10.56 96 16 C64.32 16 32.64 16 0 16 C0 10.72 0 5.44 0 0 Z " fill="#000000" transform="translate(296,344)"/>
<path d="M0 0 C31.68 0 63.36 0 96 0 C96 5.28 96 10.56 96 16 C64.32 16 32.64 16 0 16 C0 10.72 0 5.44 0 0 Z " fill="#000000" transform="translate(224,128)"/>
<path d="M0 0 C21.12 0 42.24 0 64 0 C64 5.28 64 10.56 64 16 C42.88 16 21.76 16 0 16 C0 10.72 0 5.44 0 0 Z " fill="#000000" transform="translate(256,96)"/>
<path d="M0 0 C5.28 0 10.56 0 16 0 C16 5.28 16 10.56 16 16 C10.72 16 5.44 16 0 16 C0 10.72 0 5.44 0 0 Z " fill="#000000" transform="translate(224,96)"/>
</svg>
