<?xml version="1.0" encoding="UTF-8"?>
<svg version="1.1" xmlns="http://www.w3.org/2000/svg" width="512" height="512">
<path d="M0 0 C1.50433594 -0.10828125 1.50433594 -0.10828125 3.0390625 -0.21875 C12.31750923 1.78035328 20.29045532 13.26940206 26.8984375 19.890625 C28.09275996 21.08427261 29.28723073 22.27777184 30.48184204 23.47113037 C32.96950142 25.95732417 35.45536487 28.4452958 37.93994141 30.93457031 C41.12419467 34.12455139 44.31295888 37.30997967 47.50305748 40.49411392 C49.96350801 42.95095445 52.42157631 45.41016722 54.87892532 47.87010956 C56.05436448 49.04621515 57.23054517 50.22158012 58.40748215 51.39618683 C60.0467094 53.032877 61.6827015 54.67273384 63.31787109 56.31347656 C64.24860443 57.24500549 65.17933777 58.17653442 66.13827515 59.1362915 C69.38916355 62.57173978 70.69151951 64.69234328 70.8125 69.375 C70.85246094 70.21804687 70.89242188 71.06109375 70.93359375 71.9296875 C70.375 74.5 70.375 74.5 65.375 79.5 C57.125 79.5 48.875 79.5 40.375 79.5 C40.705 103.26 41.035 127.02 41.375 151.5 C48.305 148.2 55.235 144.9 62.375 141.5 C78.01293691 135.65166587 94.58980899 131.2934068 111.37109375 131.40234375 C112.20463882 131.4037587 113.0381839 131.40517365 113.89698792 131.40663147 C116.53552986 131.41218832 119.17398409 131.4247326 121.8125 131.4375 C123.61132689 131.44252058 125.41015513 131.44708251 127.20898438 131.45117188 C131.59768958 131.46214357 135.98632996 131.47937804 140.375 131.5 C140.34881592 130.76885986 140.32263184 130.03771973 140.2956543 129.28442383 C140.19149856 125.96066918 140.12661379 122.63725806 140.0625 119.3125 C140.02060547 118.16201172 139.97871094 117.01152344 139.93554688 115.82617188 C139.81227473 107.3203942 139.81227473 107.3203942 142.6015625 103.25390625 C146.23427536 100.9565991 148.34743776 100.49107308 152.58203125 100.82174683 C155.97622539 101.64600343 157.39889083 102.88939701 159.92578125 105.28173828 C160.79565674 106.10031311 161.66553223 106.91888794 162.56176758 107.76226807 C163.49013428 108.6657196 164.41850098 109.56917114 165.375 110.5 C165.85133881 110.96280113 166.32767761 111.42560226 166.81845093 111.90242767 C170.53656007 115.524902 174.20823828 119.19286222 177.875 122.8671875 C179.04404401 124.03555611 180.21323628 125.20377639 181.38256836 126.37185669 C183.81119476 128.79902131 186.23803464 131.22795386 188.66357422 133.65820312 C191.77153524 136.77190539 194.88402556 139.88103561 197.99783325 142.98888969 C200.4033777 145.39082523 202.80654126 147.79513144 205.20898438 150.20016861 C206.35651286 151.34836314 207.5047818 152.49581814 208.65380859 153.64251328 C210.25210558 155.2382735 211.84716737 156.83719864 213.44140625 158.43701172 C214.34834229 159.34474335 215.25527832 160.25247498 216.18969727 161.18771362 C219.23396982 164.40888287 220.74477986 166.66384111 221.0625 171.0625 C220.88841295 175.6969455 219.78105372 177.72052382 216.60498047 181.05859375 C215.78471375 181.92734131 214.96444702 182.79608887 214.11932373 183.69116211 C213.2136969 184.61807861 212.30807007 185.54499512 211.375 186.5 C210.91192696 186.97615753 210.44885391 187.45231506 209.97174835 187.94290161 C206.34949811 191.66117193 202.68210973 195.33326627 199.0078125 199 C197.83944389 200.16904401 196.67122361 201.33823628 195.50314331 202.50756836 C193.07597869 204.93619476 190.64704614 207.36303464 188.21679688 209.78857422 C185.10309461 212.89653524 181.99396439 216.00902556 178.88611031 219.12283325 C176.48417477 221.5283777 174.07986856 223.93154126 171.67483139 226.33398438 C170.52663686 227.48151286 169.37918186 228.6297818 168.23248672 229.77880859 C166.6367265 231.37710558 165.03780136 232.97216737 163.43798828 234.56640625 C162.53025665 235.47334229 161.62252502 236.38027832 160.68728638 237.31469727 C157.27309 240.5413965 155.14930981 241.81738105 150.5 241.9375 C149.65695312 241.97746094 148.81390625 242.01742187 147.9453125 242.05859375 C143.89782505 241.17897262 142.69755378 239.95701611 140.375 236.5 C139.76399455 232.21270244 139.90521723 228.00672692 140.0625 223.6875 C140.08505859 222.51767578 140.10761719 221.34785156 140.13085938 220.14257812 C140.18967909 217.26041231 140.27182859 214.38086319 140.375 211.5 C136.0910895 211.69061988 131.80895946 211.90344186 127.52709961 212.13476562 C126.07784305 212.21017617 124.62828563 212.28005815 123.1784668 212.34375 C109.79059886 212.93855982 96.99947788 214.91834791 85 221.3125 C84.00359497 221.82635254 84.00359497 221.82635254 82.98706055 222.35058594 C77.64248179 225.18379368 72.94761966 228.54020565 68.375 232.5 C67.57449219 233.10199219 66.77398437 233.70398438 65.94921875 234.32421875 C63.02233713 236.79807772 60.69046621 239.53261131 58.375 242.5625 C57.94074707 243.12670654 57.50649414 243.69091309 57.05908203 244.2722168 C53.29538728 249.31472041 50.61541243 254.61596947 48.375 260.5 C50.1075 260.9640625 50.1075 260.9640625 51.875 261.4375 C81.05300245 271.28564839 105.00225622 297.2297874 118.375 324.19140625 C121.65836162 331.10924944 124.25855281 338.14383658 126.375 345.5 C126.69041748 346.57797852 126.69041748 346.57797852 127.01220703 347.67773438 C136.09249904 380.26038154 130.66069744 416.38917319 114.625 445.8125 C97.54092068 475.90558699 69.61635035 497.93610661 36.375 507.5 C35.65634766 507.71027832 34.93769531 507.92055664 34.19726562 508.13720703 C1.51083194 517.24642277 -34.87911278 511.73270217 -64.40429688 495.61987305 C-74.47402241 489.8726074 -83.21344013 482.42434857 -91.625 474.5 C-92.28886719 473.90058594 -92.95273438 473.30117188 -93.63671875 472.68359375 C-105.25280784 461.77436607 -120.47646293 442.36361517 -121.9375 426 C-121.60160172 422.23793927 -120.91158046 420.46408578 -118.625 417.5 C-115.60292605 415.48528403 -114.70773301 415.16280966 -111.25 415.0625 C-110.49976563 415.02253906 -109.74953125 414.98257812 -108.9765625 414.94140625 C-105.37530271 415.796855 -103.96781727 417.68264079 -101.625 420.5 C-100.17902556 422.94529572 -98.99482035 425.48143457 -97.8125 428.0625 C-91.02390785 442.15039456 -82.16740677 454.91805321 -69.625 464.5 C-67.99003425 461.4046765 -66.68701166 458.20667304 -65.36767578 454.96704102 C-62.11280364 447.11926404 -58.4723265 440.76420906 -52.625 434.5 C-51.94824219 433.73300781 -51.27148438 432.96601563 -50.57421875 432.17578125 C-40.28254226 421.09388463 -26.47742859 414.13242671 -11.625 411.5 C-12.98431641 410.97212891 -12.98431641 410.97212891 -14.37109375 410.43359375 C-29.30541479 404.38084776 -39.17862708 396.19191185 -46.36328125 381.52734375 C-51.33932258 369.5879257 -51.80667816 354.27157795 -46.953125 342.171875 C-39.83896853 327.85986609 -30.28263227 318.27679323 -15.125 312.5625 C-1.70909716 309.0891271 13.1928399 310.5406515 25.296875 317.078125 C37.21010433 324.2260626 46.37737058 334.66306261 49.9375 348.4140625 C52.39404123 365.74145152 49.96582862 380.28124924 39.375 394.5 C32.60471633 403.02121911 22.57578162 408.16512909 12.375 411.5 C13.22320312 411.70753906 14.07140625 411.91507812 14.9453125 412.12890625 C30.12546198 416.11578067 41.45442813 422.33457226 52.375 433.5 C53.04144531 434.13421875 53.70789063 434.7684375 54.39453125 435.421875 C61.90887727 443.08888267 66.73681462 454.20170274 69.375 464.5 C86.82651746 455.77424127 97.33621153 433.09900298 103.75 415.7890625 C110.56034398 394.70704181 111.12051295 370.67326167 104.375 349.5 C104.01277344 348.36046875 103.65054687 347.2209375 103.27734375 346.046875 C98.11335936 331.55270864 90.39369438 319.09814851 80.375 307.5 C79.73046875 306.75234375 79.0859375 306.0046875 78.421875 305.234375 C64.19190042 290.01448915 45.22989169 280.79750906 25.375 275.5 C24.05628906 275.14808594 24.05628906 275.14808594 22.7109375 274.7890625 C-3.96390492 268.63332963 -33.39265846 274.40699281 -56.625 288.5 C-60.82160703 291.28781697 -64.75217389 294.28002172 -68.625 297.5 C-69.48609375 298.20898438 -70.3471875 298.91796875 -71.234375 299.6484375 C-85.25078258 311.70603036 -94.6592057 326.57411234 -102.3359375 343.20703125 C-103.625 345.5 -103.625 345.5 -106.625 347.5 C-111.18551995 348.23446576 -114.64411074 348.09262059 -118.625 345.6875 C-121.17029047 342.90358855 -121.57564466 341.05730402 -121.90625 337.32421875 C-121.56413989 332.67247158 -120.17927952 329.44371134 -118.125 325.3125 C-117.5825061 324.19657471 -117.5825061 324.19657471 -117.02905273 323.05810547 C-103.66708428 296.1951925 -80.37355329 273.27816291 -52.625 261.5 C-49.6328125 260.7578125 -49.6328125 260.7578125 -47.625 260.5 C-51.29012017 252.44818913 -54.81234648 245.54047756 -61.12109375 239.171875 C-62.625 237.5 -62.625 237.5 -62.625 235.5 C-63.21667969 235.23445312 -63.80835938 234.96890625 -64.41796875 234.6953125 C-66.6818542 233.46920817 -68.1139407 232.17759885 -69.9375 230.375 C-89.27091347 213.16179358 -115.15383776 212.46163823 -139.625 211.5 C-139.59881592 212.23114014 -139.57263184 212.96228027 -139.5456543 213.71557617 C-139.44149856 217.03933082 -139.37661379 220.36274194 -139.3125 223.6875 C-139.27060547 224.83798828 -139.22871094 225.98847656 -139.18554688 227.17382812 C-139.06227473 235.6796058 -139.06227473 235.6796058 -141.8515625 239.74609375 C-145.48427536 242.0434009 -147.59743776 242.50892692 -151.83203125 242.17825317 C-155.22622539 241.35399657 -156.64889083 240.11060299 -159.17578125 237.71826172 C-160.04565674 236.89968689 -160.91553223 236.08111206 -161.81176758 235.23773193 C-162.74013428 234.3342804 -163.66850098 233.43082886 -164.625 232.5 C-165.33950821 231.8057983 -165.33950821 231.8057983 -166.06845093 231.09757233 C-169.78656007 227.475098 -173.45823828 223.80713778 -177.125 220.1328125 C-178.29404401 218.96444389 -179.46323628 217.79622361 -180.63256836 216.62814331 C-183.06119476 214.20097869 -185.48803464 211.77204614 -187.91357422 209.34179688 C-191.02153524 206.22809461 -194.13402556 203.11896439 -197.24783325 200.01111031 C-199.6533777 197.60917477 -202.05654126 195.20486856 -204.45898438 192.79983139 C-205.60651286 191.65163686 -206.7547818 190.50418186 -207.90380859 189.35748672 C-209.50210558 187.7617265 -211.09716737 186.16280136 -212.69140625 184.56298828 C-213.59834229 183.65525665 -214.50527832 182.74752502 -215.43969727 181.81228638 C-218.48396982 178.59111713 -219.99477986 176.33615889 -220.3125 171.9375 C-220.13841295 167.3030545 -219.03105372 165.27947618 -215.85498047 161.94140625 C-215.03471375 161.07265869 -214.21444702 160.20391113 -213.36932373 159.30883789 C-212.4636969 158.38192139 -211.55807007 157.45500488 -210.625 156.5 C-210.16192696 156.02384247 -209.69885391 155.54768494 -209.22174835 155.05709839 C-205.59949811 151.33882807 -201.93210973 147.66673373 -198.2578125 144 C-197.08944389 142.83095599 -195.92122361 141.66176372 -194.75314331 140.49243164 C-192.32597869 138.06380524 -189.89704614 135.63696536 -187.46679688 133.21142578 C-184.35309461 130.10346476 -181.24396439 126.99097444 -178.13611031 123.87716675 C-175.73417477 121.4716223 -173.32986856 119.06845874 -170.92483139 116.66601562 C-169.77663686 115.51848714 -168.62918186 114.3702182 -167.48248672 113.22119141 C-165.8867265 111.62289442 -164.28780136 110.02783263 -162.68798828 108.43359375 C-161.32639084 107.0731897 -161.32639084 107.0731897 -159.93728638 105.68530273 C-156.52309 102.4586035 -154.39930981 101.18261895 -149.75 101.0625 C-148.90695313 101.02253906 -148.06390625 100.98257813 -147.1953125 100.94140625 C-143.14782505 101.82102738 -141.94755378 103.04298389 -139.625 106.5 C-139.01399455 110.78729756 -139.15521723 114.99327308 -139.3125 119.3125 C-139.33505859 120.48232422 -139.35761719 121.65214844 -139.38085938 122.85742188 C-139.43967909 125.73958769 -139.52182859 128.61913681 -139.625 131.5 C-138.0318396 131.47643433 -138.0318396 131.47643433 -136.40649414 131.45239258 C-132.37890534 131.39714614 -128.35134815 131.36331428 -124.32348633 131.33520508 C-122.5965406 131.32033002 -120.86963115 131.30002364 -119.14282227 131.27368164 C-107.27174305 131.09742981 -96.22915572 131.96205332 -84.625 134.5 C-83.72676514 134.69360107 -82.82853027 134.88720215 -81.90307617 135.08666992 C-79.81289372 135.57013979 -77.75192136 136.10454697 -75.6875 136.6875 C-74.95934082 136.89109131 -74.23118164 137.09468262 -73.48095703 137.30444336 C-61.98261475 140.69144703 -51.31086817 146.15706591 -40.625 151.5 C-40.13 115.86 -40.13 115.86 -39.625 79.5 C-47.875 79.5 -56.125 79.5 -64.625 79.5 C-70.38309199 73.74190801 -70.38309199 73.74190801 -70.5 69.8125 C-70.14672904 65.29143662 -68.94368655 63.22397042 -65.84545898 59.95141602 C-65.02689423 59.0815506 -64.20832947 58.21168518 -63.36495972 57.31546021 C-62.46077301 56.38635834 -61.5565863 55.45725647 -60.625 54.5 C-60.16120564 54.02266796 -59.69741127 53.54533592 -59.21956253 53.05353928 C-55.586386 49.32470241 -51.90769663 45.64231904 -48.22265625 41.96484375 C-47.05189197 40.79340415 -45.88127602 39.62181629 -44.71080017 38.4500885 C-42.2794393 36.01726602 -39.84631074 33.5862298 -37.41186523 31.15649414 C-34.28909327 28.03946973 -31.17090154 24.91790762 -28.05397892 21.79503536 C-25.64779234 19.38524472 -23.23924111 16.97782893 -20.82995415 14.57113838 C-19.6781415 13.41999281 -18.52707122 12.26810394 -17.37675667 11.11546135 C-15.77839426 9.51456952 -14.17687981 7.91690038 -12.57446289 6.32006836 C-11.66451065 5.41091171 -10.75455841 4.50175507 -9.81703186 3.56504822 C-6.54129328 0.47907204 -4.43343427 0.22447768 0 0 Z M-2.11831665 26.74607849 C-2.70011688 27.32930374 -3.28191711 27.91252899 -3.88134766 28.51342773 C-4.87214828 29.49961342 -4.87214828 29.49961342 -5.88296509 30.50572205 C-6.95023331 31.58376854 -6.95023331 31.58376854 -8.0390625 32.68359375 C-9.13352188 33.77874046 -9.13352188 33.77874046 -10.25009155 34.89601135 C-11.79409706 36.44304294 -13.33566641 37.99250912 -14.875 39.54418945 C-17.24167716 41.92911299 -19.6162484 44.30594768 -21.9921875 46.68164062 C-23.48745207 48.18182047 -24.98225942 49.68245618 -26.4765625 51.18359375 C-27.19212311 51.90026718 -27.90768372 52.61694061 -28.64492798 53.35533142 C-29.62627213 54.34624535 -29.62627213 54.34624535 -30.62744141 55.35717773 C-31.20765045 55.94119858 -31.7878595 56.52521942 -32.38565063 57.12693787 C-33.7366729 58.31544256 -33.7366729 58.31544256 -33.625 59.5 C-33.01011719 59.56058594 -32.39523438 59.62117188 -31.76171875 59.68359375 C-30.95347656 59.76738281 -30.14523438 59.85117187 -29.3125 59.9375 C-28.51199219 60.01871094 -27.71148437 60.09992187 -26.88671875 60.18359375 C-24.625 60.5 -24.625 60.5 -21.625 61.5 C-20.67709678 64.34370967 -20.49122803 66.12911908 -20.47109985 69.07907104 C-20.46249939 70.01835449 -20.45389893 70.95763794 -20.44503784 71.92538452 C-20.43864792 73.46834702 -20.43864792 73.46834702 -20.43212891 75.04248047 C-20.41986267 76.66969025 -20.41986267 76.66969025 -20.40734863 78.32977295 C-20.38250143 81.92557216 -20.36598237 85.52133198 -20.3515625 89.1171875 C-20.34623882 90.34384251 -20.34091515 91.57049751 -20.33543015 92.83432388 C-20.31146044 98.65475362 -20.29221636 104.4751671 -20.2794081 110.29563224 C-20.26583651 116.34260946 -20.23949119 122.3892178 -20.19287109 128.43603516 C-20.14366126 134.92342662 -20.11879573 141.41047442 -20.11167526 147.89804459 C-20.10494712 150.37243524 -20.08968486 152.84681777 -20.06578445 155.32110214 C-20.03426653 158.78072144 -20.03407644 162.23900608 -20.04150391 165.69873047 C-20.02509857 166.72332367 -20.00869324 167.74791687 -19.99179077 168.80355835 C-20.0330624 173.49173566 -20.08860379 175.76805461 -22.92318726 179.63601685 C-25.87100399 181.66971838 -27.93390368 182.22636604 -31.5234375 181.984375 C-35.45249291 181.07879345 -38.40028322 178.83353619 -41.625 176.5 C-72.96922763 155.06231807 -105.68571631 151.55612334 -142.67700195 150.84106445 C-143.44412506 150.82490082 -144.21124817 150.80873718 -145.00161743 150.79208374 C-146.45374657 150.76212059 -147.90596516 150.73614388 -149.35824585 150.7147522 C-152.37611144 150.65170571 -154.73841186 150.46219605 -157.625 149.5 C-158.285 145.54 -158.945 141.58 -159.625 137.5 C-164.36731852 141.48386249 -168.8570959 145.59387503 -173.21484375 149.9921875 C-173.80423233 150.58299103 -174.39362091 151.17379456 -175.00086975 151.78250122 C-176.85713727 153.64430404 -178.70987085 155.50957745 -180.5625 157.375 C-181.83114672 158.64867011 -183.1000249 159.92210971 -184.36914062 161.1953125 C-187.45710554 164.29422043 -190.54190929 167.39624301 -193.625 170.5 C-192.29685252 173.44504774 -190.8514428 175.52246655 -188.56811523 177.79980469 C-187.95085068 178.42014587 -187.33358612 179.04048706 -186.69761658 179.67962646 C-186.03298904 180.33706848 -185.36836151 180.9945105 -184.68359375 181.671875 C-183.65928001 182.6955014 -183.65928001 182.6955014 -182.61427307 183.73980713 C-181.17335568 185.17770822 -179.73001339 186.61318287 -178.28442383 188.04638672 C-176.06206221 190.25043418 -173.8478644 192.46243693 -171.63476562 194.67578125 C-170.23484722 196.07078654 -168.83447237 197.46533397 -167.43359375 198.859375 C-166.76694199 199.52491394 -166.10029022 200.19045288 -165.41343689 200.87615967 C-164.79932449 201.48389221 -164.1852121 202.09162476 -163.55249023 202.71777344 C-163.01003159 203.25642029 -162.46757294 203.79506714 -161.90867615 204.35003662 C-160.78810069 205.61120824 -160.78810069 205.61120824 -159.625 205.5 C-159.56441406 204.88511719 -159.50382812 204.27023438 -159.44140625 203.63671875 C-159.35761719 202.82847656 -159.27382812 202.02023438 -159.1875 201.1875 C-159.10628906 200.38699219 -159.02507812 199.58648437 -158.94140625 198.76171875 C-158.625 196.5 -158.625 196.5 -157.625 193.5 C-154.79620493 192.55706831 -152.9911547 192.35855653 -150.05615234 192.32299805 C-148.6672731 192.30374519 -148.6672731 192.30374519 -147.25033569 192.28410339 C-145.74583359 192.27302299 -145.74583359 192.27302299 -144.2109375 192.26171875 C-143.16789459 192.253647 -142.12485168 192.24557526 -141.05020142 192.23725891 C-138.83263815 192.22341115 -136.61505351 192.2126921 -134.39746094 192.20483398 C-132.15748736 192.19340555 -129.91753899 192.17310219 -127.67773438 192.14331055 C-96.87333441 191.73377493 -70.81559937 199.68570354 -48.11376953 221.01123047 C-38.86482712 230.26017288 -32.39808368 241.87712953 -26.625 253.5 C-26.0165625 253.4292627 -25.408125 253.35852539 -24.78125 253.28564453 C-17.09415272 252.48160807 -9.44927188 252.34620788 -1.72753906 252.36962891 C0.37181822 252.37499187 2.47096164 252.36964886 4.5703125 252.36328125 C12.22244448 252.35990253 19.76990113 252.61582669 27.375 253.5 C28.10203125 252.06720703 28.10203125 252.06720703 28.84375 250.60546875 C33.0804993 242.38181878 37.58219202 234.75529205 43.375 227.5 C44.27798828 226.34951172 44.27798828 226.34951172 45.19921875 225.17578125 C57.19568419 210.76493283 74.53693417 200.75505255 92.375 195.5 C93.27935791 195.22639648 94.18371582 194.95279297 95.11547852 194.67089844 C106.04802195 191.83891914 116.97985161 192.11326713 128.20141602 192.21875 C131.59337222 192.25028704 134.98486387 192.25976942 138.37695312 192.265625 C140.53646404 192.27478204 142.69597023 192.28515362 144.85546875 192.296875 C145.86788132 192.30112488 146.88029388 192.30537476 147.92338562 192.30975342 C148.85898819 192.31936096 149.79459076 192.32896851 150.75854492 192.33886719 C151.99093147 192.34910919 151.99093147 192.34910919 153.24821472 192.35955811 C155.375 192.5 155.375 192.5 158.375 193.5 C159.035 197.46 159.695 201.42 160.375 205.5 C165.11731852 201.51613751 169.6070959 197.40612497 173.96484375 193.0078125 C174.55423233 192.41700897 175.14362091 191.82620544 175.75086975 191.21749878 C177.60713727 189.35569596 179.45987085 187.49042255 181.3125 185.625 C182.58114672 184.35132989 183.8500249 183.07789029 185.11914062 181.8046875 C188.20710554 178.70577957 191.29190929 175.60375699 194.375 172.5 C193.04685252 169.55495226 191.6014428 167.47753345 189.31811523 165.20019531 C188.70085068 164.57985413 188.08358612 163.95951294 187.44761658 163.32037354 C186.78298904 162.66293152 186.11836151 162.0054895 185.43359375 161.328125 C184.40928001 160.3044986 184.40928001 160.3044986 183.36427307 159.26019287 C181.92335568 157.82229178 180.48001339 156.38681713 179.03442383 154.95361328 C176.81206221 152.74956582 174.5978644 150.53756307 172.38476562 148.32421875 C170.98484722 146.92921346 169.58447237 145.53466603 168.18359375 144.140625 C167.51694199 143.47508606 166.85029022 142.80954712 166.16343689 142.12384033 C165.54932449 141.51610779 164.9352121 140.90837524 164.30249023 140.28222656 C163.76003159 139.74357971 163.21757294 139.20493286 162.65867615 138.64996338 C161.53810069 137.38879176 161.53810069 137.38879176 160.375 137.5 C160.31441406 138.11488281 160.25382812 138.72976562 160.19140625 139.36328125 C160.10761719 140.17152344 160.02382813 140.97976562 159.9375 141.8125 C159.85628906 142.61300781 159.77507812 143.41351563 159.69140625 144.23828125 C159.375 146.5 159.375 146.5 158.375 149.5 C154.85940195 150.67186602 151.64147866 150.69219321 147.98046875 150.74609375 C146.46288339 150.77731979 144.94530549 150.80890972 143.42773438 150.84082031 C142.23603638 150.86384216 142.23603638 150.86384216 141.02026367 150.8873291 C102.28129455 151.67811664 69.49123614 156.84031774 37.1875 179.76171875 C33.06146948 182.31183483 31.15200061 182.10660325 26.375 181.5 C23.66537476 180.14247131 23.66537476 180.14247131 21.375 177.5 C20.63115866 173.91288288 20.73376969 170.37180279 20.79150391 166.72045898 C20.78916748 165.62254028 20.78683105 164.52462158 20.78442383 163.39343262 C20.78280754 159.7605044 20.81686188 156.12884216 20.8515625 152.49609375 C20.85835015 149.97551431 20.86307341 147.45492852 20.86581421 144.93434143 C20.87649894 139.65077106 20.90253233 134.3676298 20.94287109 129.08422852 C20.99970864 121.63307678 21.02202487 114.1821074 21.03815579 106.73077285 C21.05211987 100.94418779 21.07669785 95.15764025 21.1015625 89.37109375 C21.10647327 88.13391539 21.11138405 86.89673702 21.11644363 85.62206841 C21.1326837 82.13136392 21.15608842 78.64079 21.18212891 75.15014648 C21.18638885 74.11058304 21.1906488 73.07101959 21.19503784 71.99995422 C21.20363831 71.05081146 21.21223877 70.1016687 21.22109985 69.12376404 C21.22667215 68.29842383 21.23224445 67.47308363 21.23798561 66.62273312 C21.375 64.5 21.375 64.5 22.375 61.5 C26.335 60.84 30.295 60.18 34.375 59.5 C30.40150031 54.77801601 26.31144148 50.27723759 21.953125 45.91015625 C21.36706482 45.32076767 20.78100464 44.73137909 20.17718506 44.12413025 C18.95162076 42.89354716 17.72473928 41.66427456 16.49658203 40.4362793 C14.61071174 38.54819496 12.73301599 36.65221628 10.85546875 34.75585938 C9.65934282 33.55680401 8.46274538 32.35821877 7.265625 31.16015625 C6.70417786 30.59152359 6.14273071 30.02289093 5.56427002 29.43702698 C2.12800391 25.37727537 2.12800391 25.37727537 -2.11831665 26.74607849 Z M-23.625 343.5 C-28.71336946 351.50021095 -29.35026134 359.13289223 -28.625 368.5 C-26.80492297 375.62430153 -22.4879542 381.94674603 -16.34375 386.0078125 C-7.9963479 390.7506546 0.53692903 392.24695244 10.05078125 389.81640625 C19.01376597 386.08569931 24.35193637 380.22772068 28.375 371.5 C30.63065006 364.73304982 30.50130979 356.17249323 27.75 349.5625 C23.85825288 342.1901058 18.48374727 336.50158839 10.61328125 333.41796875 C-2.64125759 329.66065074 -14.59348505 333.3650873 -23.625 343.5 Z M-20.625 436.5 C-21.470625 436.92410156 -22.31625 437.34820312 -23.1875 437.78515625 C-35.14254261 444.32762622 -42.78274511 454.12248121 -47.5 466.86328125 C-48.68841538 471.11351681 -48.80688816 475.13468428 -48.625 479.5 C-21.95471698 492.54118048 7.16727605 494.8601251 35.375 485.5 C40.133233 483.69588062 44.82178538 481.77660731 49.375 479.5 C50.11535177 468.1479395 45.19094828 457.6919335 38.32421875 448.86328125 C31.05046831 440.88049295 19.33463858 433.24965239 8.25952148 432.32299805 C-6.65385874 431.82266598 -6.65385874 431.82266598 -20.625 436.5 Z " fill="#000000" transform="translate(255.625,-0.5)"/>
<path d="M0 0 C3.125 1.875 3.125 1.875 5 5 C5.98876625 10.02622846 5.7769173 13.70513784 3.125 18.125 C-1.29486216 20.7769173 -4.97377154 20.98876625 -10 20 C-13.125 18.125 -13.125 18.125 -15 15 C-15.98876625 9.97377154 -15.7769173 6.29486216 -13.125 1.875 C-8.70513784 -0.7769173 -5.02622846 -0.98876625 0 0 Z " fill="#000000" transform="translate(141,371)"/>
</svg>
