<?xml version="1.0" encoding="UTF-8"?>
<svg version="1.1" xmlns="http://www.w3.org/2000/svg" width="512" height="512">
<path d="M0 0 C5.02247923 3.98597365 8.39156023 8.37860143 11.19140625 14.109375 C11.52849609 14.792845 11.86558594 15.476315 12.21289062 16.18049622 C17.05174735 26.30088788 20.67197655 36.93204493 24.44921875 47.48046875 C25.59058777 50.64112683 26.73473799 53.80076681 27.87939453 56.9602356 C28.62885727 59.02907514 29.37724577 61.09830419 30.12451172 63.16793823 C33.77555191 73.25716063 37.59232236 83.28093338 41.44921875 93.29296875 C45.34380949 93.50378726 45.34380949 93.50378726 48.44921875 92.29296875 C57.99707288 89.47757587 66.56176478 91.37596325 75.44921875 95.29296875 C78.62256088 97.03028147 81.59207875 98.99791119 84.57421875 101.04296875 C86.31167686 102.20305668 88.0500007 103.36184877 89.7890625 104.51953125 C90.70155762 105.13086914 91.61405273 105.74220703 92.55419922 106.37207031 C97.70429328 109.78925197 102.92406553 113.09734772 108.13671875 116.41796875 C117.15653964 122.181161 126.16407799 127.96178338 135.13818359 133.79589844 C137.83743251 135.54445056 140.54389157 137.28161511 143.25 139.01953125 C145.29568582 140.33966881 147.34125942 141.65998028 149.38671875 142.98046875 C150.33434082 143.58640869 151.28196289 144.19234863 152.25830078 144.81665039 C174.73368635 159.36941321 190.52700878 177.51515334 202.44921875 201.29296875 C203.17625 199.86017578 203.17625 199.86017578 203.91796875 198.3984375 C210.30556728 185.99841323 217.85014152 175.45669758 227.44921875 165.29296875 C228.18527344 164.48085938 228.92132813 163.66875 229.6796875 162.83203125 C242.50794706 149.20872043 259.8922805 140.10229988 275.54492188 130.14550781 C279.42171171 127.67265296 283.28094871 125.17341972 287.13671875 122.66796875 C296.33169905 116.70307785 305.57772032 110.81918853 314.83691406 104.95458984 C317.28521786 103.39728558 319.7239296 101.82610648 322.16015625 100.25 C323.56890793 99.34749626 324.97775548 98.44514213 326.38671875 97.54296875 C327.00619385 97.1368335 327.62566895 96.73069824 328.26391602 96.31225586 C335.99837398 91.39458303 343.48832011 90.51129744 352.44921875 91.29296875 C355.88361822 92.06761166 359.13877865 93.1089246 362.44921875 94.29296875 C366.49587567 84.89814669 370.10137643 75.36016568 373.66629028 65.77496338 C375.31877599 61.33566516 376.9827501 56.90066867 378.64453125 52.46484375 C380.4416029 47.66505229 382.2379058 42.8650082 384.02246094 38.06054688 C385.34179104 34.50907511 386.67583493 30.96324967 388.01171875 27.41796875 C388.37998779 26.41749512 388.74825684 25.41702148 389.12768555 24.38623047 C393.74365578 12.21599702 399.90740684 1.57321494 412.07421875 -4.20703125 C421.11945202 -7.36300049 431.58028197 -7.08360232 440.2421875 -2.9609375 C449.52820454 2.31483501 455.42839706 8.89158094 458.44921875 19.29296875 C460.14091925 33.19367704 456.24617322 46.2970256 452.82421875 59.64453125 C452.23646535 61.99320871 451.650316 64.34228809 451.06567383 66.69174194 C449.52694618 72.85586081 447.96549104 79.01400092 446.39935303 85.17120361 C444.83479145 91.34090502 443.29382155 97.51648953 441.75 103.69140625 C438.35794813 117.23592403 434.9208461 130.76863644 431.44921875 144.29296875 C431.22330425 145.17362755 430.99738976 146.05428635 430.76462936 146.96163177 C429.46435551 152.0238752 428.14883933 157.08181551 426.8203125 162.13671875 C426.37806335 163.84053207 426.37806335 163.84053207 425.92687988 165.57876587 C423.41996016 174.98466053 419.95228655 183.67543359 415.44921875 192.29296875 C415.10810059 192.96392578 414.76698242 193.63488281 414.41552734 194.32617188 C406.36135524 210.03687181 395.67378995 223.62547831 383.44921875 236.29296875 C382.60101563 237.20433594 381.7528125 238.11570312 380.87890625 239.0546875 C369.94924065 250.49005405 356.74523521 259.15553662 343.84375 268.1953125 C338.35742274 272.04778444 332.93320094 275.98577914 327.51220703 279.92944336 C326.80692871 280.44128174 326.10165039 280.95312012 325.375 281.48046875 C324.70863525 281.97643555 324.04227051 282.47240234 323.35571289 282.98339844 C321.44921875 284.29296875 321.44921875 284.29296875 317.96484375 285.93359375 C314.93371124 288.77645716 315.03067417 289.62359911 314.8203125 293.65234375 C314.81367187 295.78265674 314.83692264 297.91322748 314.88671875 300.04296875 C315.04960067 308.15744972 314.87542325 313.92817211 309.44921875 320.29296875 C303.95493252 325.51254067 298.9507288 326.5916433 291.53678894 326.56039429 C290.74595218 326.5649254 289.95511543 326.56945651 289.14031392 326.57412493 C286.49346674 326.58677322 283.84682521 326.58514829 281.19995117 326.58349609 C279.30088537 326.5894811 277.40182201 326.59628658 275.50276184 326.60385132 C270.34564744 326.62152188 265.18859941 326.62620716 260.03145766 326.62748289 C256.80864188 326.62890451 253.58584298 326.63317431 250.36303139 326.63847733 C239.11725417 326.65698144 227.87152436 326.6651475 216.62573242 326.66357422 C206.14711842 326.66237287 195.66871041 326.68347294 185.19014853 326.71506155 C176.19041195 326.74122415 167.19074265 326.75194151 158.19096833 326.7506634 C152.81731921 326.75015374 147.44385314 326.75583909 142.07024193 326.7770195 C137.01487741 326.79640139 131.95987055 326.79652657 126.90449333 326.78198624 C125.05179064 326.77989695 123.19906557 326.78460614 121.34640121 326.79670715 C118.81138252 326.81218921 116.27759253 326.80283262 113.74259949 326.78744507 C113.01446885 326.79773219 112.28633821 326.80801932 111.536143 326.81861818 C105.59486834 326.73926363 100.30471522 324.9878917 95.9156968 320.84568155 C93.02133543 317.49556193 90.48986382 314.33614206 90.40014648 309.82617188 C90.47692627 308.91802734 90.55370605 308.00988281 90.6328125 307.07421875 C91.50089912 296.18713382 91.50089912 296.18713382 88.03222656 286.20556641 C84.17797781 282.54119763 79.56965665 280.12027975 74.89257812 277.65576172 C70.76011398 275.35086415 67.0477748 272.49404744 63.26171875 269.66796875 C61.75840029 268.57422062 60.25321853 267.48302849 58.74609375 266.39453125 C58.02357422 265.87149414 57.30105469 265.34845703 56.55664062 264.80957031 C53.97424128 262.95115225 51.37421736 261.11861876 48.77270508 259.28710938 C6.31032751 229.28734837 -15.27103845 190.47992967 -27.515625 140.95703125 C-28.0765462 138.70653386 -28.63796265 136.45615987 -29.19984436 134.2059021 C-30.67086298 128.30849999 -32.1346291 122.40932084 -33.59698486 116.50976562 C-34.77681222 111.75523025 -35.96181305 107.00199197 -37.14711666 102.24881935 C-38.58424027 96.48533474 -40.01900495 90.72126389 -41.453125 84.95703125 C-41.84962407 83.3636688 -41.84962407 83.3636688 -42.25413322 81.73811722 C-43.77283413 75.63023747 -45.28251931 69.52022597 -46.78312302 63.40787506 C-47.3148052 61.25048248 -47.84992154 59.09393442 -48.38777542 56.9380722 C-49.22959739 53.56371314 -50.06194339 50.18712663 -50.89282227 46.81005859 C-51.15025428 45.78770426 -51.40768629 44.76534992 -51.67291927 43.71201515 C-54.50129764 32.1238115 -56.00232654 19.96874012 -49.55078125 9.29296875 C-44.7497128 2.03918054 -37.88452056 -2.55644482 -29.6640625 -5.34765625 C-18.86744375 -7.18368014 -9.12561224 -6.107033 0 0 Z M-30.55078125 19.29296875 C-34.21984651 25.31452108 -32.78779851 32.34241225 -31.20225525 38.88142395 C-31.00289871 39.6574144 -30.80354218 40.43340485 -30.59814453 41.23291016 C-30.38987534 42.07866104 -30.18160614 42.92441193 -29.96702576 43.79579163 C-29.27839366 46.58130111 -28.57488984 49.36281803 -27.87109375 52.14453125 C-27.37850626 54.12310313 -26.88681504 56.10189833 -26.39596558 58.0809021 C-25.09726856 63.30596617 -23.78577543 68.52773777 -22.47174072 73.7489624 C-21.17478189 78.91263081 -19.89083097 84.07952901 -18.60546875 89.24609375 C-16.3391417 98.34830838 -14.05156657 107.44500701 -11.75268936 116.53905106 C-10.30761512 122.26364261 -8.88237645 127.9926304 -7.47695351 133.72708321 C-6.6082994 137.26362984 -5.72852677 140.797355 -4.84670639 144.33063889 C-4.44558156 145.94868839 -4.04922329 147.56792947 -3.65839005 149.18849564 C3.30027109 178.0081382 17.9826334 202.04046652 38.44921875 223.29296875 C39.03832031 223.93363281 39.62742187 224.57429687 40.234375 225.234375 C48.89350231 234.40411424 59.82752895 241.30302032 70.21655273 248.32788086 C76.1808561 252.37714449 81.98426341 256.59538525 87.71289062 260.97070312 C90.91097251 263.40903764 94.12762983 265.78650288 97.44921875 268.0546875 C98.09076904 268.49594971 98.73231934 268.93721191 99.39331055 269.3918457 C100.59544949 270.21290676 101.80479285 271.02356822 103.02270508 271.82104492 C107.29676357 274.75239366 107.91552277 276.22557679 110.44921875 281.29296875 C110.77921875 289.21296875 111.10921875 297.13296875 111.44921875 305.29296875 C137.84921875 305.29296875 164.24921875 305.29296875 191.44921875 305.29296875 C191.53171875 294.93921875 191.61421875 284.58546875 191.69921875 273.91796875 C191.73563477 270.68838379 191.77205078 267.45879883 191.80957031 264.13134766 C192.00691015 234.0736809 186.4019759 206.12260154 165.44921875 183.29296875 C164.20011719 181.92205078 164.20011719 181.92205078 162.92578125 180.5234375 C152.85794457 169.96844743 140.91090193 162.44899862 128.5625 154.84375 C124.44393993 152.30271851 120.38025498 149.6823377 116.32421875 147.04296875 C108.79306687 142.1475885 101.21963804 137.32089955 93.63598633 132.50732422 C87.0593279 128.32894044 80.50805935 124.11339767 73.99023438 119.84375 C65.00119389 113.46885439 65.00119389 113.46885439 54.44921875 112.29296875 C50.80471503 114.11522061 48.85643246 115.714988 46.51171875 119.04296875 C45.2138661 123.01287096 44.87404839 126.36261579 46.44921875 130.29296875 C50.18600918 134.50382961 54.57324345 137.96213626 58.94921875 141.48046875 C59.65554443 142.05144287 60.36187012 142.62241699 61.08959961 143.21069336 C66.37867345 147.47065791 71.74095463 151.62333782 77.140625 155.7421875 C82.78382413 160.06789485 88.31739588 164.5371775 93.84375 169.01074219 C95.31601488 170.18658391 96.81883349 171.32390159 98.32421875 172.45703125 C101.25034438 174.98511773 101.40264549 176.87380942 101.82421875 180.66796875 C101.44921875 184.29296875 101.44921875 184.29296875 99.32421875 187.16796875 C96.03453138 189.59947681 94.53688903 190.37311915 90.44921875 190.29296875 C83.45760582 187.83977123 78.37442816 183.00659407 72.8671875 178.21875 C69.1850425 175.03173598 65.3532089 172.08619322 61.47485352 169.14086914 C56.50646696 165.35922998 51.62236959 161.47772521 46.77416992 157.54321289 C43.39537335 154.80829103 39.96500912 152.26469537 36.38671875 149.79296875 C30.5085941 145.29270319 26.73939873 137.54664731 25.44921875 130.29296875 C25.35747165 128.48231284 25.3191897 126.66844064 25.32421875 124.85546875 C25.32164063 123.92863281 25.3190625 123.00179687 25.31640625 122.046875 C25.44921875 119.29296875 25.44921875 119.29296875 26.11694336 117.10644531 C26.58093072 113.17772357 25.28422637 110.13020838 23.8984375 106.5234375 C23.61279938 105.75013092 23.32716125 104.97682434 23.03286743 104.18008423 C22.07960206 101.60884859 21.10848811 99.04476254 20.13671875 96.48046875 C19.46344611 94.67899952 18.79118344 92.87715254 18.11987305 91.07495117 C16.67738462 87.20857141 15.22719305 83.34518718 13.77246094 79.48339844 C11.7634475 74.14259157 9.78176505 68.79204945 7.80809021 63.43809509 C6.19351212 59.05969914 4.57177514 54.68397591 2.94863892 50.30874634 C2.16021137 48.1809265 1.37387934 46.05232898 0.58969116 43.92294312 C-0.51595433 40.92491286 -1.63167951 37.93082141 -2.75 34.9375 C-3.07551849 34.04858063 -3.40103699 33.15966125 -3.73641968 32.24380493 C-6.26686283 25.51862386 -9.0730441 19.03566133 -15.55078125 15.29296875 C-21.62018743 14.19148393 -25.8317675 15.14944448 -30.55078125 19.29296875 Z M412.32058716 23.15281677 C411.35683016 25.30716405 410.53538954 27.47494899 409.74609375 29.69921875 C409.26302765 30.97907654 409.26302765 30.97907654 408.77020264 32.28479004 C408.04711123 34.20936121 407.33382982 36.13763719 406.62866211 38.06884766 C405.34887308 41.56727321 404.0388566 45.05344036 402.72460938 48.5390625 C399.94639532 55.91862481 397.20607687 63.31195659 394.47113037 70.7076416 C393.43626088 73.50335213 392.39799577 76.29779645 391.35972977 79.09224701 C390.34411589 81.82691673 389.33046868 84.56231224 388.3174057 87.29792786 C387.61388648 89.19682407 386.90892786 91.09518682 386.20391846 92.99353027 C384.93760279 96.42153752 383.68871432 99.85518205 382.44921875 103.29296875 C381.83379211 104.97531616 381.83379211 104.97531616 381.20593262 106.69165039 C380.82956665 107.75697998 380.45320068 108.82230957 380.06542969 109.91992188 C379.72896423 110.86065552 379.39249878 111.80138916 379.0458374 112.77062988 C378.41100202 115.45453855 378.57761696 116.72471905 379.44921875 119.29296875 C380.45837721 129.50035846 378.04988132 138.29202237 371.96411133 146.5390625 C369.25270604 149.67826244 365.98390851 151.99828592 362.63671875 154.41796875 C361.11167902 155.55123246 359.58828073 156.68670792 358.06640625 157.82421875 C356.91156738 158.68466797 356.91156738 158.68466797 355.73339844 159.5625 C352.17148232 162.26096745 348.71503789 165.08266107 345.26171875 167.91796875 C340.14638983 172.10323787 335.01353618 176.26211403 329.82421875 180.35546875 C329.26839111 180.79648926 328.71256348 181.23750977 328.13989258 181.69189453 C317.35273658 190.1699788 317.35273658 190.1699788 311.44921875 190.29296875 C307.47449812 188.76423004 305.8306821 187.86516378 303.44921875 184.29296875 C302.97471057 179.16828045 303.45264612 176.43822756 306.44921875 172.29296875 C308.52248847 170.47708995 310.56279524 168.81294658 312.76171875 167.16796875 C314.02881564 166.1968361 315.2957379 165.22547556 316.5625 164.25390625 C317.20912598 163.76245117 317.85575195 163.27099609 318.52197266 162.76464844 C321.52311496 160.47292234 324.48487446 158.13195937 327.44921875 155.79296875 C328.60788655 154.88257526 329.76674159 153.97242002 330.92578125 153.0625 C333.33914889 151.16647529 335.75030303 149.26767677 338.16015625 147.3671875 C338.76947998 146.88725342 339.37880371 146.40731934 340.0065918 145.9128418 C341.20435887 144.96894664 342.40116096 144.02382546 343.59692383 143.07739258 C346.71719639 140.61641421 349.88486129 138.26330836 353.13671875 135.98046875 C356.43985247 133.49248606 358.23090511 131.35401421 359.44921875 127.29296875 C359.63575435 122.99417117 358.93884507 120.0696174 356.63671875 116.41796875 C353.43188959 113.30470614 351.71593037 112.40057775 347.23046875 112.01953125 C342.91707348 112.33145033 340.28514643 113.67571066 336.76171875 115.98046875 C336.12218262 116.38128662 335.48264648 116.78210449 334.82373047 117.19506836 C332.68675336 118.54295688 330.5672267 119.91548681 328.44921875 121.29296875 C327.71010254 121.76959961 326.97098633 122.24623047 326.20947266 122.73730469 C322.10905428 125.38167032 318.02019828 128.04321279 313.9375 130.71484375 C308.06961447 134.54945108 302.16782356 138.33008221 296.26171875 142.10546875 C295.22208984 142.77143066 294.18246094 143.43739258 293.11132812 144.12353516 C288.21125799 147.26015157 283.30632501 150.3881287 278.38108826 153.48512268 C276.69620444 154.54530414 275.01350063 155.60894756 273.33081055 156.67260742 C271.23578681 157.99646641 269.13725621 159.31480046 267.03442383 160.6262207 C240.1252317 177.67133288 222.11912698 200.8855885 214.80078125 232.0546875 C211.56955061 248.09376713 212.49375275 264.41952175 212.88671875 280.66796875 C213.16515625 292.85734375 213.16515625 292.85734375 213.44921875 305.29296875 C239.84921875 305.29296875 266.24921875 305.29296875 293.44921875 305.29296875 C293.77921875 297.37296875 294.10921875 289.45296875 294.44921875 281.29296875 C297.82336841 274.54466943 297.82336841 274.54466943 301.046875 272.3203125 C301.75650391 271.82015625 302.46613281 271.32 303.19726562 270.8046875 C303.96103516 270.28519531 304.72480469 269.76570312 305.51171875 269.23046875 C307.14867607 268.08367379 308.78538808 266.93652862 310.421875 265.7890625 C311.2586377 265.20882324 312.09540039 264.62858398 312.95751953 264.03076172 C316.82393926 261.33419347 320.63500008 258.56262786 324.44921875 255.79296875 C329.02233028 252.48349331 333.60070163 249.18192258 338.1953125 245.90234375 C362.74338759 228.35313557 382.64689762 209.45121357 396.44921875 182.29296875 C397.01253906 181.1946875 397.57585937 180.09640625 398.15625 178.96484375 C405.7227484 163.41042173 409.34447343 146.27868818 413.484375 129.578125 C414.05019211 127.30991784 414.6163974 125.04180748 415.18296814 122.77378845 C416.36319425 118.04529146 417.54040004 113.31605749 418.71508789 108.58618164 C420.20930357 102.56976465 421.70857354 96.55462294 423.20981693 90.53995609 C424.65714698 84.74058854 426.10218382 78.9406504 427.546875 73.140625 C427.81653643 72.05858355 428.08619785 70.97654209 428.36403084 69.8617115 C430.8717685 59.79266477 433.37325158 49.72177008 435.79077148 39.63061523 C435.95530602 38.955104 436.11984056 38.27959276 436.289361 37.58361149 C437.71263533 31.57700858 438.68572724 26.28662088 436.26171875 20.41796875 C433.61161735 17.31095331 431.45064883 15.66917741 427.37109375 14.90234375 C420.58450012 14.39450341 415.91038652 17.23726267 412.32058716 23.15281677 Z " fill="#000000" transform="translate(53.55078125,178.70703125)"/>
<path d="M0 0 C12.97002483 9.57184274 21.6280231 21.99586007 24.56787109 37.97021484 C25.44236985 44.63197235 25.12373321 51.40669613 24.84765625 58.1015625 C25.42773438 57.89660156 26.0078125 57.69164063 26.60546875 57.48046875 C27.38664063 57.21105469 28.1678125 56.94164063 28.97265625 56.6640625 C29.73835937 56.39722656 30.5040625 56.13039063 31.29296875 55.85546875 C43.98581125 52.10972165 56.54216337 53.99973154 68.84765625 58.1015625 C68.80125 56.97621094 68.75484375 55.85085937 68.70703125 54.69140625 C68.22215409 37.86635331 71.16593928 23.4128131 82.32421875 10.16015625 C93.66987399 -1.85577546 107.32964637 -8.7018637 123.99023438 -9.31811523 C140.0148861 -9.45777612 153.99782731 -4.25850424 165.68164062 6.71850586 C176.87631046 17.81069453 182.57187167 32.28615479 183.16015625 47.9140625 C182.77265535 62.29718424 177.56289331 74.82302042 168.84765625 86.1015625 C169.56566406 86.21628906 170.28367187 86.33101563 171.0234375 86.44921875 C180.71821849 88.68853884 188.87488574 95.37441386 194.84765625 103.1015625 C200.06494442 111.63351372 203.94271965 119.76937054 204.0246582 129.87036133 C204.0312294 130.54245132 204.0378006 131.21454132 204.04457092 131.90699768 C204.0642302 134.12419765 204.07594957 136.34133014 204.0859375 138.55859375 C204.09001303 139.31846777 204.09408855 140.07834179 204.09828758 140.86124229 C204.11911628 144.88283386 204.13343214 148.90439162 204.14282227 152.92602539 C204.15388398 157.0686899 204.18828979 161.21081689 204.22799397 165.35329151 C204.25419826 168.54901597 204.26251741 171.74461298 204.26610374 174.94043541 C204.27095937 176.46699341 204.28254413 177.99354611 204.30114174 179.51999855 C204.40538168 188.64225228 204.30599041 194.86832741 198.20703125 202.02734375 C197.6759375 202.48496094 197.14484375 202.94257813 196.59765625 203.4140625 C196.076875 203.88457031 195.55609375 204.35507813 195.01953125 204.83984375 C187.75307779 209.06118272 179.27026033 208.36388823 171.16015625 208.296875 C169.86190918 208.2940451 168.56366211 208.29121521 167.22607422 208.28829956 C163.80002933 208.28071887 160.37415813 208.26111935 156.94818115 208.2388916 C153.44204049 208.21831219 149.93587135 208.20927216 146.4296875 208.19921875 C139.56893976 208.17786726 132.70830638 208.14379986 125.84765625 208.1015625 C125.857649 208.9205603 125.857649 208.9205603 125.86784363 209.75610352 C125.93449389 215.46673665 125.97957938 221.17725828 126.01245117 226.88818359 C126.02748701 229.01615898 126.04792108 231.14410364 126.07397461 233.27197266 C126.11058714 236.34024667 126.12743506 239.40810899 126.140625 242.4765625 C126.15610886 243.41959229 126.17159271 244.36262207 126.18754578 245.33422852 C126.18940803 252.73359858 124.83570976 258.06101007 120.72265625 264.3515625 C114.13999825 270.64801798 107.95724423 271.46015391 99.09765625 271.5390625 C98.26927246 271.54921387 97.44088867 271.55936523 96.58740234 271.56982422 C91.86552045 271.50194537 88.6789594 271.14601453 84.84765625 268.1015625 C82.68532744 265.34272919 81.90822862 263.58614147 81.47265625 260.1015625 C81.90390855 256.65154407 82.7191714 254.83818587 84.84765625 252.1015625 C88.59249494 249.4397899 92.70028768 249.87556287 97.09765625 249.9765625 C97.84273437 249.98558594 98.5878125 249.99460937 99.35546875 250.00390625 C101.18633684 250.02737892 103.01703863 250.06324725 104.84765625 250.1015625 C104.75497062 242.43329846 104.64761266 234.76533822 104.53027344 227.09741211 C104.4920987 224.49133916 104.45722619 221.88521558 104.42578125 219.27905273 C104.37988063 215.52309127 104.32192707 211.76747486 104.26171875 208.01171875 C104.24439194 206.27680931 104.24439194 206.27680931 104.22671509 204.5068512 C104.03646736 193.9701838 102.87659357 185.3381146 95.84765625 177.1015625 C89.53928471 171.22045118 83.56855165 168.86607004 74.88354492 168.81103516 C74.21437546 168.80431793 73.54520599 168.79760071 72.85575867 168.79067993 C70.65897042 168.77179204 68.46248923 168.76778035 66.265625 168.765625 C64.72634255 168.75919022 63.18706131 168.75246136 61.64778137 168.74545288 C58.42588468 168.73350282 55.20409501 168.72976966 51.98217773 168.73095703 C47.87335455 168.73115999 43.76522479 168.70387207 39.65656567 168.66941261 C36.47789926 168.64706702 33.29939766 168.64312183 30.12066078 168.64417648 C28.60693284 168.64183149 27.09319959 168.63307065 25.57954979 168.61751175 C14.57198647 168.51496267 5.79097589 169.59361381 -2.58203125 177.265625 C-8.46230364 184.14057033 -10.21503096 191.98816933 -10.35766602 200.83154297 C-10.38758385 202.48257523 -10.38758385 202.48257523 -10.41810608 204.16696167 C-10.43481857 205.33905182 -10.45153107 206.51114197 -10.46875 207.71875 C-10.49992165 209.53718918 -10.49992165 209.53718918 -10.53172302 211.3923645 C-10.59695357 215.2537078 -10.65598026 219.11511741 -10.71484375 222.9765625 C-10.75805416 225.59896511 -10.80166925 228.22136109 -10.84570312 230.84375 C-10.95260779 237.26295132 -11.05442285 243.68221819 -11.15234375 250.1015625 C-9.98316406 250.04355469 -8.81398438 249.98554688 -7.609375 249.92578125 C-6.06123795 249.87886801 -4.51305758 249.83336952 -2.96484375 249.7890625 C-2.19591797 249.74716797 -1.42699219 249.70527344 -0.63476562 249.66210938 C3.71252199 249.56881994 5.31578346 249.67536901 8.8359375 252.49609375 C11.98256954 256.57144049 12.36620257 258.9160993 11.84765625 264.1015625 C9.84473146 267.58154766 7.72712276 269.808407 3.84765625 271.1015625 C-5.26522499 271.93219349 -16.54665233 272.95209436 -24.15234375 267.1015625 C-29.31759221 262.54531713 -31.81787646 257.64344128 -32.32646179 250.73713684 C-32.38274441 248.0139442 -32.37730709 245.29782918 -32.34765625 242.57421875 C-32.34482635 241.58530136 -32.34199646 240.59638397 -32.33908081 239.57749939 C-32.32794517 236.43956055 -32.30285278 233.30191411 -32.27734375 230.1640625 C-32.2673054 228.02799893 -32.25818105 225.89193086 -32.25 223.75585938 C-32.22802755 218.53766177 -32.19461629 213.31963304 -32.15234375 208.1015625 C-32.86929413 208.10822433 -33.58624451 208.11488617 -34.32492065 208.12174988 C-41.12061264 208.18215618 -47.91626388 208.22768578 -54.7121563 208.25699902 C-58.20503173 208.27257655 -61.69768314 208.29366746 -65.19042969 208.32788086 C-69.21681728 208.36706944 -73.2429739 208.38133697 -77.26953125 208.39453125 C-78.50847137 208.41001511 -79.7474115 208.42549896 -81.02389526 208.44145203 C-89.14501345 208.44301089 -97.27717547 208.2061966 -103.84375 202.9453125 C-104.46121094 202.171875 -105.07867187 201.3984375 -105.71484375 200.6015625 C-106.35550781 199.828125 -106.99617188 199.0546875 -107.65625 198.2578125 C-110.34505697 194.38256067 -110.2917453 191.10736166 -110.3293457 186.50976562 C-110.3359169 185.84424683 -110.3424881 185.17872803 -110.34925842 184.49304199 C-110.36897022 182.28963091 -110.38065426 180.08628819 -110.390625 177.8828125 C-110.39470053 177.12701401 -110.39877605 176.37121552 -110.40297508 175.59251404 C-110.42383493 171.58576736 -110.43813241 167.57905484 -110.44750977 163.57226562 C-110.4585251 159.45798722 -110.49286778 155.34425702 -110.53268147 151.2301712 C-110.55899738 148.04715053 -110.56721515 144.86425694 -110.57079124 141.68113708 C-110.57562509 140.16625806 -110.58714632 138.65138347 -110.60582924 137.13661194 C-110.78573444 121.57263955 -106.7744976 109.06098815 -96.15234375 97.4140625 C-91.30751233 92.75971163 -82.19841835 86.1015625 -75.15234375 86.1015625 C-75.755625 85.23015625 -76.35890625 84.35875 -76.98046875 83.4609375 C-86.92121673 68.7759302 -91.32768578 54.09016944 -88.08984375 36.3515625 C-84.45576447 20.80108371 -75.75741557 7.62706717 -62.15234375 -0.8984375 C-42.8265094 -12.38237981 -19.05832721 -12.05573861 0 0 Z M-60.90234375 26.1640625 C-66.93087509 34.41872583 -69.0852037 43.7930887 -67.8984375 53.88671875 C-65.4231361 64.55254625 -59.60551924 72.96100696 -50.4296875 78.74609375 C-42.31312124 83.57705171 -34.09541077 85.12833953 -24.73828125 83.51171875 C-13.85914525 80.54352357 -6.04728347 74.71164108 -0.15234375 65.1015625 C4.07908101 57.08674618 5.26227896 48.059145 3.1640625 39.22265625 C-0.12860925 29.39929114 -6.15502034 20.81370187 -15.45703125 15.87890625 C-32.20107276 8.22056595 -48.90506759 12.28585745 -60.90234375 26.1640625 Z M96.1640625 27.171875 C90.24212727 35.852694 88.49970904 45.42511739 90.30859375 55.7265625 C92.99068341 65.82384123 98.87174501 73.84864277 107.7890625 79.28515625 C116.67394262 84.03187302 124.95309095 85.073636 134.84765625 83.1015625 C146.94090124 78.48852891 153.47926886 71.93453299 159.66015625 60.8515625 C162.94913362 50.46531818 162.32670298 41.02496776 157.84765625 31.1015625 C152.44134679 21.99548066 144.78367189 16.08881626 134.76953125 12.796875 C119.59770038 9.18646605 105.78605645 15.37378977 96.1640625 27.171875 Z M17.53515625 89.7890625 C12.23336464 97.42423315 9.48324126 106.86011251 10.84765625 116.1015625 C13.23977359 126.87316781 18.41926962 135.47285689 27.5546875 141.81640625 C36.21243249 146.6688732 45.12533052 148.59443116 54.8203125 146.44140625 C66.31393688 143.08486108 74.05845891 136.56604658 79.84765625 126.1015625 C84.16643216 116.21909662 83.85428969 107.02137637 80.1640625 96.9921875 C75.94035858 87.71758541 68.64985811 81.07421992 59.3359375 77.00390625 C43.4664224 71.64763349 28.10996834 77.10456221 17.53515625 89.7890625 Z M-84.15234375 116.1015625 C-89.579124 123.85912348 -89.82618611 131.19870932 -89.640625 140.421875 C-89.63127677 141.77520427 -89.62417018 143.12855069 -89.6191864 144.48190308 C-89.60027366 148.01025735 -89.55131542 151.53755022 -89.4956665 155.06549072 C-89.44412906 158.67892854 -89.42132372 162.2925463 -89.39648438 165.90625 C-89.34583905 172.97228552 -89.24794696 180.0354227 -89.15234375 187.1015625 C-70.01234375 187.1015625 -50.87234375 187.1015625 -31.15234375 187.1015625 C-29.83234375 183.8015625 -28.51234375 180.5015625 -27.15234375 177.1015625 C-21.48574071 163.66961456 -10.98584701 155.30847156 2.1953125 149.765625 C2.74058594 149.54648438 3.28585938 149.32734375 3.84765625 149.1015625 C3.05101562 147.77705078 3.05101562 147.77705078 2.23828125 146.42578125 C-4.05349223 135.81901135 -8.07204713 126.63150053 -9.25390625 114.23828125 C-9.34196533 113.35829468 -9.43002441 112.47830811 -9.52075195 111.57165527 C-9.73586432 109.41540986 -9.94473419 107.25854324 -10.15234375 105.1015625 C-17.42866877 105.00844885 -24.70486311 104.93758977 -31.98166561 104.89431381 C-35.36144655 104.87353224 -38.74081672 104.84539096 -42.12036133 104.79980469 C-46.01524525 104.75105591 -49.90955319 104.72853965 -53.8046875 104.7109375 C-55.00504135 104.69029236 -56.2053952 104.66964722 -57.44212341 104.64837646 C-68.61187998 104.64541755 -76.57335759 107.81499675 -84.15234375 116.1015625 Z M103.84765625 105.1015625 C103.7177832 106.337854 103.58791016 107.57414551 103.45410156 108.84790039 C103.27816624 110.48585827 103.10204992 112.12379671 102.92578125 113.76171875 C102.84086426 114.57467407 102.75594727 115.38762939 102.66845703 116.22521973 C101.29227712 128.90986867 96.38480447 138.26468286 89.84765625 149.1015625 C90.74226562 149.50246094 91.636875 149.90335938 92.55859375 150.31640625 C105.09137872 156.12725078 115.9824948 163.92288973 121.0625 177.30078125 C121.76797711 179.42223378 122.44500876 181.5534747 123.0859375 183.6953125 C123.62134196 186.02882567 123.62134196 186.02882567 124.84765625 187.1015625 C126.6582065 187.19532303 128.47242826 187.2190036 130.28540039 187.21508789 C131.44652847 187.21501236 132.60765656 187.21493683 133.80397034 187.21485901 C135.06748825 187.20969772 136.33100616 187.20453644 137.6328125 187.19921875 C138.91876816 187.1978038 140.20472382 187.19638885 141.52964783 187.19493103 C144.95409068 187.19110668 148.37849134 187.18127712 151.80291748 187.17022705 C155.29503814 187.16001114 158.78716559 187.15543303 162.27929688 187.15039062 C169.13543403 187.13965477 175.99154312 187.12257934 182.84765625 187.1015625 C182.96408105 179.32100631 183.05263786 171.54065844 183.10671711 163.7594471 C183.13268759 160.14530549 183.16785034 156.53176468 183.22485352 152.91796875 C183.27962925 149.42306588 183.30917087 145.92873672 183.32204247 142.43343735 C183.33562524 140.46707971 183.37458465 138.50094932 183.41413879 136.53494263 C183.41700417 127.27457799 181.63056578 120.65871204 175.671875 113.48046875 C174.96675781 112.88105469 174.26164062 112.28164062 173.53515625 111.6640625 C172.83777344 111.04660156 172.14039063 110.42914063 171.421875 109.79296875 C163.70256847 104.72095095 156.58438511 104.69316657 147.59765625 104.80859375 C145.71687378 104.81496101 145.71687378 104.81496101 143.7980957 104.82145691 C140.49029838 104.83534081 137.18295243 104.86221897 133.87530518 104.89556885 C130.48984252 104.92644676 127.10431337 104.9399998 123.71875 104.95507812 C117.09487769 104.98805987 110.47130383 105.03819413 103.84765625 105.1015625 Z " fill="#000000" transform="translate(209.15234375,15.8984375)"/>
<path d="M0 0 C2.8100346 1.79363911 4.50940468 3.01880935 6 6 C6.42071592 9.05920574 6.48514117 11.9467746 6 15 C3.81840855 17.75569447 2.12822506 19.43588747 -1 21 C-6.26883876 21.59873168 -8.8846468 20.25400021 -13 17 C-14.72869779 13.54260443 -14.48966895 9.78024432 -14 6 C-10.38599231 0.2175877 -6.68966949 -0.96115941 0 0 Z " fill="#000000" transform="translate(260,266)"/>
</svg>
