<?xml version="1.0" encoding="UTF-8"?>
<svg version="1.1" xmlns="http://www.w3.org/2000/svg" width="512" height="512">
<path d="M0 0 C0.77671051 -0.00705963 1.55342102 -0.01411926 2.35366821 -0.02139282 C34.57617022 -0.24783317 34.57617022 -0.24783317 49.51171875 3.203125 C50.85580811 3.50114014 50.85580811 3.50114014 52.22705078 3.80517578 C98.52475653 14.2756886 141.14228038 39.83253046 167.09375 80.2578125 C174.51801384 92.16849084 179.69328824 104.71938904 183.51171875 118.203125 C184.02412109 119.97042969 184.02412109 119.97042969 184.546875 121.7734375 C189.32977062 142.01732129 188.19019362 166.2981342 182.51171875 186.203125 C182.3297998 186.86473633 182.14788086 187.52634766 181.96044922 188.20800781 C176.30428678 208.29521918 166.08360811 226.55290892 152.00268555 241.90527344 C145.80587244 248.81749466 146.97477392 258.08863101 147.33251953 266.90234375 C148.31311708 279.49246809 154.12610911 290.50648013 162.38671875 299.765625 C166.14487456 304.20304208 167.49101637 307.11312627 167.31640625 312.9140625 C166.07461345 316.44654105 164.51587453 317.96846837 161.51171875 320.203125 C158.42966484 320.91251057 155.47411541 320.86629149 152.32421875 320.765625 C151.44290283 320.74902832 150.56158691 320.73243164 149.65356445 320.71533203 C125.66016021 319.88641822 100.45565559 310.11574942 83.55078125 292.87890625 C78.88524549 290.30626506 75.45848251 291.83395524 70.51171875 293.203125 C68.6986001 293.61814665 66.88342816 294.0242903 65.06640625 294.421875 C64.1424707 294.63110596 63.21853516 294.84033691 62.26660156 295.0559082 C48.39503021 298.1733663 34.80570848 300.74823478 20.51171875 300.203125 C20.4859375 300.94433594 20.46015625 301.68554688 20.43359375 302.44921875 C18.40506772 340.11525892 -2.25467785 373.20145862 -29.60522461 398.05908203 C-59.19275905 424.05587366 -99.71959523 440.03921837 -139.16796875 440.44140625 C-139.9702037 440.45115479 -140.77243866 440.46090332 -141.59898376 440.47094727 C-165.27037959 440.69909293 -187.90789657 439.54577572 -210.7590332 432.69067383 C-214.43043819 431.60199355 -216.85356185 430.91902706 -220.48828125 432.203125 C-222.60791587 433.8269217 -224.63982531 435.48121382 -226.67578125 437.203125 C-239.43543273 447.54290081 -253.74893524 453.80137585 -269.48828125 458.203125 C-270.91140625 458.60337891 -270.91140625 458.60337891 -272.36328125 459.01171875 C-278.43718243 460.38783699 -284.6583828 460.49090895 -290.86328125 460.640625 C-291.73259277 460.67526855 -292.6019043 460.70991211 -293.49755859 460.74560547 C-297.90554719 460.77385632 -299.88823213 460.64393031 -303.53515625 457.96484375 C-306.11299422 454.31978086 -306.44724504 452.3031992 -306.234375 447.9296875 C-305.00421087 443.43411386 -302.00818025 440.60247695 -298.9453125 437.1875 C-288.46005485 424.45182934 -285.49944962 409.22995911 -286.29418945 393.18603516 C-286.87771794 387.22450265 -289.47296643 383.707211 -293.42578125 379.453125 C-314.91949133 355.075024 -325.95780492 322.94428922 -325.86328125 290.703125 C-325.86273743 290.0023584 -325.8621936 289.3015918 -325.8616333 288.57958984 C-325.72628171 250.50789498 -308.96019068 217.79117085 -282.43359375 191.078125 C-270.44367365 179.40482021 -256.32261583 169.88037725 -241.48828125 162.203125 C-240.79041504 161.8412207 -240.09254883 161.47931641 -239.37353516 161.10644531 C-214.9442891 148.61766535 -187.1482493 139.76407789 -159.48828125 140.203125 C-159.4625 139.46191406 -159.43671875 138.72070312 -159.41015625 137.95703125 C-157.38163022 100.29099108 -136.72188465 67.20479138 -109.37133789 42.34716797 C-79.91499213 16.46564396 -39.32123515 0.23992097 0 0 Z M-100.48828125 63.203125 C-101.24625 63.89019531 -102.00421875 64.57726562 -102.78515625 65.28515625 C-122.33969528 83.86196833 -134.11681646 108.83857646 -138.48828125 135.203125 C-138.51221361 136.86961983 -138.51722643 138.5367097 -138.48828125 140.203125 C-137.90151611 140.26781982 -137.31475098 140.33251465 -136.71020508 140.39916992 C-116.14365445 142.72516075 -93.30379405 145.59902634 -74.81542397 155.65723705 C-65.68773633 160.46244525 -57.84297981 161.05582888 -47.82177734 160.96020508 C-46.18926788 160.9667537 -44.55676724 160.97594492 -42.92428589 160.98754883 C-38.53217086 161.01153344 -34.14083675 160.99933764 -29.74872541 160.98048615 C-25.1403294 160.96730266 -20.53209716 160.98894925 -15.92373657 161.00700378 C-7.21179299 161.03609703 1.49987701 161.0358363 10.21185148 161.02407998 C23.01989125 161.00814297 35.82784928 161.03696557 48.63585472 161.06544781 C50.52533337 161.06958324 52.41481205 161.0737023 54.30429077 161.07780457 C55.68752189 161.08088396 55.68752189 161.08088396 57.09869707 161.08402556 C62.58143922 161.09524135 68.06410598 161.0980202 73.54685712 161.09323752 C76.94709677 161.0907029 80.34733011 161.09177913 83.74757004 161.09337616 C85.32662838 161.0931394 86.90568755 161.09114701 88.48474121 161.08729362 C90.63533093 161.08216339 92.78583918 161.08302402 94.93643188 161.08528137 C96.14092295 161.08394101 97.34541401 161.08260065 98.5864048 161.08121967 C101.51171875 161.203125 101.51171875 161.203125 104.51171875 162.203125 C105.49447463 165.15139263 105.645866 167.12965004 105.63671875 170.203125 C105.63929688 171.069375 105.641875 171.935625 105.64453125 172.828125 C105.51171875 175.203125 105.51171875 175.203125 104.51171875 178.203125 C101.43032206 179.23025723 99.29357994 179.3401942 96.063797 179.36134338 C94.93217636 179.3711322 93.80055573 179.38092102 92.63464355 179.39100647 C91.39243042 179.39676193 90.15021729 179.4025174 88.87036133 179.40844727 C86.90923653 179.42329666 86.90923653 179.42329666 84.90849304 179.43844604 C81.32202779 179.46549153 77.73554938 179.48650301 74.14903855 179.50644803 C70.40139253 179.52830978 66.65378703 179.55569755 62.90617371 179.58250427 C55.80893594 179.6324286 48.71167567 179.6773684 41.61439389 179.72052664 C33.5346448 179.76990123 25.45493638 179.82481854 17.37522662 179.88020623 C0.75409481 179.99402229 -15.86707427 180.10086215 -32.48828125 180.203125 C-28.52691222 184.17006507 -28.52691222 184.17006507 -24.5078125 188.078125 C1.48408808 213.27139176 14.98370963 243.6980258 20.51171875 279.203125 C26.91140454 279.32533006 32.99396839 278.93953839 39.32421875 278.015625 C40.22495117 277.88542969 41.12568359 277.75523437 42.05371094 277.62109375 C54.12242461 275.77277004 65.99520733 272.8654398 77.52026367 268.83251953 C80.84092254 267.78303338 83.06720057 267.57684897 86.51171875 268.203125 C88.5687465 269.61966911 90.29660345 271.22648496 92.109375 272.9453125 C103.65789353 283.79904211 117.45964232 293.90997122 133.51171875 296.203125 C133.17398437 295.23632812 132.83625 294.26953125 132.48828125 293.2734375 C132.03742751 291.95844743 131.5869258 290.64333662 131.13671875 289.328125 C130.915 288.69648438 130.69328125 288.06484375 130.46484375 287.4140625 C125.3198624 272.28176441 122.93496723 251.19394275 129.51171875 236.203125 C132.18808438 232.2245939 135.29880961 228.75315974 138.51171875 225.203125 C149.74703514 211.73251007 157.93772167 196.141789 162.51171875 179.203125 C162.82882812 178.12160156 163.1459375 177.04007813 163.47265625 175.92578125 C170.26077935 148.74215069 165.29318346 119.26687641 151.2734375 95.24609375 C146.91799669 88.1443605 141.89733881 81.55283754 136.51171875 75.203125 C135.92648437 74.49542969 135.34125 73.78773437 134.73828125 73.05859375 C130.70107294 68.28153504 126.32379651 64.18826435 121.51171875 60.203125 C120.79628906 59.58824219 120.08085937 58.97335938 119.34375 58.33984375 C56.80587558 6.06781806 -40.75874379 8.11609196 -100.48828125 63.203125 Z M-263.19921875 203.125 C-264.77862302 204.55886189 -266.41115065 205.93558309 -268.08203125 207.26171875 C-284.58514608 220.57673185 -295.42216456 242.35037948 -301.48828125 262.203125 C-301.80796875 263.193125 -302.12765625 264.183125 -302.45703125 265.203125 C-306.9810077 281.95859335 -306.35546775 302.60324909 -301.48828125 319.203125 C-301.17117188 320.37746094 -300.8540625 321.55179688 -300.52734375 322.76171875 C-295.54319912 339.46390555 -286.71655765 355.00653979 -275.03125 367.91796875 C-264.50817001 379.76705881 -264.53231087 393.33556672 -265.26367188 408.53515625 C-265.80752537 414.99518995 -267.50644293 421.04450915 -269.48828125 427.203125 C-269.79636719 428.18667969 -270.10445313 429.17023438 -270.421875 430.18359375 C-271.07581536 432.20173506 -271.77476181 434.20527056 -272.48828125 436.203125 C-254.90282109 433.69091641 -239.50916888 421.77642384 -227.4296875 409.34765625 C-223.88975236 407.26073272 -220.28403884 407.76791001 -216.38793945 408.7121582 C-214.03057489 409.41602324 -211.69819617 410.17813 -209.36328125 410.953125 C-184.38277496 418.76140577 -157.58131353 422.0676182 -131.48828125 419.203125 C-130.33803467 419.07744141 -130.33803467 419.07744141 -129.16455078 418.94921875 C-98.67868379 415.36635667 -68.76749471 403.38374009 -45.48828125 383.203125 C-44.67101562 382.50703125 -43.85375 381.8109375 -43.01171875 381.09375 C-25.41249347 365.72848211 -12.73873344 347.1925507 -5.17578125 325.078125 C-4.93311523 324.37453857 -4.69044922 323.67095215 -4.44042969 322.94604492 C2.22568083 302.42206181 2.09261762 277.7224181 -4.48828125 257.203125 C-4.69727051 256.53071777 -4.90625977 255.85831055 -5.12158203 255.16552734 C-15.8921424 221.38550018 -41.68118558 194.78751936 -72.70703125 178.5234375 C-133.81906115 147.9928859 -212.61088164 156.08968991 -263.19921875 203.125 Z " fill="#000000" transform="translate(325.48828125,25.796875)"/>
<path d="M0 0 C0.71944951 -0.00779995 1.43889902 -0.01559991 2.18015003 -0.02363622 C4.58571218 -0.0435459 6.98969041 -0.02779736 9.39526367 -0.01205444 C11.12186607 -0.01883108 12.84846124 -0.02773448 14.57504272 -0.03860474 C19.26106359 -0.06139931 23.94653406 -0.05256115 28.63256454 -0.03670931 C33.53630813 -0.02405113 38.44000457 -0.0357902 43.34375 -0.04364014 C51.57878074 -0.05273693 59.81358728 -0.04074798 68.04858398 -0.01693726 C77.56964364 0.01027408 87.09016796 0.00145994 96.61121464 -0.02606928 C104.78547021 -0.04875847 112.95956462 -0.05196136 121.13384151 -0.03887594 C126.01612562 -0.03108038 130.89815808 -0.03004271 135.78042603 -0.04655838 C140.37054124 -0.06100112 144.95996623 -0.05098521 149.55000687 -0.0220871 C151.23463418 -0.0154752 152.91931958 -0.01737578 154.6039238 -0.02840042 C156.90388841 -0.04206459 159.20164125 -0.02493367 161.50146484 0 C162.78824631 0.00188513 164.07502777 0.00377026 165.40080261 0.00571251 C169.62379689 0.79890289 171.10521954 2.32038005 173.75073242 5.63491821 C174.41479492 8.13491821 174.41479492 8.13491821 174.37573242 10.63491821 C174.38862305 11.45991821 174.40151367 12.28491821 174.41479492 13.13491821 C173.44241538 16.79564118 171.65984622 18.25350084 168.75073242 20.63491821 C165.40080261 21.26412392 165.40080261 21.26412392 161.50146484 21.26983643 C160.78201533 21.27763638 160.06256582 21.28543633 159.32131481 21.29347265 C156.91575266 21.31338233 154.51177443 21.29763379 152.10620117 21.28189087 C150.37959877 21.28866751 148.6530036 21.2975709 146.92642212 21.30844116 C142.24040126 21.33123573 137.55493079 21.32239758 132.8689003 21.30654573 C127.96515671 21.29388755 123.06146028 21.30562662 118.15771484 21.31347656 C109.9226841 21.32257336 101.68787756 21.31058441 93.45288086 21.28677368 C83.93182121 21.25956235 74.41129689 21.26837649 64.89025021 21.29590571 C56.71599463 21.3185949 48.54190022 21.32179779 40.36762333 21.30871236 C35.48533923 21.30091681 30.60330676 21.29987913 25.72103882 21.31639481 C21.1309236 21.33083755 16.54149862 21.32082163 11.95145798 21.29192352 C10.26683066 21.28531163 8.58214526 21.2872122 6.89754105 21.29823685 C4.59757643 21.31190101 2.2998236 21.2947701 0 21.26983643 C-1.28678146 21.2679513 -2.57356293 21.26606617 -3.89933777 21.26412392 C-8.12233205 20.47093354 -9.6037547 18.94945638 -12.24926758 15.63491821 C-12.91333008 13.13491821 -12.91333008 13.13491821 -12.87426758 10.63491821 C-12.8871582 9.80991821 -12.90004883 8.98491821 -12.91333008 8.13491821 C-11.12958612 1.41964685 -6.32937931 0.00927251 0 0 Z " fill="#000000" transform="translate(92.249267578125,345.3650817871094)"/>
<path d="M0 0 C1.31918427 -0.0087616 2.63836853 -0.01752319 3.99752808 -0.02655029 C7.60925713 -0.04931487 11.22027086 -0.04051978 14.83201218 -0.02465487 C18.61467136 -0.0119808 22.39727 -0.02374014 26.17993164 -0.03158569 C32.53184995 -0.04067793 38.88347743 -0.02870576 45.23535156 -0.00488281 C52.57520257 0.02232798 59.91435912 0.01351349 67.25419331 -0.01401484 C73.56011295 -0.03671728 79.86582374 -0.03990055 86.17177105 -0.02682149 C89.93625456 -0.01903309 93.70041182 -0.01796818 97.46487427 -0.03450394 C101.66189588 -0.05165255 105.85772358 -0.02787488 110.0546875 0 C111.30055634 -0.01012115 112.54642517 -0.02024231 113.83004761 -0.03067017 C123.19631447 0.08476629 123.19631447 0.08476629 126.29663086 3.03115845 C128.16400061 5.853517 128.70477513 7.29136431 128.65234375 10.64697266 C128.66523438 11.47197266 128.678125 12.29697266 128.69140625 13.14697266 C127.9629992 15.88921097 126.97471065 17.61837232 124.9119873 19.57868576 C120.51537964 22.07084845 114.95898651 21.33378672 110.0546875 21.29394531 C108.73550323 21.30270691 107.41631897 21.31146851 106.05715942 21.32049561 C102.44543037 21.34326018 98.83441664 21.33446509 95.22267532 21.31860018 C91.44001614 21.30592612 87.6574175 21.31768545 83.87475586 21.32553101 C77.52283755 21.33462325 71.17121007 21.32265108 64.81933594 21.29882812 C57.47948493 21.27161733 50.14032838 21.28043182 42.80049419 21.30796015 C36.49457455 21.3306626 30.18886376 21.33384586 23.88291645 21.32076681 C20.11843294 21.3129784 16.35427568 21.31191349 12.58981323 21.32844925 C8.39279162 21.34559786 4.19696392 21.32182019 0 21.29394531 C-1.86880325 21.30912704 -1.86880325 21.30912704 -3.77536011 21.32461548 C-13.14162697 21.20917902 -13.14162697 21.20917902 -16.24194336 18.26278687 C-18.10931311 15.44042831 -18.65008763 14.002581 -18.59765625 10.64697266 C-18.61054687 9.82197266 -18.6234375 8.99697266 -18.63671875 8.14697266 C-17.9083117 5.40473434 -16.92002315 3.67557299 -14.8572998 1.71525955 C-10.46069214 -0.77690314 -4.90429901 -0.03984141 0 0 Z " fill="#000000" transform="translate(137.97265625,285.35302734375)"/>
<path d="M0 0 C1.31918427 -0.0087616 2.63836853 -0.01752319 3.99752808 -0.02655029 C7.60925713 -0.04931487 11.22027086 -0.04051978 14.83201218 -0.02465487 C18.61467136 -0.0119808 22.39727 -0.02374014 26.17993164 -0.03158569 C32.53184995 -0.04067793 38.88347743 -0.02870576 45.23535156 -0.00488281 C52.57520257 0.02232798 59.91435912 0.01351349 67.25419331 -0.01401484 C73.56011295 -0.03671728 79.86582374 -0.03990055 86.17177105 -0.02682149 C89.93625456 -0.01903309 93.70041182 -0.01796818 97.46487427 -0.03450394 C101.66189588 -0.05165255 105.85772358 -0.02787488 110.0546875 0 C111.30055634 -0.01012115 112.54642517 -0.02024231 113.83004761 -0.03067017 C123.19631447 0.08476629 123.19631447 0.08476629 126.29663086 3.03115845 C128.16400061 5.853517 128.70477513 7.29136431 128.65234375 10.64697266 C128.66523438 11.47197266 128.678125 12.29697266 128.69140625 13.14697266 C127.9629992 15.88921097 126.97471065 17.61837232 124.9119873 19.57868576 C120.51537964 22.07084845 114.95898651 21.33378672 110.0546875 21.29394531 C108.73550323 21.30270691 107.41631897 21.31146851 106.05715942 21.32049561 C102.44543037 21.34326018 98.83441664 21.33446509 95.22267532 21.31860018 C91.44001614 21.30592612 87.6574175 21.31768545 83.87475586 21.32553101 C77.52283755 21.33462325 71.17121007 21.32265108 64.81933594 21.29882812 C57.47948493 21.27161733 50.14032838 21.28043182 42.80049419 21.30796015 C36.49457455 21.3306626 30.18886376 21.33384586 23.88291645 21.32076681 C20.11843294 21.3129784 16.35427568 21.31191349 12.58981323 21.32844925 C8.39279162 21.34559786 4.19696392 21.32182019 0 21.29394531 C-1.86880325 21.30912704 -1.86880325 21.30912704 -3.77536011 21.32461548 C-13.14162697 21.20917902 -13.14162697 21.20917902 -16.24194336 18.26278687 C-18.10931311 15.44042831 -18.65008763 14.002581 -18.59765625 10.64697266 C-18.61054688 9.82197266 -18.6234375 8.99697266 -18.63671875 8.14697266 C-17.9083117 5.40473434 -16.92002315 3.67557299 -14.8572998 1.71525955 C-10.46069214 -0.77690314 -4.90429901 -0.03984141 0 0 Z " fill="#000000" transform="translate(303.97265625,125.35302734375)"/>
<path d="M0 0 C3.125 1.875 3.125 1.875 5 5 C5.98876625 10.02622846 5.7769173 13.70513784 3.125 18.125 C-1.29486216 20.7769173 -4.97377154 20.98876625 -10 20 C-13.125 18.125 -13.125 18.125 -15 15 C-15.98876625 9.97377154 -15.7769173 6.29486216 -13.125 1.875 C-8.70513784 -0.7769173 -5.02622846 -0.98876625 0 0 Z " fill="#000000" transform="translate(95,286)"/>
<path d="M0 0 C3.125 1.875 3.125 1.875 5 5 C5.98876625 10.02622846 5.7769173 13.70513784 3.125 18.125 C-1.29486216 20.7769173 -4.97377154 20.98876625 -10 20 C-13.125 18.125 -13.125 18.125 -15 15 C-15.98876625 9.97377154 -15.7769173 6.29486216 -13.125 1.875 C-8.70513784 -0.7769173 -5.02622846 -0.98876625 0 0 Z " fill="#000000" transform="translate(261,126)"/>
</svg>
