<?xml version="1.0" encoding="UTF-8"?>
<svg version="1.1" xmlns="http://www.w3.org/2000/svg" width="512" height="512">
<path d="M0 0 C5.58971811 5.04277896 9.66987026 10.53057749 10.23535156 18.1862793 C10.29507879 21.94124916 10.26141831 25.6828287 10.1875 29.4375 C10.17396484 30.74138672 10.16042969 32.04527344 10.14648438 33.38867188 C10.11127334 36.59287622 10.06202094 39.79622105 10 43 C11.0621875 42.96519531 12.124375 42.93039063 13.21875 42.89453125 C31.08695875 42.47835282 31.08695875 42.47835282 38.62819767 49.38124657 C44.52412265 56.33855273 45.7320203 63.70053556 45.63110352 72.53662109 C45.64183647 74.1970343 45.64183647 74.1970343 45.65278625 75.89099121 C45.66957996 79.51890378 45.65033145 83.14556497 45.62890625 86.7734375 C45.62973544 89.30547182 45.63219672 91.83750609 45.63621521 94.36953735 C45.63906635 99.66006817 45.62496637 104.95027829 45.59692383 110.24072266 C45.56477973 116.35199347 45.56493144 122.46262683 45.5821386 128.5739435 C45.59800467 134.46973506 45.59117687 140.3653314 45.57420158 146.26112747 C45.56901531 148.76421206 45.56950694 151.26731501 45.57574654 153.77039719 C45.58118434 157.26058538 45.56087167 160.74968222 45.53344727 164.23974609 C45.54323608 165.79358505 45.54323608 165.79358505 45.55322266 167.3788147 C45.45987316 174.35014204 45.45987316 174.35014204 43.1502533 177.61392212 C40.32303635 179.43637851 38.36652162 179.93129548 35 180 C31.17082594 178.34649302 29.54020871 176.82167998 28 173 C27.74946022 170.83230591 27.74946022 170.83230591 27.7484436 168.44580078 C27.74036934 167.0831308 27.74036934 167.0831308 27.73213196 165.69293213 C27.73625595 164.70371765 27.74037994 163.71450317 27.74462891 162.6953125 C27.73919823 161.12399567 27.73919823 161.12399567 27.73365784 159.52093506 C27.72676487 157.24669262 27.72425821 154.97243364 27.72560501 152.69818115 C27.72656895 149.10091929 27.71364428 145.50395728 27.69662476 141.90673828 C27.65030568 131.67938548 27.62573421 121.45206343 27.61914062 111.22460938 C27.61413514 104.96940359 27.5899357 98.71451135 27.55381393 92.45941162 C27.54399513 90.07356648 27.54169525 87.68767833 27.54698563 85.30181885 C27.55403009 81.96909899 27.53682774 78.63731851 27.51416016 75.3046875 C27.52233261 74.31547302 27.53050507 73.32625854 27.53892517 72.30706787 C27.52790268 71.39862122 27.51688019 70.49017456 27.50552368 69.55419922 C27.50443415 68.76665253 27.50334461 67.97910583 27.50222206 67.16769409 C26.74396317 63.89489218 25.80494865 62.88820969 23 61 C19.66195112 60.40612519 16.36175179 60.4651645 12.97900391 60.49879456 C11.94935328 60.49326016 10.91970264 60.48772576 9.85885048 60.48202366 C6.3978446 60.46837641 2.93755476 60.483409 -0.5234375 60.49829102 C-3.00026761 60.49450934 -5.47709561 60.48901055 -7.95391846 60.48191833 C-13.98939862 60.4693809 -20.02459661 60.47554893 -26.06004953 60.49059392 C-33.08662252 60.50744363 -40.11314327 60.50424507 -47.13973022 60.50049984 C-59.67587805 60.49461951 -72.21192549 60.50879955 -84.74804688 60.53344727 C-96.91605391 60.55736857 -109.0839268 60.56445176 -121.25195312 60.55395508 C-134.49799725 60.54254894 -147.7439793 60.54061203 -160.99002266 60.55505317 C-162.40214157 60.55657903 -163.81426048 60.55809939 -165.22637939 60.55961418 C-165.92119238 60.560372 -166.61600537 60.56112981 -167.3318733 60.56191059 C-172.23124766 60.56665578 -177.13059432 60.56480032 -182.02996826 60.56054878 C-188.62256637 60.55511119 -195.21500532 60.56585142 -201.80757904 60.58750343 C-204.23118206 60.59308114 -206.65480296 60.59352765 -209.07840729 60.58855057 C-212.37881487 60.58262153 -215.67864817 60.5950576 -218.97900391 60.61231995 C-220.42821259 60.60330488 -220.42821259 60.60330488 -221.90669823 60.59410769 C-222.79001131 60.60254763 -223.67332439 60.61098757 -224.58340454 60.61968327 C-225.34523355 60.6207124 -226.10706257 60.62174152 -226.89197731 60.62280184 C-229.71981652 61.12880007 -231.01908637 61.91306416 -233 64 C-233.60133459 66.75814588 -233.60133459 66.75814588 -233.50057125 69.9673996 C-233.51038554 71.22206166 -233.52019983 72.47672372 -233.53031152 73.76940584 C-233.52097149 75.16947452 -233.51125589 76.56954073 -233.50120544 77.96960449 C-233.50509581 79.45086435 -233.51073412 80.93212049 -233.51797634 82.41336775 C-233.53278729 86.49409477 -233.52251662 90.57443813 -233.50823963 94.65515304 C-233.49716556 99.05194647 -233.50906057 103.4486845 -233.51808167 107.84547424 C-233.53204055 116.4628476 -233.52443847 125.08007478 -233.50940608 133.69744122 C-233.492577 143.72508326 -233.49575232 153.75268858 -233.49950016 163.78034037 C-233.50538359 181.66788023 -233.49118825 199.55534977 -233.46655273 217.44287109 C-233.44263055 234.81431718 -233.43554786 252.18566931 -233.44604492 269.55712891 C-233.45744508 288.45707215 -233.45939536 307.3569719 -233.44494683 326.25691462 C-233.44342093 328.27089087 -233.44190057 330.28486712 -233.44038582 332.29884338 C-233.439628 333.28985187 -233.43887019 334.28086036 -233.43808941 335.3018994 C-233.4333396 342.29766259 -233.43520295 349.29340641 -233.43945122 356.28916931 C-233.44436955 364.81047951 -233.43843085 373.33170073 -233.41855692 381.85299051 C-233.40866113 386.20369827 -233.40360433 390.55427034 -233.41144943 394.90498543 C-233.41847686 398.88353555 -233.41177108 402.86181116 -233.3938458 406.84032494 C-233.38978211 408.28374626 -233.39083311 409.72719238 -233.39736467 411.17060465 C-233.40545351 413.12459475 -233.39346077 415.07863776 -233.38031673 417.0326004 C-233.3792876 418.12039181 -233.37825848 419.20818322 -233.37719816 420.32893801 C-233.21454876 423.00961461 -233.21454876 423.00961461 -231.6637302 424.81046247 C-227.87232054 427.52125299 -223.8226178 427.14188015 -219.37709045 427.13130188 C-218.20141586 427.13447545 -218.20141586 427.13447545 -217.00199026 427.13771313 C-214.36727971 427.14371992 -211.73261697 427.14271251 -209.09790039 427.1418457 C-207.21234556 427.1448767 -205.32679147 427.14839798 -203.4412384 427.15237427 C-199.37664267 427.16026739 -195.31205573 427.1654097 -191.24745369 427.16866493 C-184.8233432 427.17456859 -178.39928829 427.19110211 -171.97520447 427.21000671 C-169.777257 427.21634414 -167.5793095 427.22266976 -165.38136196 427.22898388 C-164.28061081 427.23214969 -163.17985965 427.2353155 -162.04575241 427.23857725 C-147.08658237 427.28068577 -132.12743826 427.31364216 -117.16821289 427.32592773 C-107.08162994 427.33429674 -96.99518452 427.35674328 -86.90867037 427.3952834 C-81.56867188 427.41508132 -76.22887918 427.42743623 -70.88884163 427.42244911 C-65.86794723 427.4178171 -60.84744336 427.43152862 -55.82662773 427.45946121 C-53.98194027 427.4663971 -52.13721264 427.46647393 -50.29252625 427.45926094 C-47.77784622 427.4504197 -45.26446721 427.46598822 -42.74989319 427.48774719 C-42.01652884 427.47930466 -41.28316449 427.47086212 -40.52757698 427.46216375 C-37.0832636 427.51743644 -35.30408057 427.76342416 -32.5488348 429.9070158 C-30.86855378 432.17762698 -30.4564201 433.21088669 -30.5 436 C-30.4896875 436.66 -30.479375 437.32 -30.46875 438 C-31.26859016 441.01116294 -32.53740135 442.09563041 -35 444 C-37.79249615 444.39289012 -40.19075267 444.54082714 -42.98199463 444.50793457 C-44.19759477 444.51729451 -44.19759477 444.51729451 -45.43775249 444.52684355 C-48.15703861 444.54281572 -50.87543357 444.53015285 -53.59472656 444.51757812 C-55.54290796 444.52299754 -57.49108525 444.53011918 -59.43925476 444.53881836 C-64.73494256 444.55708087 -70.03031924 444.54997077 -75.32601261 444.53730202 C-80.86763925 444.52718378 -86.40923903 444.53656496 -91.9508667 444.54284668 C-101.26205226 444.55012894 -110.57311103 444.54052272 -119.88427734 444.52148438 C-130.64293044 444.49974013 -141.40128003 444.50674695 -152.1599257 444.52879 C-161.39744862 444.54695798 -170.63488029 444.54949468 -179.8724153 444.53903532 C-185.38913808 444.53280482 -190.90571837 444.53195213 -196.42243195 444.54518127 C-201.61324018 444.5567585 -206.80365858 444.54867958 -211.99442482 444.52560425 C-213.89710404 444.52032609 -215.79981621 444.52181561 -217.70248222 444.53065491 C-220.30545091 444.54163012 -222.90718048 444.52782331 -225.5100708 444.50793457 C-226.63247205 444.5213189 -226.63247205 444.5213189 -227.77754807 444.53497362 C-234.2369168 444.43962669 -239.37768265 442.29795405 -244.2421875 438.03515625 C-244.78101563 437.38417969 -245.31984375 436.73320312 -245.875 436.0625 C-246.42929688 435.41410156 -246.98359375 434.76570313 -247.5546875 434.09765625 C-250.57191855 429.71859389 -251.2507832 425.94860637 -251.26006222 420.67832565 C-251.26712781 419.39551452 -251.2741934 418.11270339 -251.2814731 416.7910192 C-251.2792218 415.36952925 -251.2767753 413.94803961 -251.27415466 412.52655029 C-251.27860722 411.01484482 -251.28392132 409.50314168 -251.29002339 407.99144197 C-251.30421175 403.83571867 -251.30586652 399.68007014 -251.30542648 395.52432609 C-251.30707395 391.04292995 -251.32013914 386.56156467 -251.33161926 382.08018494 C-251.35447365 372.28060292 -251.3623903 362.48104255 -251.36744571 352.68143749 C-251.37070213 346.5627097 -251.37722427 340.44398821 -251.3844471 334.32526398 C-251.40401338 317.38453753 -251.4204175 300.44381694 -251.42332363 283.50307846 C-251.4235112 282.41890479 -251.42369877 281.33473113 -251.42389202 280.21770371 C-251.42425828 278.01981592 -251.42462197 275.82192813 -251.42498314 273.62404034 C-251.42516595 272.53300449 -251.42534876 271.44196864 -251.42553711 270.31787109 C-251.42571766 269.22550377 -251.42589821 268.13313645 -251.42608423 267.00766709 C-251.42962625 249.30542776 -251.45665026 231.60331004 -251.494035 213.90111288 C-251.53210944 195.72691517 -251.55148104 177.55277781 -251.55178314 159.37853932 C-251.5523679 149.17418137 -251.56087158 138.96996851 -251.58978081 128.76564789 C-251.61428309 120.07691867 -251.62158534 111.38838745 -251.60653328 102.69963303 C-251.59935974 98.26705515 -251.60024088 93.83486835 -251.62294388 89.40233421 C-251.64354114 85.3420019 -251.64092698 81.28236115 -251.62006903 77.22203627 C-251.61657554 75.75567749 -251.62147837 74.28926874 -251.63577347 72.82297549 C-251.72220019 63.3446587 -250.95976218 56.29079901 -244.31084722 49.19810557 C-240.50990163 45.66113608 -236.43903115 44.42621109 -231.4621582 43.23364258 C-230.43742008 42.98628089 -230.43742008 42.98628089 -229.39198017 42.733922 C-226.9304285 42.14505525 -224.46572653 41.57113281 -222 41 C-221.03188259 40.77519833 -220.06376518 40.55039665 -219.06631088 40.31878281 C-211.35713997 38.53416957 -203.64129749 36.7793126 -195.92418981 35.02938771 C-192.49819673 34.25210262 -189.07267411 33.47274909 -185.64707947 32.69371033 C-170.80318759 29.31889144 -155.95692315 25.95451829 -141.11083984 22.58935547 C-140.36743882 22.42084705 -139.6240378 22.25233864 -138.85810947 22.07872391 C-131.43152189 20.39535587 -124.00487757 18.71223951 -116.57798195 17.030231 C-100.83996963 13.46573113 -85.10595996 9.88504702 -69.38147163 6.26124763 C-64.69073369 5.18187906 -59.99824366 4.11016477 -55.30543041 3.03985882 C-51.91993845 2.26709712 -48.53582477 1.4892268 -45.15463257 0.69784546 C-10.43465636 -7.40590918 -10.43465636 -7.40590918 0 0 Z M-33.77172852 15.66210938 C-35.02149979 15.94496292 -36.27127106 16.22781647 -37.55891418 16.51924133 C-40.96112145 17.28947255 -44.36049818 18.07157282 -47.75946927 18.85594368 C-51.32128505 19.67572566 -54.88561863 20.48441133 -58.44969177 21.29431152 C-65.18730379 22.82712137 -71.92261539 24.36979918 -78.65714353 25.91609526 C-86.32897047 27.67709098 -94.00331707 29.42697952 -101.67788804 31.17597103 C-117.45474807 34.77168859 -133.22840909 38.38123924 -149 42 C-149 42.33 -149 42.66 -149 43 C-102.14 43 -55.28 43 -7 43 C-7 34.75 -7 26.5 -7 18 C-11.11443788 13.0816237 -11.11443788 13.0816237 -14.00802517 12.41812897 C-20.7651049 12.76499953 -27.19105636 14.1297492 -33.77172852 15.66210938 Z " fill="#000000" transform="translate(293,36)"/>
<path d="M0 0 C18.9616425 17.61143266 31.14186227 40.00256452 32.3828125 66.08203125 C32.72399704 78.77168565 32.07760532 90.6836169 28 102.75 C27.78037598 103.40532715 27.56075195 104.0606543 27.33447266 104.73583984 C18.9522653 128.96890215 1.6807501 147.66802789 -20.8125 159.5625 C-43.46359801 170.38895702 -71.07205825 172.78100043 -95 164.75 C-120.41591673 155.7675973 -139.9197445 137.72547427 -152 113.75 C-162.90630588 89.6428148 -163.7568275 62.77842416 -154.84960938 37.90576172 C-150.63117954 27.2021021 -144.81170597 17.21152929 -137 8.75 C-136.11699219 7.77546875 -135.23398438 6.8009375 -134.32421875 5.796875 C-98.93471305 -32.06929932 -38.61391751 -33.71337446 0 0 Z M-82.3359375 1.9453125 C-93.28315914 13.47039335 -98.22648047 28.88770273 -101.375 44.125 C-101.54290039 44.93267822 -101.71080078 45.74035645 -101.88378906 46.57250977 C-103.01491596 52.54757157 -103 57.47214249 -103 63.75 C-93.1 63.75 -83.2 63.75 -73 63.75 C-73 41.31 -73 18.87 -73 -4.25 C-76.88655971 -4.25 -79.61976057 -0.56734685 -82.3359375 1.9453125 Z M-56 -4.25 C-56 18.19 -56 40.63 -56 63.75 C-45.77 63.75 -35.54 63.75 -25 63.75 C-25 56.93534807 -25.29297185 51.66658217 -26.625 45.1875 C-26.8017627 44.3219751 -26.97852539 43.4564502 -27.16064453 42.56469727 C-30.67278115 26.29080124 -37.15571661 6.65795672 -51.62109375 -3 C-53.84719092 -4.40504908 -53.84719092 -4.40504908 -56 -4.25 Z M-106 4.75 C-123.76387371 17.65420501 -136.76785001 33.02723442 -142 54.75 C-142.33 57.72 -142.66 60.69 -143 63.75 C-135.41 63.75 -127.82 63.75 -120 63.75 C-119.7525 60.965625 -119.505 58.18125 -119.25 55.3125 C-117.76069741 40.71582773 -114.37041909 27.78053304 -108.64208984 14.26000977 C-108.30129395 13.45490967 -107.96049805 12.64980957 -107.609375 11.8203125 C-107.29967773 11.10633301 -106.98998047 10.39235352 -106.67089844 9.65673828 C-105.8340449 7.61523204 -105.8340449 7.61523204 -106 4.75 Z M-23 4.75 C-21.58065203 9.18377271 -19.91249966 13.45259148 -18.125 17.75 C-11.98866182 33.02453189 -9.83687567 47.40180651 -8 63.75 C-0.41 63.75 7.18 63.75 15 63.75 C12.01399218 41.21921371 1.18959791 22.08532491 -16.80859375 8.23828125 C-18.8177979 6.87374153 -20.79842505 5.76804035 -23 4.75 Z M-143 80.75 C-141.04672104 100.28278958 -132.40229971 119.16422979 -117.33203125 132.19189453 C-113.99979331 134.87503235 -110.54598263 137.35506933 -107 139.75 C-106.34 139.42 -105.68 139.09 -105 138.75 C-105.37511719 137.9971875 -105.75023437 137.244375 -106.13671875 136.46875 C-114.70685821 118.68085348 -118.88073256 100.44910688 -120 80.75 C-127.59 80.75 -135.18 80.75 -143 80.75 Z M-103 80.75 C-103 88.12668893 -102.89225019 94.07482976 -101.3125 101.0625 C-101.13243408 101.8786377 -100.95236816 102.69477539 -100.7668457 103.53564453 C-97.36476236 118.36762342 -91.93443339 135.5441651 -80 145.75 C-77.69 147.07 -75.38 148.39 -73 149.75 C-73 126.98 -73 104.21 -73 80.75 C-82.9 80.75 -92.8 80.75 -103 80.75 Z M-56 80.75 C-56 103.52 -56 126.29 -56 149.75 C-51.03435806 147.76374323 -49.4789015 146.56830652 -46 142.75 C-45.071875 141.821875 -44.14375 140.89375 -43.1875 139.9375 C-33.41217737 128.3435127 -28.95323429 112.58596882 -26.25 98 C-26.12197998 97.31494385 -25.99395996 96.6298877 -25.86206055 95.92407227 C-24.96823254 90.67763573 -25 86.2332211 -25 80.75 C-35.23 80.75 -45.46 80.75 -56 80.75 Z M-8 80.75 C-8.37125 84.9265625 -8.37125 84.9265625 -8.75 89.1875 C-10.56354134 107.18006601 -15.83935696 123.21890124 -23 139.75 C-18.50135896 138.31636714 -15.49179594 135.81871114 -12.125 132.625 C-11.59616211 132.12782471 -11.06732422 131.63064941 -10.52246094 131.1184082 C-9.00244393 129.67457844 -7.49779742 128.21683384 -6 126.75 C-5.32195312 126.08613281 -4.64390625 125.42226563 -3.9453125 124.73828125 C7.40687298 112.67985381 13.20167193 96.93495264 15 80.75 C7.41 80.75 -0.18 80.75 -8 80.75 Z " fill="#000000" transform="translate(254,165.25)"/>
<path d="M0 0 C10.60903525 8.02891788 17.43988387 17.62065197 20.6875 30.6875 C21.09920268 33.99246498 21.16545018 37.23466975 21.125 40.5625 C21.11364014 41.87903564 21.11364014 41.87903564 21.10205078 43.22216797 C20.9297728 50.01394448 19.89130703 55.62812583 16.6875 61.6875 C16.03394531 62.97333984 16.03394531 62.97333984 15.3671875 64.28515625 C11.64478075 71.02820455 6.83202657 76.76850548 0.5078125 81.22265625 C-1.59996152 82.6484883 -1.59996152 82.6484883 -2.3125 85.6875 C-2.42909934 87.60404051 -2.48916749 89.52422153 -2.51782227 91.4440918 C-2.53776749 92.62508957 -2.55771271 93.80608734 -2.57826233 95.02287292 C-2.59497482 96.29794205 -2.61168732 97.57301117 -2.62890625 98.88671875 C-2.6600779 100.84470146 -2.6600779 100.84470146 -2.69187927 102.84223938 C-2.74702273 106.30932353 -2.79646595 109.77646646 -2.84472656 113.24365234 C-2.8949981 116.78293069 -2.95065463 120.32212389 -3.00585938 123.86132812 C-3.11334638 130.80331156 -3.21481227 137.74537194 -3.3125 144.6875 C-2.38695312 144.65398437 -1.46140625 144.62046875 -0.5078125 144.5859375 C3.71611621 144.7201944 5.45346766 146.01590806 8.6875 148.6875 C13.51215021 154.12176306 13.17377878 159.01957475 12.9375 166.0625 C12.91945313 167.08472656 12.90140625 168.10695313 12.8828125 169.16015625 C12.83589491 171.67024749 12.77026729 174.17837764 12.6875 176.6875 C13.25046783 176.67861755 13.81343567 176.66973511 14.39346313 176.6605835 C20.26594871 176.5719193 26.13824336 176.5116869 32.01123047 176.46777344 C34.20141324 176.44768893 36.39154259 176.42041583 38.58154297 176.38574219 C41.73418376 176.33708591 44.88611404 176.31449922 48.0390625 176.296875 C49.01428864 176.27622986 49.98951477 176.25558472 50.99429321 176.23431396 C56.72980774 176.23243147 60.26314749 176.6635376 64.6875 180.6875 C68.49335403 185.16866299 69.28498188 188.84282025 69.21875 194.5703125 C69.2225769 195.30700165 69.22640381 196.0436908 69.23034668 196.80270386 C69.23305473 198.35074236 69.22577132 199.89882749 69.20898438 201.44677734 C69.18749356 203.81320965 69.20885131 206.17662798 69.234375 208.54296875 C69.23173272 210.05209001 69.2266098 211.5612094 69.21875 213.0703125 C69.22684692 213.77455353 69.23494385 214.47879456 69.24328613 215.20437622 C69.17876786 218.5868963 68.90004494 220.40502563 66.84277344 223.13916016 C63.9250357 225.23525131 61.98892841 225.09190993 58.4375 224.9375 C57.35984375 224.90140625 56.2821875 224.8653125 55.171875 224.828125 C54.35203125 224.78171875 53.5321875 224.7353125 52.6875 224.6875 C52.70844727 225.32252441 52.72939453 225.95754883 52.75097656 226.61181641 C52.83454581 229.51188076 52.88628774 232.41169116 52.9375 235.3125 C52.97101563 236.31152344 53.00453125 237.31054688 53.0390625 238.33984375 C53.11798846 244.29875363 52.93301031 248.11865612 48.6875 252.6875 C42.93989339 257.9836045 36.75051917 257.25259465 29.25 257.20507812 C27.87954974 257.210503 26.50910532 257.21762771 25.13867188 257.22631836 C21.42785264 257.24451167 17.71747959 257.23750102 14.00665283 257.22480202 C10.11770451 257.21465349 6.22879362 257.22407283 2.33984375 257.23034668 C-4.19017372 257.23761772 -10.72001005 257.22804976 -17.25 257.20898438 C-24.79255185 257.18721654 -32.33467116 257.1942683 -39.87721252 257.21629 C-46.36063837 257.23445959 -52.84393423 257.23699474 -59.32737732 257.22653532 C-63.19635098 257.22030891 -67.06512153 257.21944111 -70.93408203 257.23268127 C-74.57206402 257.24426204 -78.20949 257.23617426 -81.84741211 257.21310425 C-83.81428265 257.20531847 -85.78120039 257.21715409 -87.74804688 257.22961426 C-98.56603951 257.12599364 -98.56603951 257.12599364 -103.3125 252.6875 C-106.99896079 247.90506438 -108.45273688 244.32066304 -108.41015625 238.359375 C-108.40693359 237.56015625 -108.40371094 236.7609375 -108.40039062 235.9375 C-108.39201172 235.1125 -108.38363281 234.2875 -108.375 233.4375 C-108.37048828 232.59703125 -108.36597656 231.7565625 -108.36132812 230.890625 C-108.34957961 228.82288599 -108.33164522 226.75518376 -108.3125 224.6875 C-109.06015625 224.73390625 -109.8078125 224.7803125 -110.578125 224.828125 C-118.67886379 225.12501071 -118.67886379 225.12501071 -121.9375 222.875 C-125.44682767 217.29197871 -124.53572276 210.86963559 -124.5625 204.5 C-124.583125 203.29279297 -124.60375 202.08558594 -124.625 200.84179688 C-124.68867352 186.28443861 -124.68867352 186.28443861 -119.86010742 181.14013672 C-116.15817605 177.94395822 -113.75714247 176.56055966 -108.95458984 176.57397461 C-107.60341568 176.57408791 -107.60341568 176.57408791 -106.22494507 176.57420349 C-105.25094757 176.57936478 -104.27695007 176.58452606 -103.2734375 176.58984375 C-102.27744537 176.5912587 -101.28145325 176.59267365 -100.25527954 176.59413147 C-97.06598947 176.59974064 -93.87676894 176.6122947 -90.6875 176.625 C-88.52864685 176.63001382 -86.36979259 176.63457693 -84.2109375 176.63867188 C-78.9114345 176.64971305 -73.61197222 176.66646012 -68.3125 176.6875 C-68.34730469 175.4809375 -68.38210938 174.274375 -68.41796875 173.03125 C-68.44612984 171.41668072 -68.47342749 169.80209621 -68.5 168.1875 C-68.52513672 167.39601563 -68.55027344 166.60453125 -68.57617188 165.7890625 C-68.65035891 159.75518401 -68.00708675 153.99165642 -64.03686523 149.12329102 C-60.36310267 145.70138103 -57.14695807 145.23166293 -52.3125 144.6875 C-52.16433893 136.79306207 -52.08236141 128.90173926 -52.08190536 121.00604534 C-52.07967673 117.33833063 -52.05574857 113.67358296 -51.97998047 110.0065918 C-50.77660899 93.37827229 -50.77660899 93.37827229 -55.92553711 78.44799805 C-58.70974119 75.63609489 -61.95253454 73.75851913 -65.3125 71.6875 C-73.42155471 61.7113974 -76.53063721 50.44125581 -76.3125 37.6875 C-74.6149459 22.83802188 -68.83581941 11.25049141 -57.3125 1.6875 C-40.68687609 -10.52355607 -17.29051611 -11.47532011 0 0 Z M-50.12890625 18.28515625 C-56.16126036 24.68035872 -58.52948346 31.99889215 -58.8125 40.6875 C-58.45767809 51.24059024 -54.85457638 58.419128 -47.3125 65.6875 C-45.27322257 67.41938634 -43.22928962 69.12157199 -41.109375 70.75390625 C-34.89027117 77.44620277 -35.83845297 86.01420446 -35.80078125 94.58984375 C-35.78391638 96.03717048 -35.76576372 97.48448272 -35.74638367 98.93177795 C-35.69907325 102.72103345 -35.66914193 106.51023019 -35.64294434 110.29968262 C-35.61304248 114.17451577 -35.56654548 118.04914686 -35.52148438 121.92382812 C-35.43566714 129.51163532 -35.36976261 137.09941374 -35.3125 144.6875 C-30.3625 144.6875 -25.4125 144.6875 -20.3125 144.6875 C-20.29268066 142.91181641 -20.27286133 141.13613281 -20.25244141 139.30664062 C-20.18445024 133.41528431 -20.1076589 127.52407733 -20.02497292 121.63291168 C-19.9751976 118.06390712 -19.92886734 114.4949295 -19.890625 110.92578125 C-19.85353329 107.47618687 -19.80711164 104.02682872 -19.75443649 100.57743835 C-19.72710435 98.63231177 -19.70923582 96.68705957 -19.69155884 94.74182129 C-19.54873079 86.11132992 -19.10738061 79.09777003 -14.3125 71.6875 C-14.3125 71.0275 -14.3125 70.3675 -14.3125 69.6875 C-13.72210938 69.4090625 -13.13171875 69.130625 -12.5234375 68.84375 C-4.9251657 64.87009549 0.56826968 57.90390893 3.33203125 49.796875 C5.04754091 39.61692759 4.00081009 30.44052612 -1.5625 21.73046875 C-7.20394412 14.37415383 -15.41708248 10.04378181 -24.5234375 8.8125 C-34.49776545 8.3654713 -42.67277844 11.72697072 -50.12890625 18.28515625 Z M-51.3125 160.6875 C-51.3125 165.9675 -51.3125 171.2475 -51.3125 176.6875 C-35.8025 176.6875 -20.2925 176.6875 -4.3125 176.6875 C-4.3125 171.4075 -4.3125 166.1275 -4.3125 160.6875 C-19.8225 160.6875 -35.3325 160.6875 -51.3125 160.6875 Z M-107.3125 192.6875 C-107.3125 197.9675 -107.3125 203.2475 -107.3125 208.6875 C-54.8425 208.6875 -2.3725 208.6875 51.6875 208.6875 C51.6875 203.4075 51.6875 198.1275 51.6875 192.6875 C-0.7825 192.6875 -53.2525 192.6875 -107.3125 192.6875 Z M-91.3125 224.6875 C-91.3125 229.9675 -91.3125 235.2475 -91.3125 240.6875 C-49.4025 240.6875 -7.4925 240.6875 35.6875 240.6875 C35.6875 235.4075 35.6875 230.1275 35.6875 224.6875 C-6.2225 224.6875 -48.1325 224.6875 -91.3125 224.6875 Z " fill="#000000" transform="translate(401.3125,223.3125)"/>
<path d="M0 0 C1.02738507 -0.00551503 1.02738507 -0.00551503 2.0755254 -0.01114148 C4.38166676 -0.02219705 6.68776309 -0.02602528 8.993927 -0.02983093 C10.64288477 -0.03609408 12.29184111 -0.04274075 13.9407959 -0.04974365 C18.42840131 -0.06716511 22.91599606 -0.07770815 27.40362692 -0.08594918 C30.20543828 -0.09109604 33.00724631 -0.09717185 35.80905533 -0.10346031 C44.56987546 -0.12251406 53.33068713 -0.13674581 62.091524 -0.14507228 C72.21479325 -0.15485179 82.33784425 -0.1811891 92.46103656 -0.22157317 C100.27933564 -0.25169567 108.09757201 -0.2665374 115.91592801 -0.26985329 C120.58864141 -0.27220787 125.26112172 -0.28122111 129.93377304 -0.30631447 C134.32835989 -0.32953328 138.72255912 -0.33385357 143.11719131 -0.32355309 C144.73130835 -0.32305613 146.34544408 -0.32942352 147.95950317 -0.34310913 C150.16113346 -0.36073438 152.36135841 -0.35376997 154.56298828 -0.34057617 C156.41189572 -0.3441587 156.41189572 -0.3441587 158.29815483 -0.34781361 C161.99264514 0.24013689 163.16194948 1.21612194 165.40847778 4.14717102 C165.93972778 6.14717102 165.93972778 6.14717102 165.90847778 8.14717102 C165.92394653 9.13717102 165.92394653 9.13717102 165.93972778 10.14717102 C165.15189328 13.11313622 163.79783372 14.24396403 161.40847778 16.14717102 C158.30374146 16.65053558 158.30374146 16.65053558 154.57644653 16.65510559 C153.8898143 16.66134555 153.20318207 16.66758552 152.4957428 16.67401457 C150.19547158 16.6899667 147.89625681 16.6773327 145.59597778 16.66474915 C143.94672019 16.67016932 142.29746744 16.67729139 140.64822388 16.68598938 C136.16887563 16.70423827 131.68989553 16.69714882 127.21054077 16.68447304 C122.52520752 16.67435345 117.83990601 16.68373582 113.15457153 16.6900177 C105.28602431 16.69729715 97.41762722 16.68769862 89.54910278 16.6686554 C80.44902007 16.64688606 71.34929582 16.65393723 62.2492218 16.67596102 C54.43934559 16.69410656 46.62957736 16.69667749 38.81968689 16.68620634 C34.15374881 16.67996675 29.48797928 16.67914854 24.822052 16.69235229 C20.43558961 16.70389791 16.04958985 16.69590889 11.66317749 16.67277527 C10.05230478 16.66748125 8.4413932 16.66901382 6.83053589 16.67782593 C4.63333278 16.68873842 2.43761705 16.67507242 0.24050903 16.65510559 C-1.60450195 16.65284344 -1.60450195 16.65284344 -3.48678589 16.65053558 C-7.18431162 16.05106329 -8.33448134 15.07526826 -10.59152222 12.14717102 C-11.96901276 8.65752831 -11.70267051 7.42239536 -10.27902222 3.89717102 C-7.49545271 -0.63901633 -5.0694892 0.01758684 0 0 Z " fill="#000000" transform="translate(96.59152221679688,407.8528289794922)"/>
<path d="M0 0 C1.14129364 -0.0071553 2.28258728 -0.01431061 3.45846558 -0.02168274 C4.71669128 -0.02437164 5.97491699 -0.02706055 7.27127075 -0.02983093 C8.60496193 -0.0360949 9.93865136 -0.04274164 11.27233887 -0.04974365 C14.9004664 -0.0671577 18.52858075 -0.07770618 22.15673971 -0.08594918 C24.42252043 -0.09109776 26.68829704 -0.09717351 28.95407486 -0.10346031 C36.04047111 -0.12251226 43.12685694 -0.13674422 50.21327388 -0.14507228 C58.39862905 -0.15485025 66.5837142 -0.18118408 74.76897418 -0.22157317 C81.09259393 -0.25170777 87.41613615 -0.26653855 93.73982632 -0.26985329 C97.51830144 -0.27220655 101.29648809 -0.28120236 105.07488632 -0.30631447 C108.62902564 -0.32955461 112.18268572 -0.33384523 115.73688126 -0.32355309 C117.66366926 -0.32281982 119.59043271 -0.34193902 121.51712036 -0.36161804 C122.66405365 -0.35467422 123.81098694 -0.34773041 124.99267578 -0.34057617 C125.98930174 -0.34296453 126.9859277 -0.34535288 128.01275444 -0.34781361 C131.34414977 0.28384588 132.52919047 1.53834302 134.62332153 4.14717102 C135.15457153 6.14717102 135.15457153 6.14717102 135.12332153 8.14717102 C135.13879028 9.13717102 135.13879028 9.13717102 135.15457153 10.14717102 C134.37833332 13.06947958 132.94001084 14.24139728 130.62332153 16.14717102 C128.01834106 16.65053558 128.01834106 16.65053558 125.00613403 16.65510559 C123.86209106 16.66638489 122.7180481 16.67766418 121.53933716 16.68928528 C120.288302 16.68118835 119.03726685 16.67309143 117.74832153 16.66474915 C116.41432939 16.6701707 115.08034323 16.67729356 113.74636841 16.68598938 C110.12646805 16.70422215 106.50702379 16.69715576 102.88711548 16.68447304 C99.09865084 16.67434497 95.31022521 16.68373817 91.52175903 16.6900177 C85.15970855 16.6972947 78.79784381 16.68770515 72.43582153 16.6686554 C65.08072016 16.64688639 57.7260623 16.65393773 50.37097168 16.67596102 C44.05576786 16.69411364 37.74069755 16.69667407 31.42547607 16.68620634 C27.6537855 16.67997058 23.88230339 16.67913784 20.11062622 16.69235229 C16.564598 16.70390837 13.01914151 16.69589046 9.47317505 16.67277527 C7.55122666 16.66496416 5.62922991 16.67684624 3.70730591 16.68928528 C1.99124146 16.67236633 1.99124146 16.67236633 0.24050903 16.65510559 C-0.75351929 16.65359749 -1.74754761 16.65208939 -2.771698 16.65053558 C-6.1026674 16.00688701 -7.27421235 14.75345005 -9.37667847 12.14717102 C-10.75416901 8.65752831 -10.48782676 7.42239536 -9.06417847 3.89717102 C-6.4969636 -0.2864384 -4.66027276 0.01999814 0 0 Z " fill="#000000" transform="translate(127.37667846679688,375.8528289794922)"/>
</svg>
