<?xml version="1.0" encoding="UTF-8"?>
<svg version="1.1" xmlns="http://www.w3.org/2000/svg" width="1262" height="462">
<path d="M0 0 C1.30312889 -0.01279495 1.30312889 -0.01279495 2.63258362 -0.02584839 C3.57803543 -0.02494202 4.52348724 -0.02403564 5.49758911 -0.02310181 C7.00092049 -0.03317764 7.00092049 -0.03317764 8.53462219 -0.04345703 C11.85452212 -0.06248125 15.17422005 -0.06636461 18.49417114 -0.06851196 C20.80904218 -0.07494084 23.1239124 -0.08166927 25.43878174 -0.08868408 C30.29938639 -0.10067077 35.15991994 -0.10436387 40.02053833 -0.10317993 C46.21838061 -0.10297759 52.41575997 -0.13018587 58.61349297 -0.16472435 C63.40079801 -0.18708649 68.18799372 -0.19101449 72.97534561 -0.18996048 C75.25806384 -0.19230604 77.54078556 -0.20107001 79.823452 -0.21662521 C100.66405355 -0.34524971 117.745163 2.17661258 133.60354614 17.11898804 C147.37236978 31.73839537 150.93151055 48.35849249 150.91751099 67.73934937 C150.92350304 69.39919332 150.93031013 71.0590345 150.93786621 72.71887207 C150.9554528 77.20401691 150.96021814 81.68908534 150.96149778 86.17426133 C150.96292275 88.97762416 150.96719862 91.78096775 150.97249222 94.58432579 C150.99095975 104.36664432 150.9991659 114.14890851 150.99758911 123.9312439 C150.99638475 133.04901613 151.0175531 142.16655278 151.04907644 151.28426534 C151.07520126 159.11969994 151.08595819 166.95505731 151.08467829 174.79053515 C151.08416806 179.46760185 151.08988689 184.14445843 151.11103439 188.8214817 C151.13035592 193.21371752 151.13058334 197.60554119 151.11600113 201.99779129 C151.11390517 203.61029472 151.11866061 205.22282359 151.13072205 206.83528328 C151.14610872 209.03436934 151.13691259 211.23202193 151.12145996 213.43107605 C151.1225495 214.66196362 151.12363903 215.8928512 151.12476158 217.1610384 C150.62698364 220.26742554 150.62698364 220.26742554 148.86701965 222.66295147 C146.3895652 224.43748162 145.29671618 224.76927802 142.29193115 224.77536011 C141.43159271 224.7866394 140.57125427 224.7979187 139.68484497 224.80953979 C138.28069336 224.79739441 138.28069336 224.79739441 136.84817505 224.78500366 C135.8557077 224.79201294 134.86324036 224.79902222 133.84069824 224.8062439 C130.55303088 224.8238735 127.26622263 224.81217415 123.97854614 224.79867554 C121.68609452 224.80137115 119.39364401 224.80525415 117.10119629 224.81027222 C112.28757889 224.81617578 107.474258 224.80758432 102.66067505 224.78890991 C96.52331393 224.76624864 90.38665748 224.77915664 84.24932289 224.80319977 C79.50830916 224.81774443 74.76745868 224.81301 70.02643967 224.8026886 C67.76606537 224.8000385 65.50567577 224.80322994 63.24531937 224.81260681 C40.2808981 224.88689272 21.6828977 220.92230151 4.62698364 204.26742554 C-8.55932827 189.64297515 -12.67791575 173.67512225 -12.6635437 154.47567749 C-12.66953473 152.87671598 -12.67634159 151.27775736 -12.68389893 149.67880249 C-12.7014988 145.35468263 -12.7062515 141.03064202 -12.7075305 136.7064898 C-12.70895504 134.00346258 -12.71323017 131.30045533 -12.71852493 128.59743309 C-12.73699892 119.16409404 -12.74519805 109.73081138 -12.74362183 100.29745483 C-12.74241822 91.50747706 -12.76357007 82.71774395 -12.79510915 73.92782813 C-12.82124815 66.37349935 -12.83199026 58.81925069 -12.83071101 51.26487702 C-12.83020106 46.75599335 -12.83590333 42.24732772 -12.85706711 37.73848915 C-12.87641181 33.50220611 -12.87660008 29.26635018 -12.86203384 25.03005219 C-12.85994057 23.47602147 -12.86467749 21.92196424 -12.87675476 20.36797905 C-12.89218001 18.24580772 -12.88291985 16.12511468 -12.86749268 14.00297546 C-12.86858221 12.81595693 -12.86967175 11.62893839 -12.8707943 10.40594959 C-12.26414157 6.58096255 -11.10077402 4.97666241 -8.37301636 2.26742554 C-5.53714761 0.40841614 -3.36015237 0.01496764 0 0 Z " fill="#EE435D" transform="translate(12.373016357421875,203.73257446289063)"/>
<path d="M0 0 C0.7211499 -0.0065712 1.4422998 -0.0131424 2.18530273 -0.01991272 C4.55395637 -0.0395036 6.9225472 -0.05127329 9.29125977 -0.0612793 C10.10446245 -0.06535482 10.91766514 -0.06943035 11.75551033 -0.07362938 C16.055917 -0.09442461 20.35629234 -0.10875723 24.65673828 -0.11816406 C29.08630529 -0.12924459 33.51537224 -0.16368185 37.94476223 -0.20333576 C41.36351939 -0.22952236 44.78215731 -0.23785744 48.20100594 -0.24144554 C49.83362283 -0.24630233 51.46623473 -0.2578904 53.09875298 -0.27648354 C55.38654946 -0.30093108 57.67304937 -0.29990107 59.9609375 -0.29296875 C61.25966293 -0.29883499 62.55838837 -0.30470123 63.89646912 -0.31074524 C69.25153151 0.40510393 73.94730231 2.76417935 77.35766602 7.11450195 C81.11915536 12.38058703 81.84368744 16.63559339 81.83569336 23.01806641 C81.84241058 23.79288864 81.84912781 24.56771088 81.85604858 25.36601257 C81.87501826 27.9241685 81.87895388 30.48206132 81.88110352 33.0402832 C81.88753798 34.83326827 81.89426682 36.62625231 81.90127563 38.41923523 C81.91325001 42.18267238 81.91695688 45.9460178 81.91577148 49.70947266 C81.91556962 54.48907816 81.94273242 59.26808015 81.9773159 64.04754353 C81.99977491 67.75663343 82.00360308 71.46558324 82.00255203 75.17473412 C82.0048849 76.93387088 82.01357493 78.69301291 82.02921677 80.45208168 C82.14452421 94.77417217 80.74897803 108.60836285 73.85766602 121.48950195 C73.51517822 122.14700439 73.17269043 122.80450684 72.81982422 123.48193359 C62.47675407 142.64503868 44.77589984 154.26564083 24.30297852 160.43481445 C23.39290039 160.67973633 22.48282227 160.9246582 21.54516602 161.17700195 C20.73821289 161.40129883 19.93125977 161.6255957 19.09985352 161.85668945 C-1.70515794 166.61771088 -24.44045841 162.76904347 -42.83374023 152.2434082 C-62.50061862 139.34515463 -75.26064739 121.42727085 -80.83300781 98.47070312 C-81.87801736 92.93547589 -81.9432963 87.48359939 -81.89233398 81.86450195 C-81.88403564 80.67896729 -81.8757373 79.49343262 -81.8671875 78.27197266 C-81.51387937 59.9188098 -75.43784646 44.15718317 -63.45483398 30.17700195 C-62.78581055 29.29334961 -62.78581055 29.29334961 -62.10327148 28.3918457 C-48.46782852 10.88904026 -21.72810116 0.16479777 0 0 Z " fill="#ED3A60" transform="translate(81.454833984375,-0.177001953125)"/>
<path d="M0 0 C11.21467386 -0.06987747 22.4292949 -0.1230014 33.6441431 -0.15543652 C38.85309162 -0.17101308 44.06188988 -0.19210293 49.27075195 -0.22631836 C54.30879099 -0.2592001 59.34668659 -0.27691304 64.38482475 -0.28463173 C66.29550874 -0.290124 68.20618595 -0.30084707 70.11680794 -0.31719017 C89.57948154 -0.47686842 108.37948405 0.9573465 123.1328125 15.03515625 C131.20601369 23.48073756 134.10795138 32.37209373 134 44 C133.30803779 53.9230326 128.81389806 61.69282431 121.5625 68.375 C117.91389141 71.42993668 114.23294479 73.83849628 110 76 C110.83402344 76.27972656 111.66804688 76.55945313 112.52734375 76.84765625 C124.08041368 80.9633547 132.08966591 86.03197018 138 97 C141.95847389 106.19965883 142.22292502 116.01108299 139.0390625 125.48828125 C134.01410586 137.63507493 126.86273194 144.39110519 115.37890625 150.421875 C101.83096527 155.91951523 86.98528465 155.40644742 72.65625 155.29296875 C70.54919744 155.28735926 68.44214091 155.28309558 66.33508301 155.28010559 C60.84426682 155.26876322 55.35369649 155.23938988 49.86297607 155.20599365 C44.23811161 155.17506144 38.61320662 155.16155124 32.98828125 155.14648438 C21.99208069 155.11450795 10.99606095 155.06344324 0 155 C0 153.68 0 152.36 0 151 C1.10859375 150.82984375 2.2171875 150.6596875 3.359375 150.484375 C4.82305768 150.24042789 6.28659196 149.99558924 7.75 149.75 C8.47960937 149.64042969 9.20921875 149.53085937 9.9609375 149.41796875 C13.22951062 148.85339703 15.58309562 148.26976166 18.390625 146.453125 C22.7551855 139.80034831 22.28898124 131.2372103 22.25878906 123.56445312 C22.2622937 122.45593491 22.26579834 121.34741669 22.26940918 120.20530701 C22.27816656 116.56388979 22.27239846 112.92266899 22.265625 109.28125 C22.26697337 106.737345 22.26891534 104.19344025 22.27142334 101.64953613 C22.27436649 96.32703959 22.27029572 91.00461257 22.26074219 85.68212891 C22.24985994 79.54897678 22.25338638 73.41595769 22.264395 67.28280878 C22.27460195 61.35665447 22.27347406 55.4305411 22.26763153 49.50437927 C22.26630107 46.99425742 22.26792153 44.48413215 22.27259064 41.97401428 C22.27769164 38.46110143 22.26989526 34.94844102 22.25878906 31.43554688 C22.26283752 30.40670883 22.26688599 29.37787079 22.27105713 28.31785583 C22.21592251 17.95755794 22.21592251 17.95755794 18.390625 8.546875 C14.9973821 6.35124724 11.70452753 5.84387781 7.75 5.25 C7.00492187 5.12496094 6.25984375 4.99992188 5.4921875 4.87109375 C3.66379497 4.56636166 1.83215696 4.28121479 0 4 C0 2.68 0 1.36 0 0 Z M46 10 C46 29.8 46 49.6 46 70 C51.61744697 71.40436174 57.18573232 71.2242351 62.94213867 71.24023438 C65.0315053 71.24985725 67.11985176 71.2808652 69.20898438 71.3125 C80.85991708 71.40563247 92.10930564 70.25070275 101 62 C106.80288922 54.56582647 109.81915652 46.50221562 109 37 C107.23575288 27.37683387 102.58151054 20.24800221 94.5625 14.625 C85.14503937 8.82345856 76.52205104 7.81869471 65.6875 7.8125 C64.01397461 7.79413086 64.01397461 7.79413086 62.30664062 7.77539062 C60.6756543 7.77249023 60.6756543 7.77249023 59.01171875 7.76953125 C57.53384888 7.76336792 57.53384888 7.76336792 56.02612305 7.75708008 C52.27704724 7.95808628 52.27704724 7.95808628 46 10 Z M46 80 C46 101.45 46 122.9 46 145 C62.67908163 148.0325603 83.03399098 150.6169954 98.3671875 141.609375 C105.35933214 136.74304723 110.72710184 130.28157042 113 122 C114.35616265 111.48973947 112.66337253 102.21438335 106.23828125 93.65234375 C98.24244126 84.97531658 86.67226248 80.46060863 75.01879883 79.76098633 C70.61512552 79.67247905 66.2163444 79.7383774 61.8125 79.8125 C56.594375 79.874375 51.37625 79.93625 46 80 Z " fill="#231F20" transform="translate(276,235)"/>
<path d="M0 0 C37.95 0 75.9 0 115 0 C111.89592528 5.58733449 109.20121069 10.34287451 105.5 15.375 C101.52997443 20.83359712 97.67191895 26.35714452 93.875 31.9375 C88.95875785 39.15474318 83.99474683 46.33686613 79 53.5 C72.43770921 62.91474579 65.93791222 72.37023067 59.46875 81.84912109 C52.06320435 92.69401091 44.58055524 103.48408968 37.07226562 114.25805664 C32.03159745 121.49830005 27.03401948 128.76689191 22.07275391 136.06176758 C21.5782373 136.78775146 21.0837207 137.51373535 20.57421875 138.26171875 C20.14713623 138.89037842 19.72005371 139.51903809 19.2800293 140.16674805 C17.89776152 142.14642547 16.45248148 144.07144809 15 146 C22.84198231 146.0467081 30.68393094 146.08206192 38.52601814 146.10362434 C42.168926 146.11398252 45.81173745 146.12799252 49.45458984 146.15087891 C52.98188067 146.17289606 56.50907983 146.18462819 60.03643417 146.18975449 C62.01130959 146.19515126 63.98614905 146.21071565 65.96096802 146.22659302 C85.26400234 146.3854649 85.26400234 146.3854649 101.625 137.5 C106.8234244 130.58047562 110.18692076 122.12667336 113 114 C114.65 114 116.3 114 118 114 C117.3609607 122.31114873 115.94352269 130.43257406 114.4375 138.625 C114.20353516 139.91535156 113.96957031 141.20570313 113.72851562 142.53515625 C113.15583257 145.69075678 112.57958347 148.84566088 112 152 C112.94221437 151.99484627 113.88442873 151.98969254 114.85519505 151.98438263 C146.59090563 151.8112304 178.32667897 151.65151334 210.0625 151.5 C211.30554539 151.49405146 212.54859078 151.48810292 213.82930422 151.48197412 C291.72530621 151.1100324 369.61983065 150.92036082 474.60868138 150.93684149 C476.69475933 150.9375023 478.78083728 150.93814491 480.86691523 150.93878555 C515.91128433 150.94966891 550.95564111 150.97084011 586 151 C586 129.55 586 108.1 586 86 C586.99 86 587.98 86 589 86 C589 108.44 589 130.88 589 154 C560.35426692 154.18668508 531.708455 154.35131238 503.0625 154.5 C501.92102823 154.50594854 500.77955647 154.51189708 499.60349464 154.51802588 C402.80267215 155.02058812 306.00233635 155.07756812 166.07838982 155.06315851 C162.74008874 155.06249804 159.40178766 155.06185528 156.06348658 155.06121445 C98.70898708 155.05008381 41.3544928 155.0297885 -16 155 C-16.16475597 149.9299165 -15.66308284 147.84172633 -12.48828125 143.82421875 C-11.3892749 142.39408447 -11.3892749 142.39408447 -10.26806641 140.93505859 C-9.51960449 139.96648926 -8.77114258 138.99791992 -8 138 C-6.68957201 136.16101228 -5.39111946 134.3134255 -4.10546875 132.45703125 C-3.46609375 131.53728516 -2.82671875 130.61753906 -2.16796875 129.66992188 C-1.51441406 128.72697266 -0.86085938 127.78402344 -0.1875 126.8125 C0.51117187 125.80638672 1.20984375 124.80027344 1.9296875 123.76367188 C6.2332333 117.56196913 10.51817769 111.34778415 14.78759766 105.12255859 C20.78837942 96.38108829 26.85965097 87.68840373 32.91943359 78.98779297 C36.28143896 74.1597923 39.64064566 69.32984548 43 64.5 C47.05712678 58.66694595 51.11497287 52.83439808 55.17578125 47.00390625 C61.2178884 38.32706045 67.25802519 29.64907582 73.25 20.9375 C73.89449097 20.00079468 73.89449097 20.00079468 74.55200195 19.04516602 C77.06564785 15.38366733 79.53928601 11.69720662 82 8 C75.45679959 8.09351755 68.91392619 8.20095551 62.37109375 8.31738281 C60.15239441 8.3553038 57.93364127 8.39021558 55.71484375 8.421875 C30.98576412 7.30145389 30.98576412 7.30145389 9.8125 17.1875 C5.79526466 23.42114104 4.44482262 30.80988271 3 38 C1.02 38 -0.96 38 -3 38 C-2.01 25.46 -1.02 12.92 0 0 Z " fill="#231F20" transform="translate(617,235)"/>
<path d="M0 0 C1.4540625 0.0309375 1.4540625 0.0309375 2.9375 0.0625 C9.40894608 15.04361409 15.79770531 30.05631994 22.0625 45.125 C22.36966949 45.86381409 22.67683899 46.60262817 22.99331665 47.36383057 C24.27942908 50.45757266 25.56545459 53.55135085 26.8513031 56.64520264 C32.82156419 71.00506767 38.83256955 85.34795236 44.84841919 99.68876648 C46.7482824 104.21925748 48.64244087 108.7520175 50.52667236 113.28903198 C51.74290223 116.21521019 52.96590383 119.13855886 54.1875 122.0625 C54.59258789 123.04492676 54.99767578 124.02735352 55.41503906 125.03955078 C61.49098585 139.95078079 61.49098585 139.95078079 72.8125 150.8125 C76.2113575 152.172043 79.30503496 152.6992535 82.9375 153.0625 C82.9375 154.7125 82.9375 156.3625 82.9375 158.0625 C62.4775 158.0625 42.0175 158.0625 20.9375 158.0625 C20.9375 156.4125 20.9375 154.7625 20.9375 153.0625 C21.61296875 152.95292969 22.2884375 152.84335937 22.984375 152.73046875 C23.87640625 152.57191406 24.7684375 152.41335938 25.6875 152.25 C27.01007813 152.02376953 27.01007813 152.02376953 28.359375 151.79296875 C31.20014213 150.98808473 32.81933447 150.11296161 34.9375 148.0625 C36.97820033 136.02236805 28.87899132 122.63982297 24.0390625 111.85546875 C22.9375 109.0625 22.9375 109.0625 22.9375 106.0625 C3.4675 106.3925 -16.0025 106.7225 -36.0625 107.0625 C-38.970625 113.7759375 -38.970625 113.7759375 -41.9375 120.625 C-42.84991455 122.72210327 -42.84991455 122.72210327 -43.78076172 124.86157227 C-44.26303223 125.98104248 -44.74530273 127.1005127 -45.2421875 128.25390625 C-45.73444824 129.39029541 -46.22670898 130.52668457 -46.73388672 131.69750977 C-49.95410419 139.71493623 -49.95410419 139.71493623 -49.0625 148.0625 C-45.9198572 151.07973217 -43.05881255 151.64997757 -38.8125 152.25 C-37.73484375 152.40855469 -36.6571875 152.56710937 -35.546875 152.73046875 C-34.72703125 152.84003906 -33.9071875 152.94960938 -33.0625 153.0625 C-33.0625 154.7125 -33.0625 156.3625 -33.0625 158.0625 C-49.5625 158.0625 -66.0625 158.0625 -83.0625 158.0625 C-83.0625 156.4125 -83.0625 154.7625 -83.0625 153.0625 C-82.33804687 152.92714844 -81.61359375 152.79179687 -80.8671875 152.65234375 C-75.28430527 151.40922197 -70.9576811 150.36591498 -67.59912109 145.54272461 C-59.10577233 131.83380659 -53.33933341 116.35199828 -47.0625 101.5625 C-46.01891068 99.11387189 -44.97489573 96.66543055 -43.93017578 94.21728516 C-42.02777238 89.75817614 -40.12691383 85.29841512 -38.22800636 80.83781624 C-34.61996968 72.36318531 -30.99702199 63.89500263 -27.3671875 55.4296875 C-27.09519783 54.79535545 -26.82320816 54.16102341 -26.54297638 53.50746918 C-25.19713845 50.36891021 -23.8510722 47.23044924 -22.50488281 44.09204102 C-20.48762326 39.38855842 -18.47157263 34.6845584 -16.45587158 29.98040771 C-15.53919209 27.84146228 -14.6221729 25.7026624 -13.70477295 23.56402588 C-11.82620009 19.18407258 -9.95000064 14.80326385 -8.09082031 10.41503906 C-7.8065921 9.74582428 -7.52236389 9.0766095 -7.22952271 8.38711548 C-6.51461543 6.7023803 -5.80233247 5.01653213 -5.09033203 3.33056641 C-3.61442905 0.07376386 -3.61442905 0.07376386 0 0 Z M-7.0625 37.0625 C-9.48031802 42.69569094 -11.8972623 48.32925575 -14.31347656 53.96313477 C-15.13160926 55.87045858 -15.94996043 57.77768869 -16.76855469 59.68481445 C-17.96089541 62.46279257 -19.15238774 65.2411334 -20.34375 68.01953125 C-20.69618774 68.84016556 -21.04862549 69.66079987 -21.41174316 70.50630188 C-25.34050987 79.67314926 -29.19199891 88.87005992 -33.0625 98.0625 C-15.9025 98.0625 1.2575 98.0625 18.9375 98.0625 C16.7037888 91.20975426 16.7037888 91.20975426 14.11572266 84.55932617 C13.79173492 83.79790817 13.46774719 83.03649017 13.13394165 82.2519989 C12.79325653 81.46114395 12.45257141 80.670289 12.1015625 79.85546875 C11.55971817 78.58549797 11.55971817 78.58549797 11.00692749 77.28987122 C9.86210899 74.60847856 8.71248356 71.92918097 7.5625 69.25 C6.42334963 66.58722391 5.28520392 63.92402003 4.14715576 61.26077271 C3.41520066 59.54808648 2.68282739 57.83557889 1.95001221 56.1232605 C-0.76046144 49.78587911 -3.43273753 43.43386708 -6.0625 37.0625 C-6.3925 37.0625 -6.7225 37.0625 -7.0625 37.0625 Z " fill="#231F20" transform="translate(513.0625,231.9375)"/>
<path d="M0 0 C22.44 0 44.88 0 68 0 C68 1.32 68 2.64 68 4 C67.13117188 4.09796875 66.26234375 4.1959375 65.3671875 4.296875 C56.40519666 5.33941268 56.40519666 5.33941268 49 10 C44.89699607 16.96856989 45.85429389 26.04311074 45.87060547 33.86889648 C45.86885315 34.91728699 45.86710083 35.96567749 45.86529541 37.0458374 C45.86091911 40.4876067 45.8638002 43.92932399 45.8671875 47.37109375 C45.8665132 49.77808136 45.86554212 52.1850689 45.86428833 54.59205627 C45.86281703 59.6278651 45.86494748 64.66365614 45.86962891 69.69946289 C45.87532275 76.13615302 45.87204574 82.57280142 45.86605644 89.00949001 C45.86243289 93.97760835 45.86359772 98.94571689 45.86618423 103.91383553 C45.8668487 106.28636747 45.86604197 108.65890031 45.86370468 111.0314312 C45.861149 114.35488089 45.86505981 117.6782642 45.87060547 121.00170898 C45.86858124 121.97084732 45.86655701 122.93998566 45.86447144 123.93849182 C45.5283534 134.88088763 45.5283534 134.88088763 48.75 145 C52.74826843 148.55401639 57.12141346 149.3263713 62.3125 150.125 C63.91544922 150.37636719 63.91544922 150.37636719 65.55078125 150.6328125 C66.35902344 150.75398437 67.16726563 150.87515625 68 151 C68 152.32 68 153.64 68 155 C45.56 155 23.12 155 0 155 C0 153.68 0 152.36 0 151 C0.86882812 150.90203125 1.73765625 150.8040625 2.6328125 150.703125 C11.61688954 149.6926059 11.61688954 149.6926059 19 145 C24.43332474 133.55210277 22.1463322 117.84483181 22.1328125 105.4453125 C22.13348753 103.25397735 22.1344592 101.06264227 22.13571167 98.87130737 C22.13717991 94.29391767 22.1350627 89.71654757 22.13037109 85.13916016 C22.12468115 79.30716956 22.12795377 73.47522506 22.13394356 67.64323616 C22.13757861 63.12189393 22.13639701 58.6005624 22.13381577 54.07921982 C22.13315427 51.9304898 22.13394735 49.78175877 22.13629532 47.63302994 C23.55761209 27.4042938 23.55761209 27.4042938 18 9 C12.6632198 5.30530601 6.28960008 4.86507445 0 4 C0 2.68 0 1.36 0 0 Z " fill="#231F20" transform="translate(200,235)"/>
<path d="M0 0 C6.88260037 -0.10231073 13.76500112 -0.17184349 20.64819336 -0.21972656 C22.98453093 -0.23971041 25.32081933 -0.26690688 27.65698242 -0.30175781 C58.5 -0.75 58.5 -0.75 69 8 C69.57105469 8.46921875 70.14210938 8.9384375 70.73046875 9.421875 C79.03148373 16.85561976 82.29320133 27.38307154 83.18359375 38.23828125 C83.53352086 49.82704373 80.5970966 61.79319374 72.625 70.5625 C62.17590881 79.80592682 50.85258756 82.50112371 37.20703125 82.29296875 C36.13498947 82.28872391 35.06294769 82.28447906 33.9584198 82.28010559 C30.57617739 82.26347989 27.19455851 82.22585846 23.8125 82.1875 C21.50196181 82.17243233 19.19141416 82.1587476 16.88085938 82.14648438 C11.25369798 82.11362944 5.62689356 82.06359403 0 82 C0 81.34 0 80.68 0 80 C0.63808594 79.80664062 1.27617188 79.61328125 1.93359375 79.4140625 C3.17302734 79.02347656 3.17302734 79.02347656 4.4375 78.625 C5.26121094 78.36976563 6.08492187 78.11453125 6.93359375 77.8515625 C9.17798016 77.19117773 9.17798016 77.19117773 10 75 C10.10206267 72.86134275 10.13843135 70.71944946 10.14526367 68.57836914 C10.14862228 67.91965317 10.1519809 67.26093719 10.15544128 66.58226013 C10.16495764 64.39987311 10.16689471 62.21756274 10.16796875 60.03515625 C10.17118078 58.52062447 10.17454481 57.00609301 10.17805481 55.49156189 C10.18404773 52.31476115 10.18589453 49.13798763 10.18530273 45.96118164 C10.18520108 41.88773824 10.19885546 37.81446903 10.21607494 33.74106693 C10.22718577 30.6124135 10.22922223 27.4838023 10.22869301 24.35513115 C10.22987443 22.85320879 10.23430526 21.35128538 10.24202538 19.8493824 C10.25180724 17.74980543 10.24895463 15.65060829 10.24291992 13.55102539 C10.24434494 12.35570694 10.24576996 11.16038849 10.24723816 9.92884827 C10.22118794 6.80880719 10.22118794 6.80880719 8 4 C6.04614933 3.21011855 6.04614933 3.21011855 3.875 2.8125 C2.59625 2.544375 1.3175 2.27625 0 2 C0 1.34 0 0.68 0 0 Z M24 6 C24 29.1 24 52.2 24 76 C32.26338846 78.75446282 42.78383582 78.16716043 50.625 74.5 C60.45920109 68.73419443 64.92427255 60.95695523 67.75 50.125 C68.72779683 37.90253959 68.21873658 26.19490741 60.734375 15.96875 C55.91840071 10.50196837 49.2948801 5.63678433 41.89282227 4.74658203 C39.67068601 4.67076826 37.47241676 4.68794299 35.25 4.75 C34.49589844 4.75515625 33.74179687 4.7603125 32.96484375 4.765625 C29.73565189 4.8115105 27.0808977 4.9730341 24 6 Z " fill="#231F20" transform="translate(746,234)"/>
<path d="M0 0 C0.33 -1.32 0.66 -2.64 1 -4 C1.99 -4 2.98 -4 4 -4 C4.33896268 -1.16724047 4.67129694 1.66604661 5 4.5 C5.09539062 5.29148438 5.19078125 6.08296875 5.2890625 6.8984375 C5.87107882 11.97029404 6.09367085 16.89493859 6 22 C4.15234375 21.796875 4.15234375 21.796875 2 21 C0.69140625 18.890625 0.69140625 18.890625 -0.4375 16.25 C-3.38520509 9.97942736 -7.08805012 5.66859048 -13.4375 2.734375 C-20.97356303 0.57464962 -29.41067051 0.79494704 -36.5625 4.0625 C-45.16294185 9.16856664 -48.85789969 16.45718674 -51.53491211 25.88354492 C-53.65640806 35.53774355 -53.08754184 48.01729717 -49 57 C-48.48953125 58.16208984 -48.48953125 58.16208984 -47.96875 59.34765625 C-44.49257134 66.3822205 -38.71191235 72.77717152 -31.17578125 75.56640625 C-22.53340399 77.28867533 -15.01078547 76.3239044 -7 73 C-6.9255611 68.9615943 -6.87126271 64.92345707 -6.83520508 60.88452148 C-6.82016568 59.51205483 -6.79972867 58.13963586 -6.77368164 56.76733398 C-6.73708779 54.78911344 -6.72183302 52.81053486 -6.70703125 50.83203125 C-6.68346558 49.04889526 -6.68346558 49.04889526 -6.65942383 47.22973633 C-7.0365008 43.65385733 -7.75044811 41.79036815 -10 39 C-13.59919423 38.10407917 -13.59919423 38.10407917 -17 38 C-17 37.01 -17 36.02 -17 35 C-6.11 35 4.78 35 16 35 C16 35.66 16 36.32 16 37 C14.2421875 37.55338542 12.484375 38.10677083 10.7265625 38.66015625 C7.93483053 40.82659079 7.80059452 43.637503 7 47 C6.78447708 49.33659193 6.64848888 51.68166702 6.5859375 54.02734375 C6.54726562 55.31318359 6.50859375 56.59902344 6.46875 57.92382812 C6.43730501 59.26171418 6.40605741 60.59960489 6.375 61.9375 C6.33675658 63.30275756 6.2977013 64.66799264 6.2578125 66.03320312 C6.16390063 69.3553354 6.07822213 72.67746741 6 76 C4.10667466 76.81832722 2.21022267 77.62942268 0.3125 78.4375 C-0.74324219 78.88996094 -1.79898437 79.34242188 -2.88671875 79.80859375 C-9.30300974 82.26401251 -15.39686956 82.21533182 -22.1875 82.25 C-23.17814453 82.270625 -24.16878906 82.29125 -25.18945312 82.3125 C-37.05241966 82.37473196 -47.31463184 79.00629398 -56.23046875 70.99609375 C-65.85577002 60.90126559 -68.51524996 49.9141799 -68.2734375 36.3984375 C-67.75851514 24.52463379 -61.82120485 13.20056636 -53.1875 5.125 C-37.70897863 -7.42678341 -17.96119841 -6.09592188 0 0 Z " fill="#231F20" transform="translate(1089,236)"/>
<path d="M0 0 C20.20696497 -1.79188639 20.20696497 -1.79188639 26.21484375 2.0625 C28.46187108 4.92309176 30.2265227 7.82682761 32 11 C33.3803757 12.75827323 34.79820902 14.48771626 36.25 16.1875 C40.57705353 21.47528044 44.88487206 26.77856406 49.19116211 32.08325195 C53.01601136 36.79347777 56.85398851 41.49248087 60.70703125 46.1796875 C64.16429995 50.4320691 67.58040354 54.71730051 71 59 C71.05074164 52.1132319 71.08575113 45.22651209 71.10986328 38.33959961 C71.11991609 35.99713337 71.1335603 33.65467965 71.15087891 31.31225586 C71.17515852 27.94381617 71.18649042 24.57554253 71.1953125 21.20703125 C71.20563507 20.16102249 71.21595764 19.11501373 71.22659302 18.03730774 C71.22674408 17.05666855 71.22689514 16.07602936 71.22705078 15.06567383 C71.231492 14.20629715 71.23593323 13.34692047 71.24050903 12.46150208 C70.96490022 9.6407695 70.25977672 7.53393962 69 5 C66.85401498 3.76365342 66.85401498 3.76365342 64.375 3.1875 C63.55773438 2.95417969 62.74046875 2.72085938 61.8984375 2.48046875 C61.27195312 2.32191406 60.64546875 2.16335937 60 2 C60 1.34 60 0.68 60 0 C69.9 0 79.8 0 90 0 C90 0.66 90 1.32 90 2 C89.28972656 2.18175781 88.57945313 2.36351562 87.84765625 2.55078125 C86.46900391 2.92783203 86.46900391 2.92783203 85.0625 3.3125 C84.14597656 3.55613281 83.22945312 3.79976562 82.28515625 4.05078125 C81.53105469 4.36402344 80.77695313 4.67726562 80 5 C78.83339635 8.49981095 78.82463624 11.67415346 78.79467773 15.31713867 C78.78477814 16.05884811 78.77487854 16.80055756 78.76467896 17.56474304 C78.73309743 20.01578583 78.70831979 22.466848 78.68359375 24.91796875 C78.66302133 26.61762495 78.64202478 28.31727607 78.62062073 30.016922 C78.5654298 34.49014163 78.51600738 38.96340721 78.46777344 43.43670654 C78.41753668 48.00146574 78.36186196 52.56615823 78.30664062 57.13085938 C78.19909548 66.08718259 78.0976424 75.04356373 78 84 C74.21797184 83.20785481 72.83480063 82.0967672 70.3125 79.125 C69.60996094 78.30257812 68.90742187 77.48015625 68.18359375 76.6328125 C64.89263777 72.66482622 61.61753412 68.68555878 58.36914062 64.68261719 C55.63314679 61.32019396 52.87914615 57.97255837 50.125 54.625 C49.52526367 53.89595459 48.92552734 53.16690918 48.30761719 52.41577148 C44.17581 47.40280229 39.99564435 42.43388675 35.78417969 37.48779297 C32.25748175 33.33445036 28.83919193 29.10265101 25.4609375 24.828125 C24.12864522 23.09166198 24.12864522 23.09166198 23 22 C22.97460613 29.01089707 22.95711464 36.02178223 22.94506836 43.03271484 C22.94004541 45.41683394 22.93322587 47.80094996 22.92456055 50.18505859 C22.91240576 53.61556762 22.90675123 57.04603584 22.90234375 60.4765625 C22.89718246 61.53928375 22.89202118 62.602005 22.88670349 63.69692993 C22.88633502 68.57821728 22.96081785 73.20322148 24 78 C27.3 78.66 30.6 79.32 34 80 C34 80.66 34 81.32 34 82 C24.1 82 14.2 82 4 82 C4 81.34 4 80.68 4 80 C4.71027344 79.81824219 5.42054687 79.63648438 6.15234375 79.44921875 C7.07144531 79.19785156 7.99054688 78.94648438 8.9375 78.6875 C9.85402344 78.44386719 10.77054688 78.20023437 11.71484375 77.94921875 C12.46894531 77.63597656 13.22304687 77.32273437 14 77 C15.06962034 73.79113899 15.15267172 71.42225371 15.19287109 68.04736328 C15.20893402 66.82244171 15.22499695 65.59752014 15.24154663 64.33547974 C15.25303282 62.99709773 15.26364158 61.65870795 15.2734375 60.3203125 C15.27876118 59.64528561 15.28408485 58.97025871 15.28956985 58.27477646 C15.31626545 54.70288988 15.33565311 51.13103785 15.35009766 47.55908203 C15.3634447 44.60629348 15.39131422 41.65419475 15.43212891 38.70166016 C15.48146964 35.13195854 15.50621953 31.56288312 15.51332474 27.99285507 C15.5200318 26.63486769 15.53524018 25.276894 15.55921555 23.91910172 C15.94137976 16.75302957 15.94137976 16.75302957 13.91949463 10.07171631 C9.90699152 5.95655023 5.53906399 4.75532691 0 4 C0 2.68 0 1.36 0 0 Z " fill="#231F20" transform="translate(1103,234)"/>
<path d="M0 0 C0.71196533 0.00128906 1.42393066 0.00257813 2.1574707 0.00390625 C7.54998088 0.10272673 11.33432603 1.11483632 16.1875 3.3125 C19.02285452 3.56764536 19.02285452 3.56764536 21.1875 3.3125 C21.5175 2.3225 21.8475 1.3325 22.1875 0.3125 C23.5075 0.3125 24.8275 0.3125 26.1875 0.3125 C26.1875 9.5525 26.1875 18.7925 26.1875 28.3125 C24.8675 27.9825 23.5475 27.6525 22.1875 27.3125 C21.28125 25.23828125 21.28125 25.23828125 20.6875 22.625 C19.09728803 16.66383106 17.14703943 12.79215222 12.125 9 C6.64431769 5.85152293 1.39517215 5.49779838 -4.8125 6.3125 C-7.98989189 7.95958129 -10.19031742 10.06813484 -11.8125 13.3125 C-12.4177499 18.90777713 -12.4177499 18.90777713 -10.15625 23.83984375 C-7.61349614 26.52244908 -5.1823026 28.1891445 -2 30.0625 C-1.44103027 30.39685059 -0.88206055 30.73120117 -0.30615234 31.07568359 C1.51905443 32.16517151 3.35198445 33.2404793 5.1875 34.3125 C28.54347657 47.95672477 28.54347657 47.95672477 31.1875 57.3125 C32.02969339 63.75484534 31.93550988 69.79298316 28.58984375 75.49609375 C24.7903088 80.41749696 20.21276742 84.53441409 14.1875 86.3125 C11.26604988 86.61556873 8.37285725 86.64438529 5.4375 86.625 C4.63417236 86.62371094 3.83084473 86.62242187 3.00317383 86.62109375 C-2.83810147 86.52623898 -7.37708582 85.52351594 -12.8125 83.3125 C-15.61097753 82.80496656 -15.61097753 82.80496656 -17.8125 83.3125 C-18.4725 84.3025 -19.1325 85.2925 -19.8125 86.3125 C-20.8025 86.3125 -21.7925 86.3125 -22.8125 86.3125 C-22.8125 77.0725 -22.8125 67.8325 -22.8125 58.3125 C-21.4925 58.6425 -20.1725 58.9725 -18.8125 59.3125 C-17.90625 61.38671875 -17.90625 61.38671875 -17.3125 64 C-15.72228803 69.96116894 -13.77203943 73.83284778 -8.75 77.625 C-2.68990967 81.10632849 3.35200801 80.90104175 10.1875 80.3125 C14.47960152 78.46245624 15.75393735 77.01703931 18.1875 73.0625 C19.44089115 68.3622832 19.35312999 65.64477361 17.1875 61.3125 C12.22916585 55.89840287 6.1289286 52.29755758 -0.25 48.8125 C-20.24467586 37.47910343 -20.24467586 37.47910343 -23.8125 26.3125 C-25.05191876 19.72808782 -23.40505917 13.90092538 -19.8125 8.3125 C-14.11203843 1.99066111 -8.47299278 -0.06337169 0 0 Z " fill="#231F20" transform="translate(1224.8125,231.6875)"/>
<path d="M0 0 C0.71196533 0.00128906 1.42393066 0.00257813 2.1574707 0.00390625 C7.54998088 0.10272673 11.33432603 1.11483632 16.1875 3.3125 C19.02285452 3.56764536 19.02285452 3.56764536 21.1875 3.3125 C21.5175 2.3225 21.8475 1.3325 22.1875 0.3125 C23.5075 0.3125 24.8275 0.3125 26.1875 0.3125 C26.1875 9.5525 26.1875 18.7925 26.1875 28.3125 C24.8675 27.9825 23.5475 27.6525 22.1875 27.3125 C21.28125 25.23828125 21.28125 25.23828125 20.6875 22.625 C19.09728803 16.66383106 17.14703943 12.79215222 12.125 9 C6.64431769 5.85152293 1.39517215 5.49779838 -4.8125 6.3125 C-7.98989189 7.95958129 -10.19031742 10.06813484 -11.8125 13.3125 C-12.4177499 18.90777713 -12.4177499 18.90777713 -10.15625 23.83984375 C-7.61349614 26.52244908 -5.1823026 28.1891445 -2 30.0625 C-1.44103027 30.39685059 -0.88206055 30.73120117 -0.30615234 31.07568359 C1.51905443 32.16517151 3.35198445 33.2404793 5.1875 34.3125 C28.54347657 47.95672477 28.54347657 47.95672477 31.1875 57.3125 C32.02969339 63.75484534 31.93550988 69.79298316 28.58984375 75.49609375 C24.7903088 80.41749696 20.21276742 84.53441409 14.1875 86.3125 C11.26604988 86.61556873 8.37285725 86.64438529 5.4375 86.625 C4.63417236 86.62371094 3.83084473 86.62242187 3.00317383 86.62109375 C-2.83810147 86.52623898 -7.37708582 85.52351594 -12.8125 83.3125 C-15.61097753 82.80496656 -15.61097753 82.80496656 -17.8125 83.3125 C-18.4725 84.3025 -19.1325 85.2925 -19.8125 86.3125 C-20.8025 86.3125 -21.7925 86.3125 -22.8125 86.3125 C-22.8125 77.0725 -22.8125 67.8325 -22.8125 58.3125 C-21.4925 58.6425 -20.1725 58.9725 -18.8125 59.3125 C-17.90625 61.38671875 -17.90625 61.38671875 -17.3125 64 C-15.72228803 69.96116894 -13.77203943 73.83284778 -8.75 77.625 C-2.68990967 81.10632849 3.35200801 80.90104175 10.1875 80.3125 C14.47960152 78.46245624 15.75393735 77.01703931 18.1875 73.0625 C19.44089115 68.3622832 19.35312999 65.64477361 17.1875 61.3125 C12.22916585 55.89840287 6.1289286 52.29755758 -0.25 48.8125 C-20.24467586 37.47910343 -20.24467586 37.47910343 -23.8125 26.3125 C-25.05191876 19.72808782 -23.40505917 13.90092538 -19.8125 8.3125 C-14.11203843 1.99066111 -8.47299278 -0.06337169 0 0 Z " fill="#231F20" transform="translate(938.8125,231.6875)"/>
<path d="M0 0 C21.12 0 42.24 0 64 0 C64.495 8.91 64.495 8.91 65 18 C63.68 18 62.36 18 61 18 C60.82984375 17.38511719 60.6596875 16.77023438 60.484375 16.13671875 C59.04878395 11.23314352 59.04878395 11.23314352 56.3125 7 C49.77563677 4.17324833 41.51953746 4.71876517 34.5 4.4375 C29.3025 4.2209375 29.3025 4.2209375 24 4 C24 14.89 24 25.78 24 37 C29.6795089 36.73167674 35.33250108 36.41833443 41 36 C41.98742187 35.93554688 42.97484375 35.87109375 43.9921875 35.8046875 C46.60904691 35.56058307 46.60904691 35.56058307 50 34 C51.89906821 31.15139768 53.03657983 28.27428115 54 25 C54.99 25 55.98 25 57 25 C57 34.24 57 43.48 57 53 C56.01 53 55.02 53 54 53 C53.81566406 52.37351562 53.63132812 51.74703125 53.44140625 51.1015625 C52.5150497 48.49129559 51.53793134 46.30689701 50 44 C46.55642531 42.59922385 44.62572211 42.23666593 41 42 C40.31454102 41.9494043 39.62908203 41.89880859 38.92285156 41.84667969 C33.95096163 41.48412396 28.97971144 41.22824504 24 41 C24.11811981 45.66326382 24.24235866 50.3263088 24.37231445 54.98925781 C24.41567241 56.57612657 24.45734687 58.16304224 24.49731445 59.75 C24.55499632 62.02878979 24.61869638 64.30734322 24.68359375 66.5859375 C24.70030624 67.29744965 24.71701874 68.00896179 24.73423767 68.74203491 C24.79721937 72.49660817 24.79721937 72.49660817 26 76 C35.0440426 78.56545553 48.49203435 78.37598518 57.1875 74.625 C60.767134 71.28400827 62.91424393 67.52468929 65.2890625 63.265625 C66.13597656 62.14414062 66.13597656 62.14414062 67 61 C68.32 61 69.64 61 71 61 C70.58800909 62.43884706 70.17001084 63.87597355 69.75 65.3125 C69.51796875 66.11300781 69.2859375 66.91351563 69.046875 67.73828125 C67.50578266 72.53981895 65.72333846 77.26081922 64 82 C42.88 82 21.76 82 0 82 C0 81.34 0 80.68 0 80 C0.62648438 79.84144531 1.25296875 79.68289063 1.8984375 79.51953125 C3.12433594 79.16955078 3.12433594 79.16955078 4.375 78.8125 C5.59316406 78.48185547 5.59316406 78.48185547 6.8359375 78.14453125 C9.80258762 76.57552676 10.00939004 75.16762596 11 72 C11.2936572 69.03327332 11.2936572 69.03327332 11.24291992 65.83618164 C11.24599655 64.61463882 11.24907318 63.39309601 11.25224304 62.13453674 C11.24505753 60.82299118 11.23787201 59.51144562 11.23046875 58.16015625 C11.22927527 56.79162133 11.22882414 55.42308558 11.2290802 54.05455017 C11.22751911 51.19069261 11.21925958 48.32696071 11.20581055 45.46313477 C11.18883747 41.80376074 11.18499606 38.14452479 11.18575573 34.485116 C11.18548293 31.66001584 11.17998376 28.83494548 11.17275429 26.00985527 C11.16805188 24.00804379 11.16629769 22.00622607 11.16459656 20.00440979 C11.15821671 18.77971481 11.15183685 17.55501984 11.14526367 16.29321289 C11.14145187 15.22019424 11.13764008 14.1471756 11.13371277 13.04164124 C10.99804737 9.95558242 10.57124032 7.0331506 10 4 C6.7 3.34 3.4 2.68 0 2 C0 1.34 0 0.68 0 0 Z " fill="#231F20" transform="translate(835,234)"/>
<path d="M0 0 C11.55 0 23.1 0 35 0 C35 0.66 35 1.32 35 2 C34.04287109 2.29003906 34.04287109 2.29003906 33.06640625 2.5859375 C32.24011719 2.84632813 31.41382813 3.10671875 30.5625 3.375 C29.32693359 3.75785156 29.32693359 3.75785156 28.06640625 4.1484375 C25.82201984 4.80882227 25.82201984 4.80882227 25 7 C24.89280725 9.13853257 24.85110638 11.28044846 24.83886719 13.42163086 C24.83390228 14.08034683 24.82893738 14.73906281 24.82382202 15.41773987 C24.8091986 17.60011839 24.80239867 19.78242426 24.796875 21.96484375 C24.79112433 23.47937523 24.78536659 24.99390668 24.77960205 26.50843811 C24.769092 29.68523498 24.76324916 32.86200654 24.75976562 36.03881836 C24.75427639 40.112336 24.73023957 44.18552013 24.70179367 48.25893307 C24.68318498 51.38758833 24.67796268 54.51616291 24.67642975 57.64486885 C24.6733994 59.14680368 24.66535799 60.64873696 24.65224457 62.1506176 C24.63521788 64.25032953 24.63705524 66.34922195 24.64355469 68.44897461 C24.63990906 69.64429306 24.63626343 70.83961151 24.63250732 72.07115173 C24.76339052 74.96883857 24.76339052 74.96883857 26.29180908 76.83522034 C28.96398145 78.65731879 31.88915634 79.23696287 35 80 C35 80.66 35 81.32 35 82 C23.45 82 11.9 82 0 82 C0 81.34 0 80.68 0 80 C0.63808594 79.80664062 1.27617188 79.61328125 1.93359375 79.4140625 C3.17302734 79.02347656 3.17302734 79.02347656 4.4375 78.625 C5.26121094 78.36976563 6.08492187 78.11453125 6.93359375 77.8515625 C9.17798016 77.19117773 9.17798016 77.19117773 10 75 C10.10719275 72.86146743 10.14889362 70.71955154 10.16113281 68.57836914 C10.16609772 67.91965317 10.17106262 67.26093719 10.17617798 66.58226013 C10.1908014 64.39988161 10.19760133 62.21757574 10.203125 60.03515625 C10.20887567 58.52062477 10.21463341 57.00609332 10.22039795 55.49156189 C10.230908 52.31476502 10.23675084 49.13799346 10.24023438 45.96118164 C10.24572361 41.887664 10.26976043 37.81447987 10.29820633 33.74106693 C10.31681502 30.61241167 10.32203732 27.48383709 10.32357025 24.35513115 C10.3266006 22.85319632 10.33464201 21.35126304 10.34775543 19.8493824 C10.36478212 17.74967047 10.36294476 15.65077805 10.35644531 13.55102539 C10.36191376 11.75804771 10.36191376 11.75804771 10.36749268 9.92884827 C10.23660948 7.03116143 10.23660948 7.03116143 8.70819092 5.16477966 C6.03601855 3.34268121 3.11084366 2.76303713 0 2 C0 1.34 0 0.68 0 0 Z " fill="#231F20" transform="translate(979,234)"/>
<path d="M0 0 C3.63 0 7.26 0 11 0 C10.34 0.66 9.68 1.32 9 2 C8.75660449 4.89883083 8.75660449 4.89883083 8.875 8.125 C8.90207031 9.76855469 8.90207031 9.76855469 8.9296875 11.4453125 C8.95289063 12.28835938 8.97609375 13.13140625 9 14 C14.05009595 14.93786082 14.05009595 14.93786082 19 14 C20.23408207 11.53183586 20.20197579 9.75338799 20.25 7 C20.27578125 6.113125 20.3015625 5.22625 20.328125 4.3125 C20.21984375 3.549375 20.1115625 2.78625 20 2 C19.01 1.34 18.02 0.68 17 0 C21.43744539 -0.05793591 25.87479389 -0.09357467 30.3125 -0.125 C31.57513672 -0.14175781 32.83777344 -0.15851563 34.13867188 -0.17578125 C35.95141602 -0.18544922 35.95141602 -0.18544922 37.80078125 -0.1953125 C38.91622314 -0.20578613 40.03166504 -0.21625977 41.1809082 -0.22705078 C44 0 44 0 47 2 C47.4375 4.4375 47.4375 4.4375 47 7 C45 8.8125 45 8.8125 43 10 C46.66590839 13.34244589 49.12548139 14.35861597 54 15 C54.08078641 12.87561661 54.13909141 10.7503677 54.1875 8.625 C54.22230469 7.44164062 54.25710938 6.25828125 54.29296875 5.0390625 C54.19628906 4.03617187 54.09960938 3.03328125 54 2 C53.01 1.34 52.02 0.68 51 0 C57.6 0 64.2 0 71 0 C70.67 1.32 70.34 2.64 70 4 C69.01 3.01 69.01 3.01 68 2 C65.79749008 1.53993654 65.79749008 1.53993654 63.375 1.375 C62.55773438 1.30023438 61.74046875 1.22546875 60.8984375 1.1484375 C60.27195312 1.09945313 59.64546875 1.05046875 59 1 C59 3.31 59 5.62 59 8 C62.46941546 7.54177532 65.67395049 7.10868317 69 6 C69 7.65 69 9.3 69 11 C64.05 10.01 64.05 10.01 59 9 C59.495 11.97 59.495 11.97 60 15 C64.92127034 15.16682272 68.50343896 15.24828052 73 13 C72.67 14.32 72.34 15.64 72 17 C67.47983756 17.2041769 62.96086689 17.32793748 58.4375 17.4375 C56.52227539 17.52547852 56.52227539 17.52547852 54.56835938 17.61523438 C45.20979198 17.78539015 45.20979198 17.78539015 41.60595703 15.44580078 C39.89913654 13.71419886 38.46261173 11.93599057 37 10 C36.34 9.67 35.68 9.34 35 9 C35.44703986 13.47883696 35.44703986 13.47883696 38 17 C34.37 17 30.74 17 27 17 C27.99 16.34 28.98 15.68 30 15 C30.36530232 11.87442041 30.36530232 11.87442041 30.1875 8.375 C30.16042969 7.18648438 30.13335938 5.99796875 30.10546875 4.7734375 C30.05326172 3.40058594 30.05326172 3.40058594 30 2 C28.02 2 26.04 2 24 2 C23.97421875 2.83144531 23.9484375 3.66289062 23.921875 4.51953125 C23.86515625 5.60621094 23.8084375 6.69289063 23.75 7.8125 C23.68039062 9.43091797 23.68039062 9.43091797 23.609375 11.08203125 C23 14 23 14 21.328125 15.859375 C18.40829611 17.28989519 16.24572049 17.43344285 13 17.4375 C11.96875 17.45683594 10.9375 17.47617187 9.875 17.49609375 C6.26461351 16.87310586 5.12086476 15.96224068 3 13 C2.4609375 10.2734375 2.4609375 10.2734375 2.375 7.375 C2.41575939 3.187816 2.41575939 3.187816 0 0 Z M35 1 C35 3.31 35 5.62 35 8 C36.98 7.67 38.96 7.34 41 7 C41.33 5.68 41.66 4.36 42 3 C39.04622502 0.63019987 39.04622502 0.63019987 35 1 Z " fill="#231F20" transform="translate(1124,355)"/>
<path d="M0 0 C3.3 0 6.6 0 10 0 C9.01 0.495 9.01 0.495 8 1 C8.61697319 2.48253267 9.24383896 3.96095174 9.875 5.4375 C10.39707031 6.67306641 10.39707031 6.67306641 10.9296875 7.93359375 C11.8244937 10.15746715 11.8244937 10.15746715 14 11 C14.33 8.03 14.66 5.06 15 2 C14.01 1.67 13.02 1.34 12 1 C12 0.67 12 0.34 12 0 C15.3 0 18.6 0 22 0 C21.01 1.485 21.01 1.485 20 3 C21.32 5.31 22.64 7.62 24 10 C26.25245881 7.31158141 27.88213958 5.35358125 29 2 C28.34 1.34 27.68 0.68 27 0 C36.24 0 45.48 0 55 0 C54.67 1.32 54.34 2.64 54 4 C53.34 3.34 52.68 2.68 52 2 C49.79749008 1.53993654 49.79749008 1.53993654 47.375 1.375 C46.55773437 1.30023438 45.74046875 1.22546875 44.8984375 1.1484375 C44.27195312 1.09945313 43.64546875 1.05046875 43 1 C43 3.31 43 5.62 43 8 C46.46941546 7.54177532 49.67395049 7.10868317 53 6 C53 7.65 53 9.3 53 11 C48.05 10.01 48.05 10.01 43 9 C43.495 11.97 43.495 11.97 44 15 C48.92127034 15.16682272 52.50343896 15.24828052 57 13 C56.67 14.32 56.34 15.64 56 17 C49.07 17 42.14 17 35 17 C35.99 16.34 36.98 15.68 38 15 C38.36530232 11.87442041 38.36530232 11.87442041 38.1875 8.375 C38.16042969 7.18648438 38.13335938 5.99796875 38.10546875 4.7734375 C38.05326172 3.40058594 38.05326172 3.40058594 38 2 C36.02 2 34.04 2 32 2 C31.773125 2.804375 31.54625 3.60875 31.3125 4.4375 C29.66368412 8.91285739 27.39455588 12.88721318 25 17 C24.01 17 23.02 17 22 17 C20.02 13.535 20.02 13.535 18 10 C16.25728062 12.297221 14.60088848 14.59866729 13 17 C8.8342241 15.61140803 7.89852323 12.73350638 5.9375 9.0625 C3.40685386 4.22458114 3.40685386 4.22458114 0 0 Z " fill="#231F20" transform="translate(748,355)"/>
<path d="M0 0 C3.63 0 7.26 0 11 0 C10.34 0.66 9.68 1.32 9 2 C8.75660449 4.89883083 8.75660449 4.89883083 8.875 8.125 C8.90207031 9.76855469 8.90207031 9.76855469 8.9296875 11.4453125 C8.95289063 12.28835938 8.97609375 13.13140625 9 14 C14.05009595 14.93786082 14.05009595 14.93786082 19 14 C20.23408207 11.53183586 20.20197579 9.75338799 20.25 7 C20.27578125 6.113125 20.3015625 5.22625 20.328125 4.3125 C20.21984375 3.549375 20.1115625 2.78625 20 2 C19.01 1.34 18.02 0.68 17 0 C21.43744539 -0.05793591 25.87479389 -0.09357467 30.3125 -0.125 C31.57513672 -0.14175781 32.83777344 -0.15851563 34.13867188 -0.17578125 C35.95141602 -0.18544922 35.95141602 -0.18544922 37.80078125 -0.1953125 C38.91622314 -0.20578613 40.03166504 -0.21625977 41.1809082 -0.22705078 C44 0 44 0 47 2 C47.4375 4.4375 47.4375 4.4375 47 7 C45 8.8125 45 8.8125 43 10 C45.96283313 12.38672669 48.94270509 14.7353371 52 17 C45.12004333 17.84490696 45.12004333 17.84490696 41.98046875 15.4765625 C40.76818823 14.22599944 39.58752366 12.94377723 38.4453125 11.62890625 C37.07728374 9.88355004 37.07728374 9.88355004 35 9 C35.44703986 13.47883696 35.44703986 13.47883696 38 17 C34.37 17 30.74 17 27 17 C27.99 16.34 28.98 15.68 30 15 C30.36530232 11.87442041 30.36530232 11.87442041 30.1875 8.375 C30.16042969 7.18648438 30.13335938 5.99796875 30.10546875 4.7734375 C30.05326172 3.40058594 30.05326172 3.40058594 30 2 C28.02 2 26.04 2 24 2 C23.97421875 2.83144531 23.9484375 3.66289062 23.921875 4.51953125 C23.86515625 5.60621094 23.8084375 6.69289063 23.75 7.8125 C23.68039062 9.43091797 23.68039062 9.43091797 23.609375 11.08203125 C23 14 23 14 21.328125 15.859375 C18.40829611 17.28989519 16.24572049 17.43344285 13 17.4375 C11.96875 17.45683594 10.9375 17.47617187 9.875 17.49609375 C6.26461351 16.87310586 5.12086476 15.96224068 3 13 C2.4609375 10.2734375 2.4609375 10.2734375 2.375 7.375 C2.41575939 3.187816 2.41575939 3.187816 0 0 Z M35 1 C35 3.31 35 5.62 35 8 C36.98 7.67 38.96 7.34 41 7 C41.33 5.68 41.66 4.36 42 3 C39.04622502 0.63019987 39.04622502 0.63019987 35 1 Z " fill="#231F20" transform="translate(993,355)"/>
<path d="M0 0 C0.99 0 1.98 0 3 0 C3.49628906 0.99902344 3.99257813 1.99804688 4.50390625 3.02734375 C5.18878289 4.33142393 5.87505466 5.63477208 6.5625 6.9375 C7.04686523 7.9265332 7.04686523 7.9265332 7.54101562 8.93554688 C8.66163683 11.13955378 8.66163683 11.13955378 11 14 C14.64989015 15.05952072 14.64989015 15.05952072 18 15 C18.08078641 12.87561661 18.13909141 10.7503677 18.1875 8.625 C18.22230469 7.44164062 18.25710938 6.25828125 18.29296875 5.0390625 C18.19628906 4.03617187 18.09960938 3.03328125 18 2 C17.01 1.34 16.02 0.68 15 0 C17.58396679 -0.08112454 20.16537568 -0.14054748 22.75 -0.1875 C23.47960937 -0.21263672 24.20921875 -0.23777344 24.9609375 -0.26367188 C28.34486604 -0.30981636 30.57858557 -0.25324128 33.515625 1.51171875 C34.25039063 2.24841797 34.25039063 2.24841797 35 3 C34.25 7.75 34.25 7.75 32 10 C29.8359375 10.1953125 29.8359375 10.1953125 27.375 10.125 C26.55773437 10.10695313 25.74046875 10.08890625 24.8984375 10.0703125 C24.27195312 10.04710937 23.64546875 10.02390625 23 10 C23.57452746 13.93075644 23.57452746 13.93075644 26 17 C18.74 17 11.48 17 4 17 C4.66 16.67 5.32 16.34 6 16 C5.34 14.68 4.68 13.36 4 12 C1.36 12 -1.28 12 -4 12 C-4.66 13.32 -5.32 14.64 -6 16 C-5.34 16.33 -4.68 16.66 -4 17 C-6.64 17 -9.28 17 -12 17 C-11.63648438 16.52691406 -11.27296875 16.05382812 -10.8984375 15.56640625 C-7.48166791 11.0720401 -4.34646601 6.50167459 -1.39453125 1.6875 C-0.93433594 1.130625 -0.47414063 0.57375 0 0 Z M23 1 C23 3.31 23 5.62 23 8 C24.84725052 8.69159401 24.84725052 8.69159401 27 9 C27.99 8.34 28.98 7.68 30 7 C29.67 5.35 29.34 3.7 29 2 C26.03 1.505 26.03 1.505 23 1 Z M0 5 C-1.03013277 6.64821244 -2.03114628 8.31503702 -3 10 C-1.02 10 0.96 10 3 10 C2.34 8.35 1.68 6.7 1 5 C0.67 5 0.34 5 0 5 Z " fill="#231F20" transform="translate(874,355)"/>
<path d="M0 0 C3.63 0 7.26 0 11 0 C10.34 0.66 9.68 1.32 9 2 C8.75660449 4.89883083 8.75660449 4.89883083 8.875 8.125 C8.90207031 9.76855469 8.90207031 9.76855469 8.9296875 11.4453125 C8.95289063 12.28835938 8.97609375 13.13140625 9 14 C14.05009595 14.93786082 14.05009595 14.93786082 19 14 C20.23408207 11.53183586 20.20197579 9.75338799 20.25 7 C20.27578125 6.113125 20.3015625 5.22625 20.328125 4.3125 C20.21984375 3.549375 20.1115625 2.78625 20 2 C19.01 1.34 18.02 0.68 17 0 C27.23 0 37.46 0 48 0 C48 1.32 48 2.64 48 4 C47.34 4 46.68 4 46 4 C46 3.34 46 2.68 46 2 C43.69 1.67 41.38 1.34 39 1 C39.495 8.425 39.495 8.425 40 16 C40.99 16.33 41.98 16.66 43 17 C39.37 17 35.74 17 32 17 C32.66 16.34 33.32 15.68 34 15 C34.30059943 12.63490639 34.49515012 10.25558119 34.625 7.875 C34.69976563 6.59367187 34.77453125 5.31234375 34.8515625 3.9921875 C34.90054687 3.00476563 34.94953125 2.01734375 35 1 C30.92035719 2.30155006 30.92035719 2.30155006 27 4 C27 3.01 27 2.02 27 1 C26.01 1.33 25.02 1.66 24 2 C23.97421875 2.83144531 23.9484375 3.66289062 23.921875 4.51953125 C23.86515625 5.60621094 23.8084375 6.69289063 23.75 7.8125 C23.68039062 9.43091797 23.68039062 9.43091797 23.609375 11.08203125 C23 14 23 14 21.328125 15.859375 C18.40829611 17.28989519 16.24572049 17.43344285 13 17.4375 C11.96875 17.45683594 10.9375 17.47617187 9.875 17.49609375 C6.26461351 16.87310586 5.12086476 15.96224068 3 13 C2.4609375 10.2734375 2.4609375 10.2734375 2.375 7.375 C2.41575939 3.187816 2.41575939 3.187816 0 0 Z " fill="#231F20" transform="translate(1075,355)"/>
<path d="M0 0 C3.63 0 7.26 0 11 0 C10.34 0.66 9.68 1.32 9 2 C8.60235737 3.98821313 8.26224651 5.98944339 8 8 C11.63 8 15.26 8 19 8 C18.73343428 5.06556598 18.73343428 5.06556598 18 2 C17.01 1.34 16.02 0.68 15 0 C18.63 0 22.26 0 26 0 C25.34 0.66 24.68 1.32 24 2 C23.67972695 5.05819227 23.67972695 5.05819227 23.75 8.5 C23.74484375 9.6653125 23.7396875 10.830625 23.734375 12.03125 C23.69074227 15.11826065 23.69074227 15.11826065 26 17 C22.37 17 18.74 17 15 17 C15.99 16.34 16.98 15.68 18 15 C18.73343428 11.93443402 18.73343428 11.93443402 19 9 C15.37 9 11.74 9 8 9 C8.44703986 13.47883696 8.44703986 13.47883696 11 17 C7.37 17 3.74 17 0 17 C0.99 16.34 1.98 15.68 3 15 C3.48003918 11.94714247 3.48003918 11.94714247 3.375 8.5 C3.38273438 7.3346875 3.39046875 6.169375 3.3984375 4.96875 C3.20121094 3.49921875 3.20121094 3.49921875 3 2 C2.01 1.34 1.02 0.68 0 0 Z " fill="#231F20" transform="translate(835,355)"/>
<path d="M0 0 C2.375 2.375 2.375 2.375 3.4375 5.3125 C3.36276073 8.97472445 2.66115127 10.53701911 0.375 13.375 C-4.26101516 16.30569681 -9.32720815 15.9016351 -14.625 15.375 C-17.70573848 13.9918113 -19.2634567 12.7365433 -21.625 10.375 C-22.0673824 6.39355844 -22.28805693 4.24383322 -19.8125 1 C-14.17118591 -3.19069046 -6.16567473 -2.76392316 0 0 Z M-14.375 0.9375 C-16.92973311 3.26615639 -16.92973311 3.26615639 -17.25 6.875 C-16.90714023 10.44966486 -16.90714023 10.44966486 -14.5625 12.875 C-10.71239354 14.84101181 -8.73299908 14.59218491 -4.625 13.375 C-2.45833333 11.875 -2.45833333 11.875 -1.625 9.375 C-1.45914809 5.78594915 -1.45914809 5.78594915 -2.625 2.375 C-6.54493754 -0.909272 -9.76258751 -1.68318892 -14.375 0.9375 Z " fill="#231F20" transform="translate(989.625,356.625)"/>
<path d="M0 0 C1.09570312 0.00902344 2.19140625 0.01804687 3.3203125 0.02734375 C4.16335938 0.03894531 5.00640625 0.05054688 5.875 0.0625 C5.875 1.7125 5.875 3.3625 5.875 5.0625 C4.5446875 4.32 4.5446875 4.32 3.1875 3.5625 C-0.00086238 2.11871326 -1.70687546 1.76090078 -5.125 2.0625 C-5.125 3.0525 -5.125 4.0425 -5.125 5.0625 C-4.52171875 5.24425781 -3.9184375 5.42601562 -3.296875 5.61328125 C4.64125659 8.10995167 4.64125659 8.10995167 7.875 11.0625 C7.30155063 13.92974686 7.0135485 14.9239515 4.875 17.0625 C1.6171875 17.2578125 1.6171875 17.2578125 -2.25 17.1875 C-4.17199219 17.16042969 -4.17199219 17.16042969 -6.1328125 17.1328125 C-7.61394531 17.09800781 -7.61394531 17.09800781 -9.125 17.0625 C-9.125 15.0825 -9.125 13.1025 -9.125 11.0625 C-8.465 11.0625 -7.805 11.0625 -7.125 11.0625 C-6.135 12.5475 -6.135 12.5475 -5.125 14.0625 C-2.15844954 14.97365 -2.15844954 14.97365 0.875 15.0625 C1.535 14.4025 2.195 13.7425 2.875 13.0625 C2.17632813 12.72476562 1.47765625 12.38703125 0.7578125 12.0390625 C-0.15226563 11.59304688 -1.06234375 11.14703125 -2 10.6875 C-3.35738281 10.02621094 -3.35738281 10.02621094 -4.7421875 9.3515625 C-7.125 8.0625 -7.125 8.0625 -9.125 6.0625 C-8.875 3.5 -8.875 3.5 -8.125 1.0625 C-5.36047967 -0.31976016 -3.0788637 -0.03275387 0 0 Z " fill="#231F20" transform="translate(826.125,354.9375)"/>
<path d="M0 0 C6.6 0 13.2 0 20 0 C19.67 1.32 19.34 2.64 19 4 C18.34 3.34 17.68 2.68 17 2 C14.79749008 1.53993654 14.79749008 1.53993654 12.375 1.375 C11.55773437 1.30023438 10.74046875 1.22546875 9.8984375 1.1484375 C9.27195312 1.09945313 8.64546875 1.05046875 8 1 C8 3.31 8 5.62 8 8 C11.46941546 7.54177532 14.67395049 7.10868317 18 6 C18 7.65 18 9.3 18 11 C14.7 10.34 11.4 9.68 8 9 C8.33 10.98 8.66 12.96 9 15 C13.92127034 15.16682272 17.50343896 15.24828052 22 13 C21.67 14.32 21.34 15.64 21 17 C14.07 17 7.14 17 0 17 C0.99 16.34 1.98 15.68 3 15 C3.48003918 11.94714247 3.48003918 11.94714247 3.375 8.5 C3.38273438 7.3346875 3.39046875 6.169375 3.3984375 4.96875 C3.20121094 3.49921875 3.20121094 3.49921875 3 2 C2.01 1.34 1.02 0.68 0 0 Z " fill="#231F20" transform="translate(909,355)"/>
<path d="M0 0 C3.63 0 7.26 0 11 0 C10.01 0.495 10.01 0.495 9 1 C10.65 2.98 12.3 4.96 14 7 C16.87420123 4.28395285 16.87420123 4.28395285 19 1 C18.34 0.67 17.68 0.34 17 0 C20.3 0 23.6 0 27 0 C25.68 0.99 24.36 1.98 23 3 C21.31337542 4.64646685 19.64488294 6.31183067 18 8 C17.34 8.66 16.68 9.32 16 10 C15.58333333 12.5 15.58333333 12.5 16 15 C16.99 15.66 17.98 16.32 19 17 C15.37 17 11.74 17 8 17 C8.66 16.34 9.32 15.68 10 15 C10.83752425 12.21717469 10.83752425 12.21717469 10 9 C7.57377529 6.34769526 4.8294462 4.20446813 2 2 C1.34 1.34 0.68 0.68 0 0 Z " fill="#231F20" transform="translate(940,355)"/>
<path d="M0 0 C6.27 0 12.54 0 19 0 C19.33 1.32 19.66 2.64 20 4 C18.9790625 3.5359375 18.9790625 3.5359375 17.9375 3.0625 C14.63034088 1.86629351 11.48454122 1.40994603 8 1 C8 3.31 8 5.62 8 8 C10.64 7.34 13.28 6.68 16 6 C16 7.65 16 9.3 16 11 C13.36 10.34 10.72 9.68 8 9 C8.26656572 11.93443402 8.26656572 11.93443402 9 15 C9.99 15.66 10.98 16.32 12 17 C8.04 17 4.08 17 0 17 C0.99 16.34 1.98 15.68 3 15 C3.48003918 11.94714247 3.48003918 11.94714247 3.375 8.5 C3.38273437 7.3346875 3.39046875 6.169375 3.3984375 4.96875 C3.20121094 3.49921875 3.20121094 3.49921875 3 2 C2.01 1.34 1.02 0.68 0 0 Z " fill="#231F20" transform="translate(1054,355)"/>
</svg>
